G04 #@! TF.GenerationSoftware,KiCad,Pcbnew,(5.1.2)-1*
G04 #@! TF.CreationDate,2019-06-04T17:54:49-04:00*
G04 #@! TF.ProjectId,fmcw3,666d6377-332e-46b6-9963-61645f706362,rev?*
G04 #@! TF.SameCoordinates,Original*
G04 #@! TF.FileFunction,Legend,Bot*
G04 #@! TF.FilePolarity,Positive*
%FSLAX46Y46*%
G04 Gerber Fmt 4.6, Leading zero omitted, Abs format (unit mm)*
G04 Created by KiCad (PCBNEW (5.1.2)-1) date 2019-06-04 17:54:49*
%MOMM*%
%LPD*%
G04 APERTURE LIST*
%ADD10C,0.150000*%
%ADD11C,0.125000*%
G04 APERTURE END LIST*
D10*
X132725000Y-80625000D02*
X132725000Y-79625000D01*
X134425000Y-79625000D02*
X134425000Y-80625000D01*
X136725000Y-79550000D02*
X136725000Y-80550000D01*
X135025000Y-80550000D02*
X135025000Y-79550000D01*
X146875000Y-98550000D02*
X146875000Y-98050000D01*
X147825000Y-98050000D02*
X147825000Y-98550000D01*
X147150000Y-102125000D02*
X146650000Y-102125000D01*
X146650000Y-101075000D02*
X147150000Y-101075000D01*
X169775000Y-97200000D02*
X169775000Y-96700000D01*
X170725000Y-96700000D02*
X170725000Y-97200000D01*
X172550000Y-97500000D02*
X172550000Y-96500000D01*
X172550000Y-96500000D02*
X170850000Y-96500000D01*
X170850000Y-96500000D02*
X170850000Y-97500000D01*
X170850000Y-97500000D02*
X172550000Y-97500000D01*
X141925000Y-82300000D02*
X141925000Y-82800000D01*
X140875000Y-82800000D02*
X140875000Y-82300000D01*
X162725000Y-118500000D02*
X162725000Y-119000000D01*
X161775000Y-119000000D02*
X161775000Y-118500000D01*
X149550000Y-118875000D02*
X149550000Y-118375000D01*
X150500000Y-118375000D02*
X150500000Y-118875000D01*
X148800000Y-87575000D02*
X148800000Y-86575000D01*
X150500000Y-86575000D02*
X150500000Y-87575000D01*
X151650000Y-86575000D02*
X151650000Y-87575000D01*
X149950000Y-87575000D02*
X149950000Y-86575000D01*
X164850000Y-85750000D02*
X165850000Y-85750000D01*
X165850000Y-87450000D02*
X164850000Y-87450000D01*
X175450000Y-92025000D02*
X174950000Y-92025000D01*
X174950000Y-90975000D02*
X175450000Y-90975000D01*
X155000000Y-95700000D02*
X154000000Y-95700000D01*
X154000000Y-94000000D02*
X155000000Y-94000000D01*
X201725000Y-93675000D02*
X201225000Y-93675000D01*
X201225000Y-92725000D02*
X201725000Y-92725000D01*
X139250000Y-112175000D02*
X139750000Y-112175000D01*
X139750000Y-113125000D02*
X139250000Y-113125000D01*
X133725000Y-108750000D02*
X133725000Y-109250000D01*
X132775000Y-109250000D02*
X132775000Y-108750000D01*
X141300000Y-122525000D02*
X140800000Y-122525000D01*
X140800000Y-121575000D02*
X141300000Y-121575000D01*
X131825000Y-118950000D02*
X131825000Y-119450000D01*
X130875000Y-119450000D02*
X130875000Y-118950000D01*
X142585000Y-119585000D02*
X142585000Y-119085000D01*
X143535000Y-119085000D02*
X143535000Y-119585000D01*
X137500000Y-110225000D02*
X138000000Y-110225000D01*
X138000000Y-111175000D02*
X137500000Y-111175000D01*
X142310000Y-117035000D02*
X142310000Y-116535000D01*
X143260000Y-116535000D02*
X143260000Y-117035000D01*
X128350000Y-114100000D02*
X128350000Y-114800000D01*
X129550000Y-114800000D02*
X129550000Y-114100000D01*
X133600000Y-116450000D02*
X133600000Y-115750000D01*
X132400000Y-115750000D02*
X132400000Y-116450000D01*
X157050000Y-105325000D02*
X157550000Y-105325000D01*
X157550000Y-106275000D02*
X157050000Y-106275000D01*
X164928548Y-107967216D02*
X164428548Y-107967216D01*
X164428548Y-107017216D02*
X164928548Y-107017216D01*
X192200000Y-80795000D02*
X192700000Y-80795000D01*
X192700000Y-81745000D02*
X192200000Y-81745000D01*
X201680000Y-85910000D02*
X202180000Y-85910000D01*
X202180000Y-86860000D02*
X201680000Y-86860000D01*
X196600000Y-99500000D02*
X196100000Y-99500000D01*
X196100000Y-98550000D02*
X196600000Y-98550000D01*
X179748022Y-90061050D02*
X179748022Y-89561050D01*
X180698022Y-89561050D02*
X180698022Y-90061050D01*
X157520000Y-85665000D02*
X157020000Y-85665000D01*
X157020000Y-84715000D02*
X157520000Y-84715000D01*
X165400000Y-90675000D02*
X165900000Y-90675000D01*
X165900000Y-91625000D02*
X165400000Y-91625000D01*
X190625000Y-88300000D02*
X190625000Y-88800000D01*
X189675000Y-88800000D02*
X189675000Y-88300000D01*
X139320000Y-84991572D02*
X139820000Y-84991572D01*
X139820000Y-85941572D02*
X139320000Y-85941572D01*
X196900000Y-105950000D02*
X196400000Y-105950000D01*
X196400000Y-105000000D02*
X196900000Y-105000000D01*
X146825350Y-92888810D02*
X147325350Y-92888810D01*
X147325350Y-93838810D02*
X146825350Y-93838810D01*
X185716322Y-81280700D02*
X185716322Y-81780700D01*
X184766322Y-81780700D02*
X184766322Y-81280700D01*
X170600000Y-83781798D02*
X171100000Y-83781798D01*
X171100000Y-84731798D02*
X170600000Y-84731798D01*
X161843548Y-100852216D02*
X161843548Y-101352216D01*
X160893548Y-101352216D02*
X160893548Y-100852216D01*
X159668548Y-108167216D02*
X160168548Y-108167216D01*
X160168548Y-109117216D02*
X159668548Y-109117216D01*
X157428548Y-102577216D02*
X157928548Y-102577216D01*
X157928548Y-103527216D02*
X157428548Y-103527216D01*
X157558548Y-107617216D02*
X157058548Y-107617216D01*
X157058548Y-106667216D02*
X157558548Y-106667216D01*
X160148548Y-104537216D02*
X159648548Y-104537216D01*
X159648548Y-103587216D02*
X160148548Y-103587216D01*
X159058548Y-102547216D02*
X158558548Y-102547216D01*
X158558548Y-101597216D02*
X159058548Y-101597216D01*
X155678548Y-101557216D02*
X155178548Y-101557216D01*
X155178548Y-100607216D02*
X155678548Y-100607216D01*
X164693548Y-102412216D02*
X164693548Y-102912216D01*
X163743548Y-102912216D02*
X163743548Y-102412216D01*
X154343548Y-111012216D02*
X154343548Y-111512216D01*
X153393548Y-111512216D02*
X153393548Y-111012216D01*
X167898548Y-106617216D02*
X167398548Y-106617216D01*
X167398548Y-105667216D02*
X167898548Y-105667216D01*
X161578548Y-108167216D02*
X162078548Y-108167216D01*
X162078548Y-109117216D02*
X161578548Y-109117216D01*
X156575000Y-98450000D02*
X156575000Y-97950000D01*
X157525000Y-97950000D02*
X157525000Y-98450000D01*
X202225000Y-98600000D02*
X202225000Y-99100000D01*
X201275000Y-99100000D02*
X201275000Y-98600000D01*
X168673548Y-97682216D02*
X168673548Y-98182216D01*
X167723548Y-98182216D02*
X167723548Y-97682216D01*
X161358548Y-106607216D02*
X161858548Y-106607216D01*
X161858548Y-107557216D02*
X161358548Y-107557216D01*
X165848548Y-110697216D02*
X165348548Y-110697216D01*
X165348548Y-109747216D02*
X165848548Y-109747216D01*
X135450000Y-122275000D02*
X134950000Y-122275000D01*
X134950000Y-121325000D02*
X135450000Y-121325000D01*
X185000000Y-106600000D02*
X184300000Y-106600000D01*
X184300000Y-107800000D02*
X185000000Y-107800000D01*
X181600000Y-110570000D02*
X181600000Y-111270000D01*
X182800000Y-111270000D02*
X182800000Y-110570000D01*
X128400000Y-110700000D02*
X128400000Y-111400000D01*
X129600000Y-111400000D02*
X129600000Y-110700000D01*
X182830000Y-110570000D02*
X182830000Y-111270000D01*
X184030000Y-111270000D02*
X184030000Y-110570000D01*
X173465536Y-107725694D02*
X173465536Y-108425694D01*
X174665536Y-108425694D02*
X174665536Y-107725694D01*
X179800000Y-111710000D02*
X179800000Y-111010000D01*
X178600000Y-111010000D02*
X178600000Y-111710000D01*
X177200000Y-111030000D02*
X177200000Y-111730000D01*
X178400000Y-111730000D02*
X178400000Y-111030000D01*
X176350000Y-105300000D02*
X175650000Y-105300000D01*
X175650000Y-106500000D02*
X176350000Y-106500000D01*
X158600000Y-93350000D02*
X158600000Y-94350000D01*
X156900000Y-94350000D02*
X156900000Y-93350000D01*
X131840000Y-90840000D02*
X131840000Y-89840000D01*
X133540000Y-89840000D02*
X133540000Y-90840000D01*
X131850000Y-85650000D02*
X131850000Y-86650000D01*
X130150000Y-86650000D02*
X130150000Y-85650000D01*
X131240000Y-89840000D02*
X131240000Y-90840000D01*
X129540000Y-90840000D02*
X129540000Y-89840000D01*
X130640000Y-90840000D02*
X130640000Y-89840000D01*
X132340000Y-89840000D02*
X132340000Y-90840000D01*
X167080000Y-113630000D02*
X168080000Y-113630000D01*
X168080000Y-115330000D02*
X167080000Y-115330000D01*
X158360000Y-115770000D02*
X158360000Y-114770000D01*
X160060000Y-114770000D02*
X160060000Y-115770000D01*
X192380000Y-81715000D02*
X192880000Y-81715000D01*
X192880000Y-82765000D02*
X192380000Y-82765000D01*
X166615000Y-92360000D02*
X166615000Y-91860000D01*
X167665000Y-91860000D02*
X167665000Y-92360000D01*
X165250000Y-91725000D02*
X165750000Y-91725000D01*
X165750000Y-92775000D02*
X165250000Y-92775000D01*
X201680000Y-87785000D02*
X202180000Y-87785000D01*
X202180000Y-88835000D02*
X201680000Y-88835000D01*
X192210000Y-89955000D02*
X191710000Y-89955000D01*
X191710000Y-88905000D02*
X192210000Y-88905000D01*
X192605000Y-90130000D02*
X192605000Y-89630000D01*
X193655000Y-89630000D02*
X193655000Y-90130000D01*
X155150000Y-86185000D02*
X155650000Y-86185000D01*
X155650000Y-87235000D02*
X155150000Y-87235000D01*
X171950000Y-86181798D02*
X171450000Y-86181798D01*
X171450000Y-85131798D02*
X171950000Y-85131798D01*
X169600000Y-85131798D02*
X170100000Y-85131798D01*
X170100000Y-86181798D02*
X169600000Y-86181798D01*
X140570000Y-87351572D02*
X140070000Y-87351572D01*
X140070000Y-86301572D02*
X140570000Y-86301572D01*
X137810000Y-86341572D02*
X138310000Y-86341572D01*
X138310000Y-87391572D02*
X137810000Y-87391572D01*
X139560000Y-83775000D02*
X139060000Y-83775000D01*
X139060000Y-82725000D02*
X139560000Y-82725000D01*
X157610000Y-86195000D02*
X158110000Y-86195000D01*
X158110000Y-87245000D02*
X157610000Y-87245000D01*
X202155000Y-87935000D02*
X201655000Y-87935000D01*
X201655000Y-86885000D02*
X202155000Y-86885000D01*
X148300350Y-93113810D02*
X148300350Y-92613810D01*
X149350350Y-92613810D02*
X149350350Y-93113810D01*
X137510000Y-85931572D02*
X137010000Y-85931572D01*
X137010000Y-84881572D02*
X137510000Y-84881572D01*
X168700000Y-83731798D02*
X169200000Y-83731798D01*
X169200000Y-84781798D02*
X168700000Y-84781798D01*
X155310000Y-85735000D02*
X154810000Y-85735000D01*
X154810000Y-84685000D02*
X155310000Y-84685000D01*
X180708022Y-90071050D02*
X180708022Y-89571050D01*
X181758022Y-89571050D02*
X181758022Y-90071050D01*
X179493022Y-87616050D02*
X179993022Y-87616050D01*
X179993022Y-88666050D02*
X179493022Y-88666050D01*
X146875350Y-93938810D02*
X147375350Y-93938810D01*
X147375350Y-94988810D02*
X146875350Y-94988810D01*
X186796322Y-79520700D02*
X186796322Y-80020700D01*
X185746322Y-80020700D02*
X185746322Y-79520700D01*
X194335000Y-105250000D02*
X194335000Y-104750000D01*
X195385000Y-104750000D02*
X195385000Y-105250000D01*
X193300000Y-105800000D02*
X193300000Y-105300000D01*
X194350000Y-105300000D02*
X194350000Y-105800000D01*
X201310000Y-89525000D02*
X201810000Y-89525000D01*
X201810000Y-90575000D02*
X201310000Y-90575000D01*
X185706322Y-81730700D02*
X185706322Y-81230700D01*
X186756322Y-81230700D02*
X186756322Y-81730700D01*
X150100000Y-103325000D02*
X150600000Y-103325000D01*
X150600000Y-104375000D02*
X150100000Y-104375000D01*
X173800000Y-121505000D02*
X174300000Y-121505000D01*
X174300000Y-122555000D02*
X173800000Y-122555000D01*
X150850000Y-103025000D02*
X150350000Y-103025000D01*
X150350000Y-101975000D02*
X150850000Y-101975000D01*
X150500000Y-99025000D02*
X151000000Y-99025000D01*
X151000000Y-100075000D02*
X150500000Y-100075000D01*
X172655000Y-115940000D02*
X172655000Y-115440000D01*
X173705000Y-115440000D02*
X173705000Y-115940000D01*
X153990000Y-103445000D02*
X153490000Y-103445000D01*
X153490000Y-102395000D02*
X153990000Y-102395000D01*
X153980000Y-104435000D02*
X153480000Y-104435000D01*
X153480000Y-103385000D02*
X153980000Y-103385000D01*
X135250000Y-107575000D02*
X134750000Y-107575000D01*
X134750000Y-106525000D02*
X135250000Y-106525000D01*
X188800000Y-106025000D02*
X188300000Y-106025000D01*
X188300000Y-104975000D02*
X188800000Y-104975000D01*
X187275000Y-108660000D02*
X187275000Y-109160000D01*
X186225000Y-109160000D02*
X186225000Y-108660000D01*
X136360000Y-107165000D02*
X136860000Y-107165000D01*
X136860000Y-108215000D02*
X136360000Y-108215000D01*
X125525000Y-109050000D02*
X125525000Y-108550000D01*
X126575000Y-108550000D02*
X126575000Y-109050000D01*
X194900000Y-112625000D02*
X194400000Y-112625000D01*
X194400000Y-111575000D02*
X194900000Y-111575000D01*
X194250000Y-112925000D02*
X194750000Y-112925000D01*
X194750000Y-113975000D02*
X194250000Y-113975000D01*
X193825000Y-118175000D02*
X194325000Y-118175000D01*
X194325000Y-119225000D02*
X193825000Y-119225000D01*
X194250000Y-120550000D02*
X193750000Y-120550000D01*
X193750000Y-119500000D02*
X194250000Y-119500000D01*
X125525000Y-110750000D02*
X125525000Y-110250000D01*
X126575000Y-110250000D02*
X126575000Y-110750000D01*
D11*
X135464285Y-79453571D02*
X135492857Y-79425000D01*
X135521428Y-79339285D01*
X135521428Y-79282142D01*
X135492857Y-79196428D01*
X135435714Y-79139285D01*
X135378571Y-79110714D01*
X135264285Y-79082142D01*
X135178571Y-79082142D01*
X135064285Y-79110714D01*
X135007142Y-79139285D01*
X134950000Y-79196428D01*
X134921428Y-79282142D01*
X134921428Y-79339285D01*
X134950000Y-79425000D01*
X134978571Y-79453571D01*
X135521428Y-80025000D02*
X135521428Y-79682142D01*
X135521428Y-79853571D02*
X134921428Y-79853571D01*
X135007142Y-79796428D01*
X135064285Y-79739285D01*
X135092857Y-79682142D01*
X134921428Y-80225000D02*
X134921428Y-80625000D01*
X135521428Y-80367857D01*
X134921428Y-80796428D02*
X134921428Y-81196428D01*
X135521428Y-80939285D01*
X137764285Y-79378571D02*
X137792857Y-79350000D01*
X137821428Y-79264285D01*
X137821428Y-79207142D01*
X137792857Y-79121428D01*
X137735714Y-79064285D01*
X137678571Y-79035714D01*
X137564285Y-79007142D01*
X137478571Y-79007142D01*
X137364285Y-79035714D01*
X137307142Y-79064285D01*
X137250000Y-79121428D01*
X137221428Y-79207142D01*
X137221428Y-79264285D01*
X137250000Y-79350000D01*
X137278571Y-79378571D01*
X137821428Y-79950000D02*
X137821428Y-79607142D01*
X137821428Y-79778571D02*
X137221428Y-79778571D01*
X137307142Y-79721428D01*
X137364285Y-79664285D01*
X137392857Y-79607142D01*
X137221428Y-80150000D02*
X137221428Y-80550000D01*
X137821428Y-80292857D01*
X137478571Y-80864285D02*
X137450000Y-80807142D01*
X137421428Y-80778571D01*
X137364285Y-80750000D01*
X137335714Y-80750000D01*
X137278571Y-80778571D01*
X137250000Y-80807142D01*
X137221428Y-80864285D01*
X137221428Y-80978571D01*
X137250000Y-81035714D01*
X137278571Y-81064285D01*
X137335714Y-81092857D01*
X137364285Y-81092857D01*
X137421428Y-81064285D01*
X137450000Y-81035714D01*
X137478571Y-80978571D01*
X137478571Y-80864285D01*
X137507142Y-80807142D01*
X137535714Y-80778571D01*
X137592857Y-80750000D01*
X137707142Y-80750000D01*
X137764285Y-80778571D01*
X137792857Y-80807142D01*
X137821428Y-80864285D01*
X137821428Y-80978571D01*
X137792857Y-81035714D01*
X137764285Y-81064285D01*
X137707142Y-81092857D01*
X137592857Y-81092857D01*
X137535714Y-81064285D01*
X137507142Y-81035714D01*
X137478571Y-80978571D01*
X145864285Y-97628571D02*
X145892857Y-97600000D01*
X145921428Y-97514285D01*
X145921428Y-97457142D01*
X145892857Y-97371428D01*
X145835714Y-97314285D01*
X145778571Y-97285714D01*
X145664285Y-97257142D01*
X145578571Y-97257142D01*
X145464285Y-97285714D01*
X145407142Y-97314285D01*
X145350000Y-97371428D01*
X145321428Y-97457142D01*
X145321428Y-97514285D01*
X145350000Y-97600000D01*
X145378571Y-97628571D01*
X145921428Y-98200000D02*
X145921428Y-97857142D01*
X145921428Y-98028571D02*
X145321428Y-98028571D01*
X145407142Y-97971428D01*
X145464285Y-97914285D01*
X145492857Y-97857142D01*
X145321428Y-98400000D02*
X145321428Y-98800000D01*
X145921428Y-98542857D01*
X145321428Y-99314285D02*
X145321428Y-99028571D01*
X145607142Y-99000000D01*
X145578571Y-99028571D01*
X145550000Y-99085714D01*
X145550000Y-99228571D01*
X145578571Y-99285714D01*
X145607142Y-99314285D01*
X145664285Y-99342857D01*
X145807142Y-99342857D01*
X145864285Y-99314285D01*
X145892857Y-99285714D01*
X145921428Y-99228571D01*
X145921428Y-99085714D01*
X145892857Y-99028571D01*
X145864285Y-99000000D01*
X147571428Y-103271428D02*
X147771428Y-102985714D01*
X147914285Y-103271428D02*
X147914285Y-102671428D01*
X147685714Y-102671428D01*
X147628571Y-102700000D01*
X147600000Y-102728571D01*
X147571428Y-102785714D01*
X147571428Y-102871428D01*
X147600000Y-102928571D01*
X147628571Y-102957142D01*
X147685714Y-102985714D01*
X147914285Y-102985714D01*
X147000000Y-103271428D02*
X147342857Y-103271428D01*
X147171428Y-103271428D02*
X147171428Y-102671428D01*
X147228571Y-102757142D01*
X147285714Y-102814285D01*
X147342857Y-102842857D01*
X146628571Y-102671428D02*
X146571428Y-102671428D01*
X146514285Y-102700000D01*
X146485714Y-102728571D01*
X146457142Y-102785714D01*
X146428571Y-102900000D01*
X146428571Y-103042857D01*
X146457142Y-103157142D01*
X146485714Y-103214285D01*
X146514285Y-103242857D01*
X146571428Y-103271428D01*
X146628571Y-103271428D01*
X146685714Y-103242857D01*
X146714285Y-103214285D01*
X146742857Y-103157142D01*
X146771428Y-103042857D01*
X146771428Y-102900000D01*
X146742857Y-102785714D01*
X146714285Y-102728571D01*
X146685714Y-102700000D01*
X146628571Y-102671428D01*
X145914285Y-102871428D02*
X145914285Y-103271428D01*
X146057142Y-102642857D02*
X146200000Y-103071428D01*
X145828571Y-103071428D01*
X168764285Y-96278571D02*
X168792857Y-96250000D01*
X168821428Y-96164285D01*
X168821428Y-96107142D01*
X168792857Y-96021428D01*
X168735714Y-95964285D01*
X168678571Y-95935714D01*
X168564285Y-95907142D01*
X168478571Y-95907142D01*
X168364285Y-95935714D01*
X168307142Y-95964285D01*
X168250000Y-96021428D01*
X168221428Y-96107142D01*
X168221428Y-96164285D01*
X168250000Y-96250000D01*
X168278571Y-96278571D01*
X168821428Y-96850000D02*
X168821428Y-96507142D01*
X168821428Y-96678571D02*
X168221428Y-96678571D01*
X168307142Y-96621428D01*
X168364285Y-96564285D01*
X168392857Y-96507142D01*
X168221428Y-97050000D02*
X168221428Y-97450000D01*
X168821428Y-97192857D01*
X168421428Y-97935714D02*
X168821428Y-97935714D01*
X168192857Y-97792857D02*
X168621428Y-97650000D01*
X168621428Y-98021428D01*
X172157142Y-98928571D02*
X172214285Y-98900000D01*
X172271428Y-98842857D01*
X172357142Y-98757142D01*
X172414285Y-98728571D01*
X172471428Y-98728571D01*
X172442857Y-98871428D02*
X172500000Y-98842857D01*
X172557142Y-98785714D01*
X172585714Y-98671428D01*
X172585714Y-98471428D01*
X172557142Y-98357142D01*
X172500000Y-98300000D01*
X172442857Y-98271428D01*
X172328571Y-98271428D01*
X172271428Y-98300000D01*
X172214285Y-98357142D01*
X172185714Y-98471428D01*
X172185714Y-98671428D01*
X172214285Y-98785714D01*
X172271428Y-98842857D01*
X172328571Y-98871428D01*
X172442857Y-98871428D01*
X171957142Y-98328571D02*
X171928571Y-98300000D01*
X171871428Y-98271428D01*
X171728571Y-98271428D01*
X171671428Y-98300000D01*
X171642857Y-98328571D01*
X171614285Y-98385714D01*
X171614285Y-98442857D01*
X171642857Y-98528571D01*
X171985714Y-98871428D01*
X171614285Y-98871428D01*
X142096428Y-81096428D02*
X142296428Y-80810714D01*
X142439285Y-81096428D02*
X142439285Y-80496428D01*
X142210714Y-80496428D01*
X142153571Y-80525000D01*
X142125000Y-80553571D01*
X142096428Y-80610714D01*
X142096428Y-80696428D01*
X142125000Y-80753571D01*
X142153571Y-80782142D01*
X142210714Y-80810714D01*
X142439285Y-80810714D01*
X141525000Y-81096428D02*
X141867857Y-81096428D01*
X141696428Y-81096428D02*
X141696428Y-80496428D01*
X141753571Y-80582142D01*
X141810714Y-80639285D01*
X141867857Y-80667857D01*
X141153571Y-80496428D02*
X141096428Y-80496428D01*
X141039285Y-80525000D01*
X141010714Y-80553571D01*
X140982142Y-80610714D01*
X140953571Y-80725000D01*
X140953571Y-80867857D01*
X140982142Y-80982142D01*
X141010714Y-81039285D01*
X141039285Y-81067857D01*
X141096428Y-81096428D01*
X141153571Y-81096428D01*
X141210714Y-81067857D01*
X141239285Y-81039285D01*
X141267857Y-80982142D01*
X141296428Y-80867857D01*
X141296428Y-80725000D01*
X141267857Y-80610714D01*
X141239285Y-80553571D01*
X141210714Y-80525000D01*
X141153571Y-80496428D01*
X140753571Y-80496428D02*
X140382142Y-80496428D01*
X140582142Y-80725000D01*
X140496428Y-80725000D01*
X140439285Y-80753571D01*
X140410714Y-80782142D01*
X140382142Y-80839285D01*
X140382142Y-80982142D01*
X140410714Y-81039285D01*
X140439285Y-81067857D01*
X140496428Y-81096428D01*
X140667857Y-81096428D01*
X140725000Y-81067857D01*
X140753571Y-81039285D01*
X160764285Y-118078571D02*
X160792857Y-118050000D01*
X160821428Y-117964285D01*
X160821428Y-117907142D01*
X160792857Y-117821428D01*
X160735714Y-117764285D01*
X160678571Y-117735714D01*
X160564285Y-117707142D01*
X160478571Y-117707142D01*
X160364285Y-117735714D01*
X160307142Y-117764285D01*
X160250000Y-117821428D01*
X160221428Y-117907142D01*
X160221428Y-117964285D01*
X160250000Y-118050000D01*
X160278571Y-118078571D01*
X160821428Y-118650000D02*
X160821428Y-118307142D01*
X160821428Y-118478571D02*
X160221428Y-118478571D01*
X160307142Y-118421428D01*
X160364285Y-118364285D01*
X160392857Y-118307142D01*
X160221428Y-118850000D02*
X160221428Y-119250000D01*
X160821428Y-118992857D01*
X160221428Y-119592857D02*
X160221428Y-119650000D01*
X160250000Y-119707142D01*
X160278571Y-119735714D01*
X160335714Y-119764285D01*
X160450000Y-119792857D01*
X160592857Y-119792857D01*
X160707142Y-119764285D01*
X160764285Y-119735714D01*
X160792857Y-119707142D01*
X160821428Y-119650000D01*
X160821428Y-119592857D01*
X160792857Y-119535714D01*
X160764285Y-119507142D01*
X160707142Y-119478571D01*
X160592857Y-119450000D01*
X160450000Y-119450000D01*
X160335714Y-119478571D01*
X160278571Y-119507142D01*
X160250000Y-119535714D01*
X160221428Y-119592857D01*
X148539285Y-117953571D02*
X148567857Y-117925000D01*
X148596428Y-117839285D01*
X148596428Y-117782142D01*
X148567857Y-117696428D01*
X148510714Y-117639285D01*
X148453571Y-117610714D01*
X148339285Y-117582142D01*
X148253571Y-117582142D01*
X148139285Y-117610714D01*
X148082142Y-117639285D01*
X148025000Y-117696428D01*
X147996428Y-117782142D01*
X147996428Y-117839285D01*
X148025000Y-117925000D01*
X148053571Y-117953571D01*
X148596428Y-118525000D02*
X148596428Y-118182142D01*
X148596428Y-118353571D02*
X147996428Y-118353571D01*
X148082142Y-118296428D01*
X148139285Y-118239285D01*
X148167857Y-118182142D01*
X147996428Y-118725000D02*
X147996428Y-119125000D01*
X148596428Y-118867857D01*
X148596428Y-119667857D02*
X148596428Y-119325000D01*
X148596428Y-119496428D02*
X147996428Y-119496428D01*
X148082142Y-119439285D01*
X148139285Y-119382142D01*
X148167857Y-119325000D01*
X147364285Y-86614285D02*
X147392857Y-86585714D01*
X147421428Y-86500000D01*
X147421428Y-86442857D01*
X147392857Y-86357142D01*
X147335714Y-86300000D01*
X147278571Y-86271428D01*
X147164285Y-86242857D01*
X147078571Y-86242857D01*
X146964285Y-86271428D01*
X146907142Y-86300000D01*
X146850000Y-86357142D01*
X146821428Y-86442857D01*
X146821428Y-86500000D01*
X146850000Y-86585714D01*
X146878571Y-86614285D01*
X147078571Y-86957142D02*
X147050000Y-86900000D01*
X147021428Y-86871428D01*
X146964285Y-86842857D01*
X146935714Y-86842857D01*
X146878571Y-86871428D01*
X146850000Y-86900000D01*
X146821428Y-86957142D01*
X146821428Y-87071428D01*
X146850000Y-87128571D01*
X146878571Y-87157142D01*
X146935714Y-87185714D01*
X146964285Y-87185714D01*
X147021428Y-87157142D01*
X147050000Y-87128571D01*
X147078571Y-87071428D01*
X147078571Y-86957142D01*
X147107142Y-86900000D01*
X147135714Y-86871428D01*
X147192857Y-86842857D01*
X147307142Y-86842857D01*
X147364285Y-86871428D01*
X147392857Y-86900000D01*
X147421428Y-86957142D01*
X147421428Y-87071428D01*
X147392857Y-87128571D01*
X147364285Y-87157142D01*
X147307142Y-87185714D01*
X147192857Y-87185714D01*
X147135714Y-87157142D01*
X147107142Y-87128571D01*
X147078571Y-87071428D01*
X147021428Y-87700000D02*
X147421428Y-87700000D01*
X146792857Y-87557142D02*
X147221428Y-87414285D01*
X147221428Y-87785714D01*
X148214285Y-86603571D02*
X148242857Y-86575000D01*
X148271428Y-86489285D01*
X148271428Y-86432142D01*
X148242857Y-86346428D01*
X148185714Y-86289285D01*
X148128571Y-86260714D01*
X148014285Y-86232142D01*
X147928571Y-86232142D01*
X147814285Y-86260714D01*
X147757142Y-86289285D01*
X147700000Y-86346428D01*
X147671428Y-86432142D01*
X147671428Y-86489285D01*
X147700000Y-86575000D01*
X147728571Y-86603571D01*
X148271428Y-87175000D02*
X148271428Y-86832142D01*
X148271428Y-87003571D02*
X147671428Y-87003571D01*
X147757142Y-86946428D01*
X147814285Y-86889285D01*
X147842857Y-86832142D01*
X147671428Y-87689285D02*
X147671428Y-87575000D01*
X147700000Y-87517857D01*
X147728571Y-87489285D01*
X147814285Y-87432142D01*
X147928571Y-87403571D01*
X148157142Y-87403571D01*
X148214285Y-87432142D01*
X148242857Y-87460714D01*
X148271428Y-87517857D01*
X148271428Y-87632142D01*
X148242857Y-87689285D01*
X148214285Y-87717857D01*
X148157142Y-87746428D01*
X148014285Y-87746428D01*
X147957142Y-87717857D01*
X147928571Y-87689285D01*
X147900000Y-87632142D01*
X147900000Y-87517857D01*
X147928571Y-87460714D01*
X147957142Y-87432142D01*
X148014285Y-87403571D01*
X148271428Y-88032142D02*
X148271428Y-88146428D01*
X148242857Y-88203571D01*
X148214285Y-88232142D01*
X148128571Y-88289285D01*
X148014285Y-88317857D01*
X147785714Y-88317857D01*
X147728571Y-88289285D01*
X147700000Y-88260714D01*
X147671428Y-88203571D01*
X147671428Y-88089285D01*
X147700000Y-88032142D01*
X147728571Y-88003571D01*
X147785714Y-87975000D01*
X147928571Y-87975000D01*
X147985714Y-88003571D01*
X148014285Y-88032142D01*
X148042857Y-88089285D01*
X148042857Y-88203571D01*
X148014285Y-88260714D01*
X147985714Y-88289285D01*
X147928571Y-88317857D01*
X165735714Y-85139285D02*
X165764285Y-85167857D01*
X165850000Y-85196428D01*
X165907142Y-85196428D01*
X165992857Y-85167857D01*
X166050000Y-85110714D01*
X166078571Y-85053571D01*
X166107142Y-84939285D01*
X166107142Y-84853571D01*
X166078571Y-84739285D01*
X166050000Y-84682142D01*
X165992857Y-84625000D01*
X165907142Y-84596428D01*
X165850000Y-84596428D01*
X165764285Y-84625000D01*
X165735714Y-84653571D01*
X165392857Y-84853571D02*
X165450000Y-84825000D01*
X165478571Y-84796428D01*
X165507142Y-84739285D01*
X165507142Y-84710714D01*
X165478571Y-84653571D01*
X165450000Y-84625000D01*
X165392857Y-84596428D01*
X165278571Y-84596428D01*
X165221428Y-84625000D01*
X165192857Y-84653571D01*
X165164285Y-84710714D01*
X165164285Y-84739285D01*
X165192857Y-84796428D01*
X165221428Y-84825000D01*
X165278571Y-84853571D01*
X165392857Y-84853571D01*
X165450000Y-84882142D01*
X165478571Y-84910714D01*
X165507142Y-84967857D01*
X165507142Y-85082142D01*
X165478571Y-85139285D01*
X165450000Y-85167857D01*
X165392857Y-85196428D01*
X165278571Y-85196428D01*
X165221428Y-85167857D01*
X165192857Y-85139285D01*
X165164285Y-85082142D01*
X165164285Y-84967857D01*
X165192857Y-84910714D01*
X165221428Y-84882142D01*
X165278571Y-84853571D01*
X164592857Y-85196428D02*
X164935714Y-85196428D01*
X164764285Y-85196428D02*
X164764285Y-84596428D01*
X164821428Y-84682142D01*
X164878571Y-84739285D01*
X164935714Y-84767857D01*
X175871428Y-93171428D02*
X176071428Y-92885714D01*
X176214285Y-93171428D02*
X176214285Y-92571428D01*
X175985714Y-92571428D01*
X175928571Y-92600000D01*
X175900000Y-92628571D01*
X175871428Y-92685714D01*
X175871428Y-92771428D01*
X175900000Y-92828571D01*
X175928571Y-92857142D01*
X175985714Y-92885714D01*
X176214285Y-92885714D01*
X175300000Y-93171428D02*
X175642857Y-93171428D01*
X175471428Y-93171428D02*
X175471428Y-92571428D01*
X175528571Y-92657142D01*
X175585714Y-92714285D01*
X175642857Y-92742857D01*
X174928571Y-92571428D02*
X174871428Y-92571428D01*
X174814285Y-92600000D01*
X174785714Y-92628571D01*
X174757142Y-92685714D01*
X174728571Y-92800000D01*
X174728571Y-92942857D01*
X174757142Y-93057142D01*
X174785714Y-93114285D01*
X174814285Y-93142857D01*
X174871428Y-93171428D01*
X174928571Y-93171428D01*
X174985714Y-93142857D01*
X175014285Y-93114285D01*
X175042857Y-93057142D01*
X175071428Y-92942857D01*
X175071428Y-92800000D01*
X175042857Y-92685714D01*
X175014285Y-92628571D01*
X174985714Y-92600000D01*
X174928571Y-92571428D01*
X174157142Y-93171428D02*
X174500000Y-93171428D01*
X174328571Y-93171428D02*
X174328571Y-92571428D01*
X174385714Y-92657142D01*
X174442857Y-92714285D01*
X174500000Y-92742857D01*
X155171428Y-93389285D02*
X155200000Y-93417857D01*
X155285714Y-93446428D01*
X155342857Y-93446428D01*
X155428571Y-93417857D01*
X155485714Y-93360714D01*
X155514285Y-93303571D01*
X155542857Y-93189285D01*
X155542857Y-93103571D01*
X155514285Y-92989285D01*
X155485714Y-92932142D01*
X155428571Y-92875000D01*
X155342857Y-92846428D01*
X155285714Y-92846428D01*
X155200000Y-92875000D01*
X155171428Y-92903571D01*
X154600000Y-93446428D02*
X154942857Y-93446428D01*
X154771428Y-93446428D02*
X154771428Y-92846428D01*
X154828571Y-92932142D01*
X154885714Y-92989285D01*
X154942857Y-93017857D01*
X154257142Y-93103571D02*
X154314285Y-93075000D01*
X154342857Y-93046428D01*
X154371428Y-92989285D01*
X154371428Y-92960714D01*
X154342857Y-92903571D01*
X154314285Y-92875000D01*
X154257142Y-92846428D01*
X154142857Y-92846428D01*
X154085714Y-92875000D01*
X154057142Y-92903571D01*
X154028571Y-92960714D01*
X154028571Y-92989285D01*
X154057142Y-93046428D01*
X154085714Y-93075000D01*
X154142857Y-93103571D01*
X154257142Y-93103571D01*
X154314285Y-93132142D01*
X154342857Y-93160714D01*
X154371428Y-93217857D01*
X154371428Y-93332142D01*
X154342857Y-93389285D01*
X154314285Y-93417857D01*
X154257142Y-93446428D01*
X154142857Y-93446428D01*
X154085714Y-93417857D01*
X154057142Y-93389285D01*
X154028571Y-93332142D01*
X154028571Y-93217857D01*
X154057142Y-93160714D01*
X154085714Y-93132142D01*
X154142857Y-93103571D01*
X153485714Y-92846428D02*
X153771428Y-92846428D01*
X153800000Y-93132142D01*
X153771428Y-93103571D01*
X153714285Y-93075000D01*
X153571428Y-93075000D01*
X153514285Y-93103571D01*
X153485714Y-93132142D01*
X153457142Y-93189285D01*
X153457142Y-93332142D01*
X153485714Y-93389285D01*
X153514285Y-93417857D01*
X153571428Y-93446428D01*
X153714285Y-93446428D01*
X153771428Y-93417857D01*
X153800000Y-93389285D01*
X201860714Y-95114285D02*
X201889285Y-95142857D01*
X201975000Y-95171428D01*
X202032142Y-95171428D01*
X202117857Y-95142857D01*
X202175000Y-95085714D01*
X202203571Y-95028571D01*
X202232142Y-94914285D01*
X202232142Y-94828571D01*
X202203571Y-94714285D01*
X202175000Y-94657142D01*
X202117857Y-94600000D01*
X202032142Y-94571428D01*
X201975000Y-94571428D01*
X201889285Y-94600000D01*
X201860714Y-94628571D01*
X201346428Y-94771428D02*
X201346428Y-95171428D01*
X201489285Y-94542857D02*
X201632142Y-94971428D01*
X201260714Y-94971428D01*
X201089285Y-94571428D02*
X200717857Y-94571428D01*
X200917857Y-94800000D01*
X200832142Y-94800000D01*
X200775000Y-94828571D01*
X200746428Y-94857142D01*
X200717857Y-94914285D01*
X200717857Y-95057142D01*
X200746428Y-95114285D01*
X200775000Y-95142857D01*
X200832142Y-95171428D01*
X201003571Y-95171428D01*
X201060714Y-95142857D01*
X201089285Y-95114285D01*
X140171428Y-111164285D02*
X140200000Y-111192857D01*
X140285714Y-111221428D01*
X140342857Y-111221428D01*
X140428571Y-111192857D01*
X140485714Y-111135714D01*
X140514285Y-111078571D01*
X140542857Y-110964285D01*
X140542857Y-110878571D01*
X140514285Y-110764285D01*
X140485714Y-110707142D01*
X140428571Y-110650000D01*
X140342857Y-110621428D01*
X140285714Y-110621428D01*
X140200000Y-110650000D01*
X140171428Y-110678571D01*
X139600000Y-111221428D02*
X139942857Y-111221428D01*
X139771428Y-111221428D02*
X139771428Y-110621428D01*
X139828571Y-110707142D01*
X139885714Y-110764285D01*
X139942857Y-110792857D01*
X139057142Y-110621428D02*
X139342857Y-110621428D01*
X139371428Y-110907142D01*
X139342857Y-110878571D01*
X139285714Y-110850000D01*
X139142857Y-110850000D01*
X139085714Y-110878571D01*
X139057142Y-110907142D01*
X139028571Y-110964285D01*
X139028571Y-111107142D01*
X139057142Y-111164285D01*
X139085714Y-111192857D01*
X139142857Y-111221428D01*
X139285714Y-111221428D01*
X139342857Y-111192857D01*
X139371428Y-111164285D01*
X138742857Y-111221428D02*
X138628571Y-111221428D01*
X138571428Y-111192857D01*
X138542857Y-111164285D01*
X138485714Y-111078571D01*
X138457142Y-110964285D01*
X138457142Y-110735714D01*
X138485714Y-110678571D01*
X138514285Y-110650000D01*
X138571428Y-110621428D01*
X138685714Y-110621428D01*
X138742857Y-110650000D01*
X138771428Y-110678571D01*
X138800000Y-110735714D01*
X138800000Y-110878571D01*
X138771428Y-110935714D01*
X138742857Y-110964285D01*
X138685714Y-110992857D01*
X138571428Y-110992857D01*
X138514285Y-110964285D01*
X138485714Y-110935714D01*
X138457142Y-110878571D01*
X135164285Y-108328571D02*
X135192857Y-108300000D01*
X135221428Y-108214285D01*
X135221428Y-108157142D01*
X135192857Y-108071428D01*
X135135714Y-108014285D01*
X135078571Y-107985714D01*
X134964285Y-107957142D01*
X134878571Y-107957142D01*
X134764285Y-107985714D01*
X134707142Y-108014285D01*
X134650000Y-108071428D01*
X134621428Y-108157142D01*
X134621428Y-108214285D01*
X134650000Y-108300000D01*
X134678571Y-108328571D01*
X135221428Y-108900000D02*
X135221428Y-108557142D01*
X135221428Y-108728571D02*
X134621428Y-108728571D01*
X134707142Y-108671428D01*
X134764285Y-108614285D01*
X134792857Y-108557142D01*
X134621428Y-109442857D02*
X134621428Y-109157142D01*
X134907142Y-109128571D01*
X134878571Y-109157142D01*
X134850000Y-109214285D01*
X134850000Y-109357142D01*
X134878571Y-109414285D01*
X134907142Y-109442857D01*
X134964285Y-109471428D01*
X135107142Y-109471428D01*
X135164285Y-109442857D01*
X135192857Y-109414285D01*
X135221428Y-109357142D01*
X135221428Y-109214285D01*
X135192857Y-109157142D01*
X135164285Y-109128571D01*
X134621428Y-109671428D02*
X134621428Y-110042857D01*
X134850000Y-109842857D01*
X134850000Y-109928571D01*
X134878571Y-109985714D01*
X134907142Y-110014285D01*
X134964285Y-110042857D01*
X135107142Y-110042857D01*
X135164285Y-110014285D01*
X135192857Y-109985714D01*
X135221428Y-109928571D01*
X135221428Y-109757142D01*
X135192857Y-109700000D01*
X135164285Y-109671428D01*
X141721428Y-123964285D02*
X141750000Y-123992857D01*
X141835714Y-124021428D01*
X141892857Y-124021428D01*
X141978571Y-123992857D01*
X142035714Y-123935714D01*
X142064285Y-123878571D01*
X142092857Y-123764285D01*
X142092857Y-123678571D01*
X142064285Y-123564285D01*
X142035714Y-123507142D01*
X141978571Y-123450000D01*
X141892857Y-123421428D01*
X141835714Y-123421428D01*
X141750000Y-123450000D01*
X141721428Y-123478571D01*
X141150000Y-124021428D02*
X141492857Y-124021428D01*
X141321428Y-124021428D02*
X141321428Y-123421428D01*
X141378571Y-123507142D01*
X141435714Y-123564285D01*
X141492857Y-123592857D01*
X140607142Y-123421428D02*
X140892857Y-123421428D01*
X140921428Y-123707142D01*
X140892857Y-123678571D01*
X140835714Y-123650000D01*
X140692857Y-123650000D01*
X140635714Y-123678571D01*
X140607142Y-123707142D01*
X140578571Y-123764285D01*
X140578571Y-123907142D01*
X140607142Y-123964285D01*
X140635714Y-123992857D01*
X140692857Y-124021428D01*
X140835714Y-124021428D01*
X140892857Y-123992857D01*
X140921428Y-123964285D01*
X140235714Y-123678571D02*
X140292857Y-123650000D01*
X140321428Y-123621428D01*
X140350000Y-123564285D01*
X140350000Y-123535714D01*
X140321428Y-123478571D01*
X140292857Y-123450000D01*
X140235714Y-123421428D01*
X140121428Y-123421428D01*
X140064285Y-123450000D01*
X140035714Y-123478571D01*
X140007142Y-123535714D01*
X140007142Y-123564285D01*
X140035714Y-123621428D01*
X140064285Y-123650000D01*
X140121428Y-123678571D01*
X140235714Y-123678571D01*
X140292857Y-123707142D01*
X140321428Y-123735714D01*
X140350000Y-123792857D01*
X140350000Y-123907142D01*
X140321428Y-123964285D01*
X140292857Y-123992857D01*
X140235714Y-124021428D01*
X140121428Y-124021428D01*
X140064285Y-123992857D01*
X140035714Y-123964285D01*
X140007142Y-123907142D01*
X140007142Y-123792857D01*
X140035714Y-123735714D01*
X140064285Y-123707142D01*
X140121428Y-123678571D01*
X129864285Y-118528571D02*
X129892857Y-118500000D01*
X129921428Y-118414285D01*
X129921428Y-118357142D01*
X129892857Y-118271428D01*
X129835714Y-118214285D01*
X129778571Y-118185714D01*
X129664285Y-118157142D01*
X129578571Y-118157142D01*
X129464285Y-118185714D01*
X129407142Y-118214285D01*
X129350000Y-118271428D01*
X129321428Y-118357142D01*
X129321428Y-118414285D01*
X129350000Y-118500000D01*
X129378571Y-118528571D01*
X129921428Y-119100000D02*
X129921428Y-118757142D01*
X129921428Y-118928571D02*
X129321428Y-118928571D01*
X129407142Y-118871428D01*
X129464285Y-118814285D01*
X129492857Y-118757142D01*
X129321428Y-119642857D02*
X129321428Y-119357142D01*
X129607142Y-119328571D01*
X129578571Y-119357142D01*
X129550000Y-119414285D01*
X129550000Y-119557142D01*
X129578571Y-119614285D01*
X129607142Y-119642857D01*
X129664285Y-119671428D01*
X129807142Y-119671428D01*
X129864285Y-119642857D01*
X129892857Y-119614285D01*
X129921428Y-119557142D01*
X129921428Y-119414285D01*
X129892857Y-119357142D01*
X129864285Y-119328571D01*
X129378571Y-119900000D02*
X129350000Y-119928571D01*
X129321428Y-119985714D01*
X129321428Y-120128571D01*
X129350000Y-120185714D01*
X129378571Y-120214285D01*
X129435714Y-120242857D01*
X129492857Y-120242857D01*
X129578571Y-120214285D01*
X129921428Y-119871428D01*
X129921428Y-120242857D01*
X141574285Y-118663571D02*
X141602857Y-118635000D01*
X141631428Y-118549285D01*
X141631428Y-118492142D01*
X141602857Y-118406428D01*
X141545714Y-118349285D01*
X141488571Y-118320714D01*
X141374285Y-118292142D01*
X141288571Y-118292142D01*
X141174285Y-118320714D01*
X141117142Y-118349285D01*
X141060000Y-118406428D01*
X141031428Y-118492142D01*
X141031428Y-118549285D01*
X141060000Y-118635000D01*
X141088571Y-118663571D01*
X141631428Y-119235000D02*
X141631428Y-118892142D01*
X141631428Y-119063571D02*
X141031428Y-119063571D01*
X141117142Y-119006428D01*
X141174285Y-118949285D01*
X141202857Y-118892142D01*
X141031428Y-119777857D02*
X141031428Y-119492142D01*
X141317142Y-119463571D01*
X141288571Y-119492142D01*
X141260000Y-119549285D01*
X141260000Y-119692142D01*
X141288571Y-119749285D01*
X141317142Y-119777857D01*
X141374285Y-119806428D01*
X141517142Y-119806428D01*
X141574285Y-119777857D01*
X141602857Y-119749285D01*
X141631428Y-119692142D01*
X141631428Y-119549285D01*
X141602857Y-119492142D01*
X141574285Y-119463571D01*
X141231428Y-120320714D02*
X141631428Y-120320714D01*
X141002857Y-120177857D02*
X141431428Y-120035000D01*
X141431428Y-120406428D01*
X138421428Y-112614285D02*
X138450000Y-112642857D01*
X138535714Y-112671428D01*
X138592857Y-112671428D01*
X138678571Y-112642857D01*
X138735714Y-112585714D01*
X138764285Y-112528571D01*
X138792857Y-112414285D01*
X138792857Y-112328571D01*
X138764285Y-112214285D01*
X138735714Y-112157142D01*
X138678571Y-112100000D01*
X138592857Y-112071428D01*
X138535714Y-112071428D01*
X138450000Y-112100000D01*
X138421428Y-112128571D01*
X137850000Y-112671428D02*
X138192857Y-112671428D01*
X138021428Y-112671428D02*
X138021428Y-112071428D01*
X138078571Y-112157142D01*
X138135714Y-112214285D01*
X138192857Y-112242857D01*
X137335714Y-112071428D02*
X137450000Y-112071428D01*
X137507142Y-112100000D01*
X137535714Y-112128571D01*
X137592857Y-112214285D01*
X137621428Y-112328571D01*
X137621428Y-112557142D01*
X137592857Y-112614285D01*
X137564285Y-112642857D01*
X137507142Y-112671428D01*
X137392857Y-112671428D01*
X137335714Y-112642857D01*
X137307142Y-112614285D01*
X137278571Y-112557142D01*
X137278571Y-112414285D01*
X137307142Y-112357142D01*
X137335714Y-112328571D01*
X137392857Y-112300000D01*
X137507142Y-112300000D01*
X137564285Y-112328571D01*
X137592857Y-112357142D01*
X137621428Y-112414285D01*
X136707142Y-112671428D02*
X137050000Y-112671428D01*
X136878571Y-112671428D02*
X136878571Y-112071428D01*
X136935714Y-112157142D01*
X136992857Y-112214285D01*
X137050000Y-112242857D01*
X141299285Y-116113571D02*
X141327857Y-116085000D01*
X141356428Y-115999285D01*
X141356428Y-115942142D01*
X141327857Y-115856428D01*
X141270714Y-115799285D01*
X141213571Y-115770714D01*
X141099285Y-115742142D01*
X141013571Y-115742142D01*
X140899285Y-115770714D01*
X140842142Y-115799285D01*
X140785000Y-115856428D01*
X140756428Y-115942142D01*
X140756428Y-115999285D01*
X140785000Y-116085000D01*
X140813571Y-116113571D01*
X141356428Y-116685000D02*
X141356428Y-116342142D01*
X141356428Y-116513571D02*
X140756428Y-116513571D01*
X140842142Y-116456428D01*
X140899285Y-116399285D01*
X140927857Y-116342142D01*
X140756428Y-117199285D02*
X140756428Y-117085000D01*
X140785000Y-117027857D01*
X140813571Y-116999285D01*
X140899285Y-116942142D01*
X141013571Y-116913571D01*
X141242142Y-116913571D01*
X141299285Y-116942142D01*
X141327857Y-116970714D01*
X141356428Y-117027857D01*
X141356428Y-117142142D01*
X141327857Y-117199285D01*
X141299285Y-117227857D01*
X141242142Y-117256428D01*
X141099285Y-117256428D01*
X141042142Y-117227857D01*
X141013571Y-117199285D01*
X140985000Y-117142142D01*
X140985000Y-117027857D01*
X141013571Y-116970714D01*
X141042142Y-116942142D01*
X141099285Y-116913571D01*
X140756428Y-117627857D02*
X140756428Y-117685000D01*
X140785000Y-117742142D01*
X140813571Y-117770714D01*
X140870714Y-117799285D01*
X140985000Y-117827857D01*
X141127857Y-117827857D01*
X141242142Y-117799285D01*
X141299285Y-117770714D01*
X141327857Y-117742142D01*
X141356428Y-117685000D01*
X141356428Y-117627857D01*
X141327857Y-117570714D01*
X141299285Y-117542142D01*
X141242142Y-117513571D01*
X141127857Y-117485000D01*
X140985000Y-117485000D01*
X140870714Y-117513571D01*
X140813571Y-117542142D01*
X140785000Y-117570714D01*
X140756428Y-117627857D01*
X127739285Y-113778571D02*
X127767857Y-113750000D01*
X127796428Y-113664285D01*
X127796428Y-113607142D01*
X127767857Y-113521428D01*
X127710714Y-113464285D01*
X127653571Y-113435714D01*
X127539285Y-113407142D01*
X127453571Y-113407142D01*
X127339285Y-113435714D01*
X127282142Y-113464285D01*
X127225000Y-113521428D01*
X127196428Y-113607142D01*
X127196428Y-113664285D01*
X127225000Y-113750000D01*
X127253571Y-113778571D01*
X127796428Y-114350000D02*
X127796428Y-114007142D01*
X127796428Y-114178571D02*
X127196428Y-114178571D01*
X127282142Y-114121428D01*
X127339285Y-114064285D01*
X127367857Y-114007142D01*
X127196428Y-114892857D02*
X127196428Y-114607142D01*
X127482142Y-114578571D01*
X127453571Y-114607142D01*
X127425000Y-114664285D01*
X127425000Y-114807142D01*
X127453571Y-114864285D01*
X127482142Y-114892857D01*
X127539285Y-114921428D01*
X127682142Y-114921428D01*
X127739285Y-114892857D01*
X127767857Y-114864285D01*
X127796428Y-114807142D01*
X127796428Y-114664285D01*
X127767857Y-114607142D01*
X127739285Y-114578571D01*
X127196428Y-115464285D02*
X127196428Y-115178571D01*
X127482142Y-115150000D01*
X127453571Y-115178571D01*
X127425000Y-115235714D01*
X127425000Y-115378571D01*
X127453571Y-115435714D01*
X127482142Y-115464285D01*
X127539285Y-115492857D01*
X127682142Y-115492857D01*
X127739285Y-115464285D01*
X127767857Y-115435714D01*
X127796428Y-115378571D01*
X127796428Y-115235714D01*
X127767857Y-115178571D01*
X127739285Y-115150000D01*
X134639285Y-115428571D02*
X134667857Y-115400000D01*
X134696428Y-115314285D01*
X134696428Y-115257142D01*
X134667857Y-115171428D01*
X134610714Y-115114285D01*
X134553571Y-115085714D01*
X134439285Y-115057142D01*
X134353571Y-115057142D01*
X134239285Y-115085714D01*
X134182142Y-115114285D01*
X134125000Y-115171428D01*
X134096428Y-115257142D01*
X134096428Y-115314285D01*
X134125000Y-115400000D01*
X134153571Y-115428571D01*
X134696428Y-116000000D02*
X134696428Y-115657142D01*
X134696428Y-115828571D02*
X134096428Y-115828571D01*
X134182142Y-115771428D01*
X134239285Y-115714285D01*
X134267857Y-115657142D01*
X134096428Y-116542857D02*
X134096428Y-116257142D01*
X134382142Y-116228571D01*
X134353571Y-116257142D01*
X134325000Y-116314285D01*
X134325000Y-116457142D01*
X134353571Y-116514285D01*
X134382142Y-116542857D01*
X134439285Y-116571428D01*
X134582142Y-116571428D01*
X134639285Y-116542857D01*
X134667857Y-116514285D01*
X134696428Y-116457142D01*
X134696428Y-116314285D01*
X134667857Y-116257142D01*
X134639285Y-116228571D01*
X134096428Y-116771428D02*
X134096428Y-117171428D01*
X134696428Y-116914285D01*
X157971428Y-104314285D02*
X158000000Y-104342857D01*
X158085714Y-104371428D01*
X158142857Y-104371428D01*
X158228571Y-104342857D01*
X158285714Y-104285714D01*
X158314285Y-104228571D01*
X158342857Y-104114285D01*
X158342857Y-104028571D01*
X158314285Y-103914285D01*
X158285714Y-103857142D01*
X158228571Y-103800000D01*
X158142857Y-103771428D01*
X158085714Y-103771428D01*
X158000000Y-103800000D01*
X157971428Y-103828571D01*
X157742857Y-103828571D02*
X157714285Y-103800000D01*
X157657142Y-103771428D01*
X157514285Y-103771428D01*
X157457142Y-103800000D01*
X157428571Y-103828571D01*
X157400000Y-103885714D01*
X157400000Y-103942857D01*
X157428571Y-104028571D01*
X157771428Y-104371428D01*
X157400000Y-104371428D01*
X157028571Y-103771428D02*
X156971428Y-103771428D01*
X156914285Y-103800000D01*
X156885714Y-103828571D01*
X156857142Y-103885714D01*
X156828571Y-104000000D01*
X156828571Y-104142857D01*
X156857142Y-104257142D01*
X156885714Y-104314285D01*
X156914285Y-104342857D01*
X156971428Y-104371428D01*
X157028571Y-104371428D01*
X157085714Y-104342857D01*
X157114285Y-104314285D01*
X157142857Y-104257142D01*
X157171428Y-104142857D01*
X157171428Y-104000000D01*
X157142857Y-103885714D01*
X157114285Y-103828571D01*
X157085714Y-103800000D01*
X157028571Y-103771428D01*
X156285714Y-103771428D02*
X156571428Y-103771428D01*
X156600000Y-104057142D01*
X156571428Y-104028571D01*
X156514285Y-104000000D01*
X156371428Y-104000000D01*
X156314285Y-104028571D01*
X156285714Y-104057142D01*
X156257142Y-104114285D01*
X156257142Y-104257142D01*
X156285714Y-104314285D01*
X156314285Y-104342857D01*
X156371428Y-104371428D01*
X156514285Y-104371428D01*
X156571428Y-104342857D01*
X156600000Y-104314285D01*
X165396428Y-106489285D02*
X165425000Y-106517857D01*
X165510714Y-106546428D01*
X165567857Y-106546428D01*
X165653571Y-106517857D01*
X165710714Y-106460714D01*
X165739285Y-106403571D01*
X165767857Y-106289285D01*
X165767857Y-106203571D01*
X165739285Y-106089285D01*
X165710714Y-106032142D01*
X165653571Y-105975000D01*
X165567857Y-105946428D01*
X165510714Y-105946428D01*
X165425000Y-105975000D01*
X165396428Y-106003571D01*
X164825000Y-106546428D02*
X165167857Y-106546428D01*
X164996428Y-106546428D02*
X164996428Y-105946428D01*
X165053571Y-106032142D01*
X165110714Y-106089285D01*
X165167857Y-106117857D01*
X164539285Y-106546428D02*
X164425000Y-106546428D01*
X164367857Y-106517857D01*
X164339285Y-106489285D01*
X164282142Y-106403571D01*
X164253571Y-106289285D01*
X164253571Y-106060714D01*
X164282142Y-106003571D01*
X164310714Y-105975000D01*
X164367857Y-105946428D01*
X164482142Y-105946428D01*
X164539285Y-105975000D01*
X164567857Y-106003571D01*
X164596428Y-106060714D01*
X164596428Y-106203571D01*
X164567857Y-106260714D01*
X164539285Y-106289285D01*
X164482142Y-106317857D01*
X164367857Y-106317857D01*
X164310714Y-106289285D01*
X164282142Y-106260714D01*
X164253571Y-106203571D01*
X163967857Y-106546428D02*
X163853571Y-106546428D01*
X163796428Y-106517857D01*
X163767857Y-106489285D01*
X163710714Y-106403571D01*
X163682142Y-106289285D01*
X163682142Y-106060714D01*
X163710714Y-106003571D01*
X163739285Y-105975000D01*
X163796428Y-105946428D01*
X163910714Y-105946428D01*
X163967857Y-105975000D01*
X163996428Y-106003571D01*
X164025000Y-106060714D01*
X164025000Y-106203571D01*
X163996428Y-106260714D01*
X163967857Y-106289285D01*
X163910714Y-106317857D01*
X163796428Y-106317857D01*
X163739285Y-106289285D01*
X163710714Y-106260714D01*
X163682142Y-106203571D01*
X192885714Y-80464285D02*
X192914285Y-80492857D01*
X193000000Y-80521428D01*
X193057142Y-80521428D01*
X193142857Y-80492857D01*
X193200000Y-80435714D01*
X193228571Y-80378571D01*
X193257142Y-80264285D01*
X193257142Y-80178571D01*
X193228571Y-80064285D01*
X193200000Y-80007142D01*
X193142857Y-79950000D01*
X193057142Y-79921428D01*
X193000000Y-79921428D01*
X192914285Y-79950000D01*
X192885714Y-79978571D01*
X192657142Y-79978571D02*
X192628571Y-79950000D01*
X192571428Y-79921428D01*
X192428571Y-79921428D01*
X192371428Y-79950000D01*
X192342857Y-79978571D01*
X192314285Y-80035714D01*
X192314285Y-80092857D01*
X192342857Y-80178571D01*
X192685714Y-80521428D01*
X192314285Y-80521428D01*
X192028571Y-80521428D02*
X191914285Y-80521428D01*
X191857142Y-80492857D01*
X191828571Y-80464285D01*
X191771428Y-80378571D01*
X191742857Y-80264285D01*
X191742857Y-80035714D01*
X191771428Y-79978571D01*
X191800000Y-79950000D01*
X191857142Y-79921428D01*
X191971428Y-79921428D01*
X192028571Y-79950000D01*
X192057142Y-79978571D01*
X192085714Y-80035714D01*
X192085714Y-80178571D01*
X192057142Y-80235714D01*
X192028571Y-80264285D01*
X191971428Y-80292857D01*
X191857142Y-80292857D01*
X191800000Y-80264285D01*
X191771428Y-80235714D01*
X191742857Y-80178571D01*
X202315714Y-84899285D02*
X202344285Y-84927857D01*
X202430000Y-84956428D01*
X202487142Y-84956428D01*
X202572857Y-84927857D01*
X202630000Y-84870714D01*
X202658571Y-84813571D01*
X202687142Y-84699285D01*
X202687142Y-84613571D01*
X202658571Y-84499285D01*
X202630000Y-84442142D01*
X202572857Y-84385000D01*
X202487142Y-84356428D01*
X202430000Y-84356428D01*
X202344285Y-84385000D01*
X202315714Y-84413571D01*
X202115714Y-84356428D02*
X201744285Y-84356428D01*
X201944285Y-84585000D01*
X201858571Y-84585000D01*
X201801428Y-84613571D01*
X201772857Y-84642142D01*
X201744285Y-84699285D01*
X201744285Y-84842142D01*
X201772857Y-84899285D01*
X201801428Y-84927857D01*
X201858571Y-84956428D01*
X202030000Y-84956428D01*
X202087142Y-84927857D01*
X202115714Y-84899285D01*
X201515714Y-84413571D02*
X201487142Y-84385000D01*
X201430000Y-84356428D01*
X201287142Y-84356428D01*
X201230000Y-84385000D01*
X201201428Y-84413571D01*
X201172857Y-84470714D01*
X201172857Y-84527857D01*
X201201428Y-84613571D01*
X201544285Y-84956428D01*
X201172857Y-84956428D01*
X197496428Y-97639285D02*
X197525000Y-97667857D01*
X197610714Y-97696428D01*
X197667857Y-97696428D01*
X197753571Y-97667857D01*
X197810714Y-97610714D01*
X197839285Y-97553571D01*
X197867857Y-97439285D01*
X197867857Y-97353571D01*
X197839285Y-97239285D01*
X197810714Y-97182142D01*
X197753571Y-97125000D01*
X197667857Y-97096428D01*
X197610714Y-97096428D01*
X197525000Y-97125000D01*
X197496428Y-97153571D01*
X196925000Y-97696428D02*
X197267857Y-97696428D01*
X197096428Y-97696428D02*
X197096428Y-97096428D01*
X197153571Y-97182142D01*
X197210714Y-97239285D01*
X197267857Y-97267857D01*
X196353571Y-97696428D02*
X196696428Y-97696428D01*
X196525000Y-97696428D02*
X196525000Y-97096428D01*
X196582142Y-97182142D01*
X196639285Y-97239285D01*
X196696428Y-97267857D01*
X195810714Y-97096428D02*
X196096428Y-97096428D01*
X196125000Y-97382142D01*
X196096428Y-97353571D01*
X196039285Y-97325000D01*
X195896428Y-97325000D01*
X195839285Y-97353571D01*
X195810714Y-97382142D01*
X195782142Y-97439285D01*
X195782142Y-97582142D01*
X195810714Y-97639285D01*
X195839285Y-97667857D01*
X195896428Y-97696428D01*
X196039285Y-97696428D01*
X196096428Y-97667857D01*
X196125000Y-97639285D01*
X182137307Y-89425335D02*
X182165879Y-89396764D01*
X182194450Y-89311050D01*
X182194450Y-89253907D01*
X182165879Y-89168192D01*
X182108736Y-89111050D01*
X182051593Y-89082478D01*
X181937307Y-89053907D01*
X181851593Y-89053907D01*
X181737307Y-89082478D01*
X181680164Y-89111050D01*
X181623022Y-89168192D01*
X181594450Y-89253907D01*
X181594450Y-89311050D01*
X181623022Y-89396764D01*
X181651593Y-89425335D01*
X182194450Y-89711050D02*
X182194450Y-89825335D01*
X182165879Y-89882478D01*
X182137307Y-89911050D01*
X182051593Y-89968192D01*
X181937307Y-89996764D01*
X181708736Y-89996764D01*
X181651593Y-89968192D01*
X181623022Y-89939621D01*
X181594450Y-89882478D01*
X181594450Y-89768192D01*
X181623022Y-89711050D01*
X181651593Y-89682478D01*
X181708736Y-89653907D01*
X181851593Y-89653907D01*
X181908736Y-89682478D01*
X181937307Y-89711050D01*
X181965879Y-89768192D01*
X181965879Y-89882478D01*
X181937307Y-89939621D01*
X181908736Y-89968192D01*
X181851593Y-89996764D01*
X181594450Y-90511050D02*
X181594450Y-90396764D01*
X181623022Y-90339621D01*
X181651593Y-90311050D01*
X181737307Y-90253907D01*
X181851593Y-90225335D01*
X182080164Y-90225335D01*
X182137307Y-90253907D01*
X182165879Y-90282478D01*
X182194450Y-90339621D01*
X182194450Y-90453907D01*
X182165879Y-90511050D01*
X182137307Y-90539621D01*
X182080164Y-90568192D01*
X181937307Y-90568192D01*
X181880164Y-90539621D01*
X181851593Y-90511050D01*
X181823022Y-90453907D01*
X181823022Y-90339621D01*
X181851593Y-90282478D01*
X181880164Y-90253907D01*
X181937307Y-90225335D01*
X159785714Y-85464285D02*
X159814285Y-85492857D01*
X159900000Y-85521428D01*
X159957142Y-85521428D01*
X160042857Y-85492857D01*
X160100000Y-85435714D01*
X160128571Y-85378571D01*
X160157142Y-85264285D01*
X160157142Y-85178571D01*
X160128571Y-85064285D01*
X160100000Y-85007142D01*
X160042857Y-84950000D01*
X159957142Y-84921428D01*
X159900000Y-84921428D01*
X159814285Y-84950000D01*
X159785714Y-84978571D01*
X159585714Y-84921428D02*
X159185714Y-84921428D01*
X159442857Y-85521428D01*
X158671428Y-84921428D02*
X158957142Y-84921428D01*
X158985714Y-85207142D01*
X158957142Y-85178571D01*
X158900000Y-85150000D01*
X158757142Y-85150000D01*
X158700000Y-85178571D01*
X158671428Y-85207142D01*
X158642857Y-85264285D01*
X158642857Y-85407142D01*
X158671428Y-85464285D01*
X158700000Y-85492857D01*
X158757142Y-85521428D01*
X158900000Y-85521428D01*
X158957142Y-85492857D01*
X158985714Y-85464285D01*
X166035714Y-89664285D02*
X166064285Y-89692857D01*
X166150000Y-89721428D01*
X166207142Y-89721428D01*
X166292857Y-89692857D01*
X166350000Y-89635714D01*
X166378571Y-89578571D01*
X166407142Y-89464285D01*
X166407142Y-89378571D01*
X166378571Y-89264285D01*
X166350000Y-89207142D01*
X166292857Y-89150000D01*
X166207142Y-89121428D01*
X166150000Y-89121428D01*
X166064285Y-89150000D01*
X166035714Y-89178571D01*
X165464285Y-89721428D02*
X165807142Y-89721428D01*
X165635714Y-89721428D02*
X165635714Y-89121428D01*
X165692857Y-89207142D01*
X165750000Y-89264285D01*
X165807142Y-89292857D01*
X164950000Y-89121428D02*
X165064285Y-89121428D01*
X165121428Y-89150000D01*
X165150000Y-89178571D01*
X165207142Y-89264285D01*
X165235714Y-89378571D01*
X165235714Y-89607142D01*
X165207142Y-89664285D01*
X165178571Y-89692857D01*
X165121428Y-89721428D01*
X165007142Y-89721428D01*
X164950000Y-89692857D01*
X164921428Y-89664285D01*
X164892857Y-89607142D01*
X164892857Y-89464285D01*
X164921428Y-89407142D01*
X164950000Y-89378571D01*
X165007142Y-89350000D01*
X165121428Y-89350000D01*
X165178571Y-89378571D01*
X165207142Y-89407142D01*
X165235714Y-89464285D01*
X188664285Y-88164285D02*
X188692857Y-88135714D01*
X188721428Y-88050000D01*
X188721428Y-87992857D01*
X188692857Y-87907142D01*
X188635714Y-87850000D01*
X188578571Y-87821428D01*
X188464285Y-87792857D01*
X188378571Y-87792857D01*
X188264285Y-87821428D01*
X188207142Y-87850000D01*
X188150000Y-87907142D01*
X188121428Y-87992857D01*
X188121428Y-88050000D01*
X188150000Y-88135714D01*
X188178571Y-88164285D01*
X188178571Y-88392857D02*
X188150000Y-88421428D01*
X188121428Y-88478571D01*
X188121428Y-88621428D01*
X188150000Y-88678571D01*
X188178571Y-88707142D01*
X188235714Y-88735714D01*
X188292857Y-88735714D01*
X188378571Y-88707142D01*
X188721428Y-88364285D01*
X188721428Y-88735714D01*
X188721428Y-89307142D02*
X188721428Y-88964285D01*
X188721428Y-89135714D02*
X188121428Y-89135714D01*
X188207142Y-89078571D01*
X188264285Y-89021428D01*
X188292857Y-88964285D01*
X139955714Y-84689285D02*
X139984285Y-84717857D01*
X140070000Y-84746428D01*
X140127142Y-84746428D01*
X140212857Y-84717857D01*
X140270000Y-84660714D01*
X140298571Y-84603571D01*
X140327142Y-84489285D01*
X140327142Y-84403571D01*
X140298571Y-84289285D01*
X140270000Y-84232142D01*
X140212857Y-84175000D01*
X140127142Y-84146428D01*
X140070000Y-84146428D01*
X139984285Y-84175000D01*
X139955714Y-84203571D01*
X139755714Y-84146428D02*
X139355714Y-84146428D01*
X139612857Y-84746428D01*
X139184285Y-84146428D02*
X138812857Y-84146428D01*
X139012857Y-84375000D01*
X138927142Y-84375000D01*
X138870000Y-84403571D01*
X138841428Y-84432142D01*
X138812857Y-84489285D01*
X138812857Y-84632142D01*
X138841428Y-84689285D01*
X138870000Y-84717857D01*
X138927142Y-84746428D01*
X139098571Y-84746428D01*
X139155714Y-84717857D01*
X139184285Y-84689285D01*
X197646428Y-107189285D02*
X197675000Y-107217857D01*
X197760714Y-107246428D01*
X197817857Y-107246428D01*
X197903571Y-107217857D01*
X197960714Y-107160714D01*
X197989285Y-107103571D01*
X198017857Y-106989285D01*
X198017857Y-106903571D01*
X197989285Y-106789285D01*
X197960714Y-106732142D01*
X197903571Y-106675000D01*
X197817857Y-106646428D01*
X197760714Y-106646428D01*
X197675000Y-106675000D01*
X197646428Y-106703571D01*
X197075000Y-107246428D02*
X197417857Y-107246428D01*
X197246428Y-107246428D02*
X197246428Y-106646428D01*
X197303571Y-106732142D01*
X197360714Y-106789285D01*
X197417857Y-106817857D01*
X196703571Y-106646428D02*
X196646428Y-106646428D01*
X196589285Y-106675000D01*
X196560714Y-106703571D01*
X196532142Y-106760714D01*
X196503571Y-106875000D01*
X196503571Y-107017857D01*
X196532142Y-107132142D01*
X196560714Y-107189285D01*
X196589285Y-107217857D01*
X196646428Y-107246428D01*
X196703571Y-107246428D01*
X196760714Y-107217857D01*
X196789285Y-107189285D01*
X196817857Y-107132142D01*
X196846428Y-107017857D01*
X196846428Y-106875000D01*
X196817857Y-106760714D01*
X196789285Y-106703571D01*
X196760714Y-106675000D01*
X196703571Y-106646428D01*
X196160714Y-106903571D02*
X196217857Y-106875000D01*
X196246428Y-106846428D01*
X196275000Y-106789285D01*
X196275000Y-106760714D01*
X196246428Y-106703571D01*
X196217857Y-106675000D01*
X196160714Y-106646428D01*
X196046428Y-106646428D01*
X195989285Y-106675000D01*
X195960714Y-106703571D01*
X195932142Y-106760714D01*
X195932142Y-106789285D01*
X195960714Y-106846428D01*
X195989285Y-106875000D01*
X196046428Y-106903571D01*
X196160714Y-106903571D01*
X196217857Y-106932142D01*
X196246428Y-106960714D01*
X196275000Y-107017857D01*
X196275000Y-107132142D01*
X196246428Y-107189285D01*
X196217857Y-107217857D01*
X196160714Y-107246428D01*
X196046428Y-107246428D01*
X195989285Y-107217857D01*
X195960714Y-107189285D01*
X195932142Y-107132142D01*
X195932142Y-107017857D01*
X195960714Y-106960714D01*
X195989285Y-106932142D01*
X196046428Y-106903571D01*
X147461064Y-95278095D02*
X147489635Y-95306667D01*
X147575350Y-95335238D01*
X147632492Y-95335238D01*
X147718207Y-95306667D01*
X147775350Y-95249524D01*
X147803921Y-95192381D01*
X147832492Y-95078095D01*
X147832492Y-94992381D01*
X147803921Y-94878095D01*
X147775350Y-94820952D01*
X147718207Y-94763810D01*
X147632492Y-94735238D01*
X147575350Y-94735238D01*
X147489635Y-94763810D01*
X147461064Y-94792381D01*
X147175350Y-95335238D02*
X147061064Y-95335238D01*
X147003921Y-95306667D01*
X146975350Y-95278095D01*
X146918207Y-95192381D01*
X146889635Y-95078095D01*
X146889635Y-94849524D01*
X146918207Y-94792381D01*
X146946778Y-94763810D01*
X147003921Y-94735238D01*
X147118207Y-94735238D01*
X147175350Y-94763810D01*
X147203921Y-94792381D01*
X147232492Y-94849524D01*
X147232492Y-94992381D01*
X147203921Y-95049524D01*
X147175350Y-95078095D01*
X147118207Y-95106667D01*
X147003921Y-95106667D01*
X146946778Y-95078095D01*
X146918207Y-95049524D01*
X146889635Y-94992381D01*
X146689635Y-94735238D02*
X146289635Y-94735238D01*
X146546778Y-95335238D01*
X184414285Y-82264285D02*
X184442857Y-82235714D01*
X184471428Y-82150000D01*
X184471428Y-82092857D01*
X184442857Y-82007142D01*
X184385714Y-81950000D01*
X184328571Y-81921428D01*
X184214285Y-81892857D01*
X184128571Y-81892857D01*
X184014285Y-81921428D01*
X183957142Y-81950000D01*
X183900000Y-82007142D01*
X183871428Y-82092857D01*
X183871428Y-82150000D01*
X183900000Y-82235714D01*
X183928571Y-82264285D01*
X184471428Y-82550000D02*
X184471428Y-82664285D01*
X184442857Y-82721428D01*
X184414285Y-82750000D01*
X184328571Y-82807142D01*
X184214285Y-82835714D01*
X183985714Y-82835714D01*
X183928571Y-82807142D01*
X183900000Y-82778571D01*
X183871428Y-82721428D01*
X183871428Y-82607142D01*
X183900000Y-82550000D01*
X183928571Y-82521428D01*
X183985714Y-82492857D01*
X184128571Y-82492857D01*
X184185714Y-82521428D01*
X184214285Y-82550000D01*
X184242857Y-82607142D01*
X184242857Y-82721428D01*
X184214285Y-82778571D01*
X184185714Y-82807142D01*
X184128571Y-82835714D01*
X184471428Y-83121428D02*
X184471428Y-83235714D01*
X184442857Y-83292857D01*
X184414285Y-83321428D01*
X184328571Y-83378571D01*
X184214285Y-83407142D01*
X183985714Y-83407142D01*
X183928571Y-83378571D01*
X183900000Y-83350000D01*
X183871428Y-83292857D01*
X183871428Y-83178571D01*
X183900000Y-83121428D01*
X183928571Y-83092857D01*
X183985714Y-83064285D01*
X184128571Y-83064285D01*
X184185714Y-83092857D01*
X184214285Y-83121428D01*
X184242857Y-83178571D01*
X184242857Y-83292857D01*
X184214285Y-83350000D01*
X184185714Y-83378571D01*
X184128571Y-83407142D01*
X171235714Y-86171083D02*
X171264285Y-86199655D01*
X171350000Y-86228226D01*
X171407142Y-86228226D01*
X171492857Y-86199655D01*
X171550000Y-86142512D01*
X171578571Y-86085369D01*
X171607142Y-85971083D01*
X171607142Y-85885369D01*
X171578571Y-85771083D01*
X171550000Y-85713940D01*
X171492857Y-85656798D01*
X171407142Y-85628226D01*
X171350000Y-85628226D01*
X171264285Y-85656798D01*
X171235714Y-85685369D01*
X171035714Y-85628226D02*
X170635714Y-85628226D01*
X170892857Y-86228226D01*
X170150000Y-85828226D02*
X170150000Y-86228226D01*
X170292857Y-85599655D02*
X170435714Y-86028226D01*
X170064285Y-86028226D01*
X163282833Y-100430787D02*
X163311405Y-100402216D01*
X163339976Y-100316501D01*
X163339976Y-100259358D01*
X163311405Y-100173644D01*
X163254262Y-100116501D01*
X163197119Y-100087930D01*
X163082833Y-100059358D01*
X162997119Y-100059358D01*
X162882833Y-100087930D01*
X162825690Y-100116501D01*
X162768548Y-100173644D01*
X162739976Y-100259358D01*
X162739976Y-100316501D01*
X162768548Y-100402216D01*
X162797119Y-100430787D01*
X163339976Y-101002216D02*
X163339976Y-100659358D01*
X163339976Y-100830787D02*
X162739976Y-100830787D01*
X162825690Y-100773644D01*
X162882833Y-100716501D01*
X162911405Y-100659358D01*
X162997119Y-101345073D02*
X162968548Y-101287930D01*
X162939976Y-101259358D01*
X162882833Y-101230787D01*
X162854262Y-101230787D01*
X162797119Y-101259358D01*
X162768548Y-101287930D01*
X162739976Y-101345073D01*
X162739976Y-101459358D01*
X162768548Y-101516501D01*
X162797119Y-101545073D01*
X162854262Y-101573644D01*
X162882833Y-101573644D01*
X162939976Y-101545073D01*
X162968548Y-101516501D01*
X162997119Y-101459358D01*
X162997119Y-101345073D01*
X163025690Y-101287930D01*
X163054262Y-101259358D01*
X163111405Y-101230787D01*
X163225690Y-101230787D01*
X163282833Y-101259358D01*
X163311405Y-101287930D01*
X163339976Y-101345073D01*
X163339976Y-101459358D01*
X163311405Y-101516501D01*
X163282833Y-101545073D01*
X163225690Y-101573644D01*
X163111405Y-101573644D01*
X163054262Y-101545073D01*
X163025690Y-101516501D01*
X162997119Y-101459358D01*
X162739976Y-101773644D02*
X162739976Y-102173644D01*
X163339976Y-101916501D01*
X160446428Y-110414285D02*
X160475000Y-110442857D01*
X160560714Y-110471428D01*
X160617857Y-110471428D01*
X160703571Y-110442857D01*
X160760714Y-110385714D01*
X160789285Y-110328571D01*
X160817857Y-110214285D01*
X160817857Y-110128571D01*
X160789285Y-110014285D01*
X160760714Y-109957142D01*
X160703571Y-109900000D01*
X160617857Y-109871428D01*
X160560714Y-109871428D01*
X160475000Y-109900000D01*
X160446428Y-109928571D01*
X159875000Y-110471428D02*
X160217857Y-110471428D01*
X160046428Y-110471428D02*
X160046428Y-109871428D01*
X160103571Y-109957142D01*
X160160714Y-110014285D01*
X160217857Y-110042857D01*
X159532142Y-110128571D02*
X159589285Y-110100000D01*
X159617857Y-110071428D01*
X159646428Y-110014285D01*
X159646428Y-109985714D01*
X159617857Y-109928571D01*
X159589285Y-109900000D01*
X159532142Y-109871428D01*
X159417857Y-109871428D01*
X159360714Y-109900000D01*
X159332142Y-109928571D01*
X159303571Y-109985714D01*
X159303571Y-110014285D01*
X159332142Y-110071428D01*
X159360714Y-110100000D01*
X159417857Y-110128571D01*
X159532142Y-110128571D01*
X159589285Y-110157142D01*
X159617857Y-110185714D01*
X159646428Y-110242857D01*
X159646428Y-110357142D01*
X159617857Y-110414285D01*
X159589285Y-110442857D01*
X159532142Y-110471428D01*
X159417857Y-110471428D01*
X159360714Y-110442857D01*
X159332142Y-110414285D01*
X159303571Y-110357142D01*
X159303571Y-110242857D01*
X159332142Y-110185714D01*
X159360714Y-110157142D01*
X159417857Y-110128571D01*
X159017857Y-110471428D02*
X158903571Y-110471428D01*
X158846428Y-110442857D01*
X158817857Y-110414285D01*
X158760714Y-110328571D01*
X158732142Y-110214285D01*
X158732142Y-109985714D01*
X158760714Y-109928571D01*
X158789285Y-109900000D01*
X158846428Y-109871428D01*
X158960714Y-109871428D01*
X159017857Y-109900000D01*
X159046428Y-109928571D01*
X159075000Y-109985714D01*
X159075000Y-110128571D01*
X159046428Y-110185714D01*
X159017857Y-110214285D01*
X158960714Y-110242857D01*
X158846428Y-110242857D01*
X158789285Y-110214285D01*
X158760714Y-110185714D01*
X158732142Y-110128571D01*
X158349976Y-101566501D02*
X158378548Y-101595073D01*
X158464262Y-101623644D01*
X158521405Y-101623644D01*
X158607119Y-101595073D01*
X158664262Y-101537930D01*
X158692833Y-101480787D01*
X158721405Y-101366501D01*
X158721405Y-101280787D01*
X158692833Y-101166501D01*
X158664262Y-101109358D01*
X158607119Y-101052216D01*
X158521405Y-101023644D01*
X158464262Y-101023644D01*
X158378548Y-101052216D01*
X158349976Y-101080787D01*
X157778548Y-101623644D02*
X158121405Y-101623644D01*
X157949976Y-101623644D02*
X157949976Y-101023644D01*
X158007119Y-101109358D01*
X158064262Y-101166501D01*
X158121405Y-101195073D01*
X157492833Y-101623644D02*
X157378548Y-101623644D01*
X157321405Y-101595073D01*
X157292833Y-101566501D01*
X157235690Y-101480787D01*
X157207119Y-101366501D01*
X157207119Y-101137930D01*
X157235690Y-101080787D01*
X157264262Y-101052216D01*
X157321405Y-101023644D01*
X157435690Y-101023644D01*
X157492833Y-101052216D01*
X157521405Y-101080787D01*
X157549976Y-101137930D01*
X157549976Y-101280787D01*
X157521405Y-101337930D01*
X157492833Y-101366501D01*
X157435690Y-101395073D01*
X157321405Y-101395073D01*
X157264262Y-101366501D01*
X157235690Y-101337930D01*
X157207119Y-101280787D01*
X156835690Y-101023644D02*
X156778548Y-101023644D01*
X156721405Y-101052216D01*
X156692833Y-101080787D01*
X156664262Y-101137930D01*
X156635690Y-101252216D01*
X156635690Y-101395073D01*
X156664262Y-101509358D01*
X156692833Y-101566501D01*
X156721405Y-101595073D01*
X156778548Y-101623644D01*
X156835690Y-101623644D01*
X156892833Y-101595073D01*
X156921405Y-101566501D01*
X156949976Y-101509358D01*
X156978548Y-101395073D01*
X156978548Y-101252216D01*
X156949976Y-101137930D01*
X156921405Y-101080787D01*
X156892833Y-101052216D01*
X156835690Y-101023644D01*
X157979976Y-105656501D02*
X158008548Y-105685073D01*
X158094262Y-105713644D01*
X158151405Y-105713644D01*
X158237119Y-105685073D01*
X158294262Y-105627930D01*
X158322833Y-105570787D01*
X158351405Y-105456501D01*
X158351405Y-105370787D01*
X158322833Y-105256501D01*
X158294262Y-105199358D01*
X158237119Y-105142216D01*
X158151405Y-105113644D01*
X158094262Y-105113644D01*
X158008548Y-105142216D01*
X157979976Y-105170787D01*
X157408548Y-105713644D02*
X157751405Y-105713644D01*
X157579976Y-105713644D02*
X157579976Y-105113644D01*
X157637119Y-105199358D01*
X157694262Y-105256501D01*
X157751405Y-105285073D01*
X157122833Y-105713644D02*
X157008548Y-105713644D01*
X156951405Y-105685073D01*
X156922833Y-105656501D01*
X156865690Y-105570787D01*
X156837119Y-105456501D01*
X156837119Y-105227930D01*
X156865690Y-105170787D01*
X156894262Y-105142216D01*
X156951405Y-105113644D01*
X157065690Y-105113644D01*
X157122833Y-105142216D01*
X157151405Y-105170787D01*
X157179976Y-105227930D01*
X157179976Y-105370787D01*
X157151405Y-105427930D01*
X157122833Y-105456501D01*
X157065690Y-105485073D01*
X156951405Y-105485073D01*
X156894262Y-105456501D01*
X156865690Y-105427930D01*
X156837119Y-105370787D01*
X156265690Y-105713644D02*
X156608548Y-105713644D01*
X156437119Y-105713644D02*
X156437119Y-105113644D01*
X156494262Y-105199358D01*
X156551405Y-105256501D01*
X156608548Y-105285073D01*
X160569976Y-105976501D02*
X160598548Y-106005073D01*
X160684262Y-106033644D01*
X160741405Y-106033644D01*
X160827119Y-106005073D01*
X160884262Y-105947930D01*
X160912833Y-105890787D01*
X160941405Y-105776501D01*
X160941405Y-105690787D01*
X160912833Y-105576501D01*
X160884262Y-105519358D01*
X160827119Y-105462216D01*
X160741405Y-105433644D01*
X160684262Y-105433644D01*
X160598548Y-105462216D01*
X160569976Y-105490787D01*
X159998548Y-106033644D02*
X160341405Y-106033644D01*
X160169976Y-106033644D02*
X160169976Y-105433644D01*
X160227119Y-105519358D01*
X160284262Y-105576501D01*
X160341405Y-105605073D01*
X159712833Y-106033644D02*
X159598548Y-106033644D01*
X159541405Y-106005073D01*
X159512833Y-105976501D01*
X159455690Y-105890787D01*
X159427119Y-105776501D01*
X159427119Y-105547930D01*
X159455690Y-105490787D01*
X159484262Y-105462216D01*
X159541405Y-105433644D01*
X159655690Y-105433644D01*
X159712833Y-105462216D01*
X159741405Y-105490787D01*
X159769976Y-105547930D01*
X159769976Y-105690787D01*
X159741405Y-105747930D01*
X159712833Y-105776501D01*
X159655690Y-105805073D01*
X159541405Y-105805073D01*
X159484262Y-105776501D01*
X159455690Y-105747930D01*
X159427119Y-105690787D01*
X159198548Y-105490787D02*
X159169976Y-105462216D01*
X159112833Y-105433644D01*
X158969976Y-105433644D01*
X158912833Y-105462216D01*
X158884262Y-105490787D01*
X158855690Y-105547930D01*
X158855690Y-105605073D01*
X158884262Y-105690787D01*
X159227119Y-106033644D01*
X158855690Y-106033644D01*
X159479976Y-100586501D02*
X159508548Y-100615073D01*
X159594262Y-100643644D01*
X159651405Y-100643644D01*
X159737119Y-100615073D01*
X159794262Y-100557930D01*
X159822833Y-100500787D01*
X159851405Y-100386501D01*
X159851405Y-100300787D01*
X159822833Y-100186501D01*
X159794262Y-100129358D01*
X159737119Y-100072216D01*
X159651405Y-100043644D01*
X159594262Y-100043644D01*
X159508548Y-100072216D01*
X159479976Y-100100787D01*
X158908548Y-100643644D02*
X159251405Y-100643644D01*
X159079976Y-100643644D02*
X159079976Y-100043644D01*
X159137119Y-100129358D01*
X159194262Y-100186501D01*
X159251405Y-100215073D01*
X158622833Y-100643644D02*
X158508548Y-100643644D01*
X158451405Y-100615073D01*
X158422833Y-100586501D01*
X158365690Y-100500787D01*
X158337119Y-100386501D01*
X158337119Y-100157930D01*
X158365690Y-100100787D01*
X158394262Y-100072216D01*
X158451405Y-100043644D01*
X158565690Y-100043644D01*
X158622833Y-100072216D01*
X158651405Y-100100787D01*
X158679976Y-100157930D01*
X158679976Y-100300787D01*
X158651405Y-100357930D01*
X158622833Y-100386501D01*
X158565690Y-100415073D01*
X158451405Y-100415073D01*
X158394262Y-100386501D01*
X158365690Y-100357930D01*
X158337119Y-100300787D01*
X158137119Y-100043644D02*
X157765690Y-100043644D01*
X157965690Y-100272216D01*
X157879976Y-100272216D01*
X157822833Y-100300787D01*
X157794262Y-100329358D01*
X157765690Y-100386501D01*
X157765690Y-100529358D01*
X157794262Y-100586501D01*
X157822833Y-100615073D01*
X157879976Y-100643644D01*
X158051405Y-100643644D01*
X158108548Y-100615073D01*
X158137119Y-100586501D01*
X156099976Y-99596501D02*
X156128548Y-99625073D01*
X156214262Y-99653644D01*
X156271405Y-99653644D01*
X156357119Y-99625073D01*
X156414262Y-99567930D01*
X156442833Y-99510787D01*
X156471405Y-99396501D01*
X156471405Y-99310787D01*
X156442833Y-99196501D01*
X156414262Y-99139358D01*
X156357119Y-99082216D01*
X156271405Y-99053644D01*
X156214262Y-99053644D01*
X156128548Y-99082216D01*
X156099976Y-99110787D01*
X155528548Y-99653644D02*
X155871405Y-99653644D01*
X155699976Y-99653644D02*
X155699976Y-99053644D01*
X155757119Y-99139358D01*
X155814262Y-99196501D01*
X155871405Y-99225073D01*
X155242833Y-99653644D02*
X155128548Y-99653644D01*
X155071405Y-99625073D01*
X155042833Y-99596501D01*
X154985690Y-99510787D01*
X154957119Y-99396501D01*
X154957119Y-99167930D01*
X154985690Y-99110787D01*
X155014262Y-99082216D01*
X155071405Y-99053644D01*
X155185690Y-99053644D01*
X155242833Y-99082216D01*
X155271405Y-99110787D01*
X155299976Y-99167930D01*
X155299976Y-99310787D01*
X155271405Y-99367930D01*
X155242833Y-99396501D01*
X155185690Y-99425073D01*
X155071405Y-99425073D01*
X155014262Y-99396501D01*
X154985690Y-99367930D01*
X154957119Y-99310787D01*
X154614262Y-99310787D02*
X154671405Y-99282216D01*
X154699976Y-99253644D01*
X154728548Y-99196501D01*
X154728548Y-99167930D01*
X154699976Y-99110787D01*
X154671405Y-99082216D01*
X154614262Y-99053644D01*
X154499976Y-99053644D01*
X154442833Y-99082216D01*
X154414262Y-99110787D01*
X154385690Y-99167930D01*
X154385690Y-99196501D01*
X154414262Y-99253644D01*
X154442833Y-99282216D01*
X154499976Y-99310787D01*
X154614262Y-99310787D01*
X154671405Y-99339358D01*
X154699976Y-99367930D01*
X154728548Y-99425073D01*
X154728548Y-99539358D01*
X154699976Y-99596501D01*
X154671405Y-99625073D01*
X154614262Y-99653644D01*
X154499976Y-99653644D01*
X154442833Y-99625073D01*
X154414262Y-99596501D01*
X154385690Y-99539358D01*
X154385690Y-99425073D01*
X154414262Y-99367930D01*
X154442833Y-99339358D01*
X154499976Y-99310787D01*
X162732833Y-101990787D02*
X162761405Y-101962216D01*
X162789976Y-101876501D01*
X162789976Y-101819358D01*
X162761405Y-101733644D01*
X162704262Y-101676501D01*
X162647119Y-101647930D01*
X162532833Y-101619358D01*
X162447119Y-101619358D01*
X162332833Y-101647930D01*
X162275690Y-101676501D01*
X162218548Y-101733644D01*
X162189976Y-101819358D01*
X162189976Y-101876501D01*
X162218548Y-101962216D01*
X162247119Y-101990787D01*
X162247119Y-102219358D02*
X162218548Y-102247930D01*
X162189976Y-102305073D01*
X162189976Y-102447930D01*
X162218548Y-102505073D01*
X162247119Y-102533644D01*
X162304262Y-102562216D01*
X162361405Y-102562216D01*
X162447119Y-102533644D01*
X162789976Y-102190787D01*
X162789976Y-102562216D01*
X162189976Y-102933644D02*
X162189976Y-102990787D01*
X162218548Y-103047930D01*
X162247119Y-103076501D01*
X162304262Y-103105073D01*
X162418548Y-103133644D01*
X162561405Y-103133644D01*
X162675690Y-103105073D01*
X162732833Y-103076501D01*
X162761405Y-103047930D01*
X162789976Y-102990787D01*
X162789976Y-102933644D01*
X162761405Y-102876501D01*
X162732833Y-102847930D01*
X162675690Y-102819358D01*
X162561405Y-102790787D01*
X162418548Y-102790787D01*
X162304262Y-102819358D01*
X162247119Y-102847930D01*
X162218548Y-102876501D01*
X162189976Y-102933644D01*
X162189976Y-103505073D02*
X162189976Y-103562216D01*
X162218548Y-103619358D01*
X162247119Y-103647930D01*
X162304262Y-103676501D01*
X162418548Y-103705073D01*
X162561405Y-103705073D01*
X162675690Y-103676501D01*
X162732833Y-103647930D01*
X162761405Y-103619358D01*
X162789976Y-103562216D01*
X162789976Y-103505073D01*
X162761405Y-103447930D01*
X162732833Y-103419358D01*
X162675690Y-103390787D01*
X162561405Y-103362216D01*
X162418548Y-103362216D01*
X162304262Y-103390787D01*
X162247119Y-103419358D01*
X162218548Y-103447930D01*
X162189976Y-103505073D01*
X155096428Y-109739285D02*
X155125000Y-109767857D01*
X155210714Y-109796428D01*
X155267857Y-109796428D01*
X155353571Y-109767857D01*
X155410714Y-109710714D01*
X155439285Y-109653571D01*
X155467857Y-109539285D01*
X155467857Y-109453571D01*
X155439285Y-109339285D01*
X155410714Y-109282142D01*
X155353571Y-109225000D01*
X155267857Y-109196428D01*
X155210714Y-109196428D01*
X155125000Y-109225000D01*
X155096428Y-109253571D01*
X154867857Y-109253571D02*
X154839285Y-109225000D01*
X154782142Y-109196428D01*
X154639285Y-109196428D01*
X154582142Y-109225000D01*
X154553571Y-109253571D01*
X154525000Y-109310714D01*
X154525000Y-109367857D01*
X154553571Y-109453571D01*
X154896428Y-109796428D01*
X154525000Y-109796428D01*
X154153571Y-109196428D02*
X154096428Y-109196428D01*
X154039285Y-109225000D01*
X154010714Y-109253571D01*
X153982142Y-109310714D01*
X153953571Y-109425000D01*
X153953571Y-109567857D01*
X153982142Y-109682142D01*
X154010714Y-109739285D01*
X154039285Y-109767857D01*
X154096428Y-109796428D01*
X154153571Y-109796428D01*
X154210714Y-109767857D01*
X154239285Y-109739285D01*
X154267857Y-109682142D01*
X154296428Y-109567857D01*
X154296428Y-109425000D01*
X154267857Y-109310714D01*
X154239285Y-109253571D01*
X154210714Y-109225000D01*
X154153571Y-109196428D01*
X153382142Y-109796428D02*
X153725000Y-109796428D01*
X153553571Y-109796428D02*
X153553571Y-109196428D01*
X153610714Y-109282142D01*
X153667857Y-109339285D01*
X153725000Y-109367857D01*
X168319976Y-104656501D02*
X168348548Y-104685073D01*
X168434262Y-104713644D01*
X168491405Y-104713644D01*
X168577119Y-104685073D01*
X168634262Y-104627930D01*
X168662833Y-104570787D01*
X168691405Y-104456501D01*
X168691405Y-104370787D01*
X168662833Y-104256501D01*
X168634262Y-104199358D01*
X168577119Y-104142216D01*
X168491405Y-104113644D01*
X168434262Y-104113644D01*
X168348548Y-104142216D01*
X168319976Y-104170787D01*
X168091405Y-104170787D02*
X168062833Y-104142216D01*
X168005690Y-104113644D01*
X167862833Y-104113644D01*
X167805690Y-104142216D01*
X167777119Y-104170787D01*
X167748548Y-104227930D01*
X167748548Y-104285073D01*
X167777119Y-104370787D01*
X168119976Y-104713644D01*
X167748548Y-104713644D01*
X167377119Y-104113644D02*
X167319976Y-104113644D01*
X167262833Y-104142216D01*
X167234262Y-104170787D01*
X167205690Y-104227930D01*
X167177119Y-104342216D01*
X167177119Y-104485073D01*
X167205690Y-104599358D01*
X167234262Y-104656501D01*
X167262833Y-104685073D01*
X167319976Y-104713644D01*
X167377119Y-104713644D01*
X167434262Y-104685073D01*
X167462833Y-104656501D01*
X167491405Y-104599358D01*
X167519976Y-104485073D01*
X167519976Y-104342216D01*
X167491405Y-104227930D01*
X167462833Y-104170787D01*
X167434262Y-104142216D01*
X167377119Y-104113644D01*
X166948548Y-104170787D02*
X166919976Y-104142216D01*
X166862833Y-104113644D01*
X166719976Y-104113644D01*
X166662833Y-104142216D01*
X166634262Y-104170787D01*
X166605690Y-104227930D01*
X166605690Y-104285073D01*
X166634262Y-104370787D01*
X166977119Y-104713644D01*
X166605690Y-104713644D01*
X162499976Y-107156501D02*
X162528548Y-107185073D01*
X162614262Y-107213644D01*
X162671405Y-107213644D01*
X162757119Y-107185073D01*
X162814262Y-107127930D01*
X162842833Y-107070787D01*
X162871405Y-106956501D01*
X162871405Y-106870787D01*
X162842833Y-106756501D01*
X162814262Y-106699358D01*
X162757119Y-106642216D01*
X162671405Y-106613644D01*
X162614262Y-106613644D01*
X162528548Y-106642216D01*
X162499976Y-106670787D01*
X162271405Y-106670787D02*
X162242833Y-106642216D01*
X162185690Y-106613644D01*
X162042833Y-106613644D01*
X161985690Y-106642216D01*
X161957119Y-106670787D01*
X161928548Y-106727930D01*
X161928548Y-106785073D01*
X161957119Y-106870787D01*
X162299976Y-107213644D01*
X161928548Y-107213644D01*
X161557119Y-106613644D02*
X161499976Y-106613644D01*
X161442833Y-106642216D01*
X161414262Y-106670787D01*
X161385690Y-106727930D01*
X161357119Y-106842216D01*
X161357119Y-106985073D01*
X161385690Y-107099358D01*
X161414262Y-107156501D01*
X161442833Y-107185073D01*
X161499976Y-107213644D01*
X161557119Y-107213644D01*
X161614262Y-107185073D01*
X161642833Y-107156501D01*
X161671405Y-107099358D01*
X161699976Y-106985073D01*
X161699976Y-106842216D01*
X161671405Y-106727930D01*
X161642833Y-106670787D01*
X161614262Y-106642216D01*
X161557119Y-106613644D01*
X161157119Y-106613644D02*
X160785690Y-106613644D01*
X160985690Y-106842216D01*
X160899976Y-106842216D01*
X160842833Y-106870787D01*
X160814262Y-106899358D01*
X160785690Y-106956501D01*
X160785690Y-107099358D01*
X160814262Y-107156501D01*
X160842833Y-107185073D01*
X160899976Y-107213644D01*
X161071405Y-107213644D01*
X161128548Y-107185073D01*
X161157119Y-107156501D01*
X155564285Y-97528571D02*
X155592857Y-97500000D01*
X155621428Y-97414285D01*
X155621428Y-97357142D01*
X155592857Y-97271428D01*
X155535714Y-97214285D01*
X155478571Y-97185714D01*
X155364285Y-97157142D01*
X155278571Y-97157142D01*
X155164285Y-97185714D01*
X155107142Y-97214285D01*
X155050000Y-97271428D01*
X155021428Y-97357142D01*
X155021428Y-97414285D01*
X155050000Y-97500000D01*
X155078571Y-97528571D01*
X155078571Y-97757142D02*
X155050000Y-97785714D01*
X155021428Y-97842857D01*
X155021428Y-97985714D01*
X155050000Y-98042857D01*
X155078571Y-98071428D01*
X155135714Y-98100000D01*
X155192857Y-98100000D01*
X155278571Y-98071428D01*
X155621428Y-97728571D01*
X155621428Y-98100000D01*
X155021428Y-98471428D02*
X155021428Y-98528571D01*
X155050000Y-98585714D01*
X155078571Y-98614285D01*
X155135714Y-98642857D01*
X155250000Y-98671428D01*
X155392857Y-98671428D01*
X155507142Y-98642857D01*
X155564285Y-98614285D01*
X155592857Y-98585714D01*
X155621428Y-98528571D01*
X155621428Y-98471428D01*
X155592857Y-98414285D01*
X155564285Y-98385714D01*
X155507142Y-98357142D01*
X155392857Y-98328571D01*
X155250000Y-98328571D01*
X155135714Y-98357142D01*
X155078571Y-98385714D01*
X155050000Y-98414285D01*
X155021428Y-98471428D01*
X155221428Y-99185714D02*
X155621428Y-99185714D01*
X154992857Y-99042857D02*
X155421428Y-98900000D01*
X155421428Y-99271428D01*
X203239285Y-97228571D02*
X203267857Y-97200000D01*
X203296428Y-97114285D01*
X203296428Y-97057142D01*
X203267857Y-96971428D01*
X203210714Y-96914285D01*
X203153571Y-96885714D01*
X203039285Y-96857142D01*
X202953571Y-96857142D01*
X202839285Y-96885714D01*
X202782142Y-96914285D01*
X202725000Y-96971428D01*
X202696428Y-97057142D01*
X202696428Y-97114285D01*
X202725000Y-97200000D01*
X202753571Y-97228571D01*
X203296428Y-97800000D02*
X203296428Y-97457142D01*
X203296428Y-97628571D02*
X202696428Y-97628571D01*
X202782142Y-97571428D01*
X202839285Y-97514285D01*
X202867857Y-97457142D01*
X203296428Y-98371428D02*
X203296428Y-98028571D01*
X203296428Y-98200000D02*
X202696428Y-98200000D01*
X202782142Y-98142857D01*
X202839285Y-98085714D01*
X202867857Y-98028571D01*
X202696428Y-98885714D02*
X202696428Y-98771428D01*
X202725000Y-98714285D01*
X202753571Y-98685714D01*
X202839285Y-98628571D01*
X202953571Y-98600000D01*
X203182142Y-98600000D01*
X203239285Y-98628571D01*
X203267857Y-98657142D01*
X203296428Y-98714285D01*
X203296428Y-98828571D01*
X203267857Y-98885714D01*
X203239285Y-98914285D01*
X203182142Y-98942857D01*
X203039285Y-98942857D01*
X202982142Y-98914285D01*
X202953571Y-98885714D01*
X202925000Y-98828571D01*
X202925000Y-98714285D01*
X202953571Y-98657142D01*
X202982142Y-98628571D01*
X203039285Y-98600000D01*
X166712833Y-97260787D02*
X166741405Y-97232216D01*
X166769976Y-97146501D01*
X166769976Y-97089358D01*
X166741405Y-97003644D01*
X166684262Y-96946501D01*
X166627119Y-96917930D01*
X166512833Y-96889358D01*
X166427119Y-96889358D01*
X166312833Y-96917930D01*
X166255690Y-96946501D01*
X166198548Y-97003644D01*
X166169976Y-97089358D01*
X166169976Y-97146501D01*
X166198548Y-97232216D01*
X166227119Y-97260787D01*
X166769976Y-97832216D02*
X166769976Y-97489358D01*
X166769976Y-97660787D02*
X166169976Y-97660787D01*
X166255690Y-97603644D01*
X166312833Y-97546501D01*
X166341405Y-97489358D01*
X166769976Y-98117930D02*
X166769976Y-98232216D01*
X166741405Y-98289358D01*
X166712833Y-98317930D01*
X166627119Y-98375073D01*
X166512833Y-98403644D01*
X166284262Y-98403644D01*
X166227119Y-98375073D01*
X166198548Y-98346501D01*
X166169976Y-98289358D01*
X166169976Y-98175073D01*
X166198548Y-98117930D01*
X166227119Y-98089358D01*
X166284262Y-98060787D01*
X166427119Y-98060787D01*
X166484262Y-98089358D01*
X166512833Y-98117930D01*
X166541405Y-98175073D01*
X166541405Y-98289358D01*
X166512833Y-98346501D01*
X166484262Y-98375073D01*
X166427119Y-98403644D01*
X166169976Y-98603644D02*
X166169976Y-99003644D01*
X166769976Y-98746501D01*
X162321428Y-106064285D02*
X162350000Y-106092857D01*
X162435714Y-106121428D01*
X162492857Y-106121428D01*
X162578571Y-106092857D01*
X162635714Y-106035714D01*
X162664285Y-105978571D01*
X162692857Y-105864285D01*
X162692857Y-105778571D01*
X162664285Y-105664285D01*
X162635714Y-105607142D01*
X162578571Y-105550000D01*
X162492857Y-105521428D01*
X162435714Y-105521428D01*
X162350000Y-105550000D01*
X162321428Y-105578571D01*
X162092857Y-105578571D02*
X162064285Y-105550000D01*
X162007142Y-105521428D01*
X161864285Y-105521428D01*
X161807142Y-105550000D01*
X161778571Y-105578571D01*
X161750000Y-105635714D01*
X161750000Y-105692857D01*
X161778571Y-105778571D01*
X162121428Y-106121428D01*
X161750000Y-106121428D01*
X161207142Y-105521428D02*
X161492857Y-105521428D01*
X161521428Y-105807142D01*
X161492857Y-105778571D01*
X161435714Y-105750000D01*
X161292857Y-105750000D01*
X161235714Y-105778571D01*
X161207142Y-105807142D01*
X161178571Y-105864285D01*
X161178571Y-106007142D01*
X161207142Y-106064285D01*
X161235714Y-106092857D01*
X161292857Y-106121428D01*
X161435714Y-106121428D01*
X161492857Y-106092857D01*
X161521428Y-106064285D01*
X160807142Y-105521428D02*
X160750000Y-105521428D01*
X160692857Y-105550000D01*
X160664285Y-105578571D01*
X160635714Y-105635714D01*
X160607142Y-105750000D01*
X160607142Y-105892857D01*
X160635714Y-106007142D01*
X160664285Y-106064285D01*
X160692857Y-106092857D01*
X160750000Y-106121428D01*
X160807142Y-106121428D01*
X160864285Y-106092857D01*
X160892857Y-106064285D01*
X160921428Y-106007142D01*
X160950000Y-105892857D01*
X160950000Y-105750000D01*
X160921428Y-105635714D01*
X160892857Y-105578571D01*
X160864285Y-105550000D01*
X160807142Y-105521428D01*
X166221428Y-109389285D02*
X166250000Y-109417857D01*
X166335714Y-109446428D01*
X166392857Y-109446428D01*
X166478571Y-109417857D01*
X166535714Y-109360714D01*
X166564285Y-109303571D01*
X166592857Y-109189285D01*
X166592857Y-109103571D01*
X166564285Y-108989285D01*
X166535714Y-108932142D01*
X166478571Y-108875000D01*
X166392857Y-108846428D01*
X166335714Y-108846428D01*
X166250000Y-108875000D01*
X166221428Y-108903571D01*
X165992857Y-108903571D02*
X165964285Y-108875000D01*
X165907142Y-108846428D01*
X165764285Y-108846428D01*
X165707142Y-108875000D01*
X165678571Y-108903571D01*
X165650000Y-108960714D01*
X165650000Y-109017857D01*
X165678571Y-109103571D01*
X166021428Y-109446428D01*
X165650000Y-109446428D01*
X165107142Y-108846428D02*
X165392857Y-108846428D01*
X165421428Y-109132142D01*
X165392857Y-109103571D01*
X165335714Y-109075000D01*
X165192857Y-109075000D01*
X165135714Y-109103571D01*
X165107142Y-109132142D01*
X165078571Y-109189285D01*
X165078571Y-109332142D01*
X165107142Y-109389285D01*
X165135714Y-109417857D01*
X165192857Y-109446428D01*
X165335714Y-109446428D01*
X165392857Y-109417857D01*
X165421428Y-109389285D01*
X164507142Y-109446428D02*
X164850000Y-109446428D01*
X164678571Y-109446428D02*
X164678571Y-108846428D01*
X164735714Y-108932142D01*
X164792857Y-108989285D01*
X164850000Y-109017857D01*
X135871428Y-123714285D02*
X135900000Y-123742857D01*
X135985714Y-123771428D01*
X136042857Y-123771428D01*
X136128571Y-123742857D01*
X136185714Y-123685714D01*
X136214285Y-123628571D01*
X136242857Y-123514285D01*
X136242857Y-123428571D01*
X136214285Y-123314285D01*
X136185714Y-123257142D01*
X136128571Y-123200000D01*
X136042857Y-123171428D01*
X135985714Y-123171428D01*
X135900000Y-123200000D01*
X135871428Y-123228571D01*
X135642857Y-123228571D02*
X135614285Y-123200000D01*
X135557142Y-123171428D01*
X135414285Y-123171428D01*
X135357142Y-123200000D01*
X135328571Y-123228571D01*
X135300000Y-123285714D01*
X135300000Y-123342857D01*
X135328571Y-123428571D01*
X135671428Y-123771428D01*
X135300000Y-123771428D01*
X134728571Y-123771428D02*
X135071428Y-123771428D01*
X134900000Y-123771428D02*
X134900000Y-123171428D01*
X134957142Y-123257142D01*
X135014285Y-123314285D01*
X135071428Y-123342857D01*
X134357142Y-123171428D02*
X134300000Y-123171428D01*
X134242857Y-123200000D01*
X134214285Y-123228571D01*
X134185714Y-123285714D01*
X134157142Y-123400000D01*
X134157142Y-123542857D01*
X134185714Y-123657142D01*
X134214285Y-123714285D01*
X134242857Y-123742857D01*
X134300000Y-123771428D01*
X134357142Y-123771428D01*
X134414285Y-123742857D01*
X134442857Y-123714285D01*
X134471428Y-123657142D01*
X134500000Y-123542857D01*
X134500000Y-123400000D01*
X134471428Y-123285714D01*
X134442857Y-123228571D01*
X134414285Y-123200000D01*
X134357142Y-123171428D01*
X185260714Y-106164285D02*
X185289285Y-106192857D01*
X185375000Y-106221428D01*
X185432142Y-106221428D01*
X185517857Y-106192857D01*
X185575000Y-106135714D01*
X185603571Y-106078571D01*
X185632142Y-105964285D01*
X185632142Y-105878571D01*
X185603571Y-105764285D01*
X185575000Y-105707142D01*
X185517857Y-105650000D01*
X185432142Y-105621428D01*
X185375000Y-105621428D01*
X185289285Y-105650000D01*
X185260714Y-105678571D01*
X185060714Y-105621428D02*
X184689285Y-105621428D01*
X184889285Y-105850000D01*
X184803571Y-105850000D01*
X184746428Y-105878571D01*
X184717857Y-105907142D01*
X184689285Y-105964285D01*
X184689285Y-106107142D01*
X184717857Y-106164285D01*
X184746428Y-106192857D01*
X184803571Y-106221428D01*
X184975000Y-106221428D01*
X185032142Y-106192857D01*
X185060714Y-106164285D01*
X184117857Y-106221428D02*
X184460714Y-106221428D01*
X184289285Y-106221428D02*
X184289285Y-105621428D01*
X184346428Y-105707142D01*
X184403571Y-105764285D01*
X184460714Y-105792857D01*
X180989285Y-110534285D02*
X181017857Y-110505714D01*
X181046428Y-110420000D01*
X181046428Y-110362857D01*
X181017857Y-110277142D01*
X180960714Y-110220000D01*
X180903571Y-110191428D01*
X180789285Y-110162857D01*
X180703571Y-110162857D01*
X180589285Y-110191428D01*
X180532142Y-110220000D01*
X180475000Y-110277142D01*
X180446428Y-110362857D01*
X180446428Y-110420000D01*
X180475000Y-110505714D01*
X180503571Y-110534285D01*
X181046428Y-111105714D02*
X181046428Y-110762857D01*
X181046428Y-110934285D02*
X180446428Y-110934285D01*
X180532142Y-110877142D01*
X180589285Y-110820000D01*
X180617857Y-110762857D01*
X181046428Y-111391428D02*
X181046428Y-111505714D01*
X181017857Y-111562857D01*
X180989285Y-111591428D01*
X180903571Y-111648571D01*
X180789285Y-111677142D01*
X180560714Y-111677142D01*
X180503571Y-111648571D01*
X180475000Y-111620000D01*
X180446428Y-111562857D01*
X180446428Y-111448571D01*
X180475000Y-111391428D01*
X180503571Y-111362857D01*
X180560714Y-111334285D01*
X180703571Y-111334285D01*
X180760714Y-111362857D01*
X180789285Y-111391428D01*
X180817857Y-111448571D01*
X180817857Y-111562857D01*
X180789285Y-111620000D01*
X180760714Y-111648571D01*
X180703571Y-111677142D01*
X127532142Y-110264285D02*
X127532142Y-110064285D01*
X127846428Y-110064285D02*
X127246428Y-110064285D01*
X127246428Y-110350000D01*
X127532142Y-110778571D02*
X127560714Y-110864285D01*
X127589285Y-110892857D01*
X127646428Y-110921428D01*
X127732142Y-110921428D01*
X127789285Y-110892857D01*
X127817857Y-110864285D01*
X127846428Y-110807142D01*
X127846428Y-110578571D01*
X127246428Y-110578571D01*
X127246428Y-110778571D01*
X127275000Y-110835714D01*
X127303571Y-110864285D01*
X127360714Y-110892857D01*
X127417857Y-110892857D01*
X127475000Y-110864285D01*
X127503571Y-110835714D01*
X127532142Y-110778571D01*
X127532142Y-110578571D01*
X127846428Y-111492857D02*
X127846428Y-111150000D01*
X127846428Y-111321428D02*
X127246428Y-111321428D01*
X127332142Y-111264285D01*
X127389285Y-111207142D01*
X127417857Y-111150000D01*
X127303571Y-111721428D02*
X127275000Y-111750000D01*
X127246428Y-111807142D01*
X127246428Y-111950000D01*
X127275000Y-112007142D01*
X127303571Y-112035714D01*
X127360714Y-112064285D01*
X127417857Y-112064285D01*
X127503571Y-112035714D01*
X127846428Y-111692857D01*
X127846428Y-112064285D01*
X182219285Y-110534285D02*
X182247857Y-110505714D01*
X182276428Y-110420000D01*
X182276428Y-110362857D01*
X182247857Y-110277142D01*
X182190714Y-110220000D01*
X182133571Y-110191428D01*
X182019285Y-110162857D01*
X181933571Y-110162857D01*
X181819285Y-110191428D01*
X181762142Y-110220000D01*
X181705000Y-110277142D01*
X181676428Y-110362857D01*
X181676428Y-110420000D01*
X181705000Y-110505714D01*
X181733571Y-110534285D01*
X181733571Y-110762857D02*
X181705000Y-110791428D01*
X181676428Y-110848571D01*
X181676428Y-110991428D01*
X181705000Y-111048571D01*
X181733571Y-111077142D01*
X181790714Y-111105714D01*
X181847857Y-111105714D01*
X181933571Y-111077142D01*
X182276428Y-110734285D01*
X182276428Y-111105714D01*
X181676428Y-111477142D02*
X181676428Y-111534285D01*
X181705000Y-111591428D01*
X181733571Y-111620000D01*
X181790714Y-111648571D01*
X181905000Y-111677142D01*
X182047857Y-111677142D01*
X182162142Y-111648571D01*
X182219285Y-111620000D01*
X182247857Y-111591428D01*
X182276428Y-111534285D01*
X182276428Y-111477142D01*
X182247857Y-111420000D01*
X182219285Y-111391428D01*
X182162142Y-111362857D01*
X182047857Y-111334285D01*
X181905000Y-111334285D01*
X181790714Y-111362857D01*
X181733571Y-111391428D01*
X181705000Y-111420000D01*
X181676428Y-111477142D01*
X172854821Y-107404265D02*
X172883393Y-107375694D01*
X172911964Y-107289979D01*
X172911964Y-107232836D01*
X172883393Y-107147122D01*
X172826250Y-107089979D01*
X172769107Y-107061408D01*
X172654821Y-107032836D01*
X172569107Y-107032836D01*
X172454821Y-107061408D01*
X172397678Y-107089979D01*
X172340536Y-107147122D01*
X172311964Y-107232836D01*
X172311964Y-107289979D01*
X172340536Y-107375694D01*
X172369107Y-107404265D01*
X172369107Y-107632836D02*
X172340536Y-107661408D01*
X172311964Y-107718551D01*
X172311964Y-107861408D01*
X172340536Y-107918551D01*
X172369107Y-107947122D01*
X172426250Y-107975694D01*
X172483393Y-107975694D01*
X172569107Y-107947122D01*
X172911964Y-107604265D01*
X172911964Y-107975694D01*
X172369107Y-108204265D02*
X172340536Y-108232836D01*
X172311964Y-108289979D01*
X172311964Y-108432836D01*
X172340536Y-108489979D01*
X172369107Y-108518551D01*
X172426250Y-108547122D01*
X172483393Y-108547122D01*
X172569107Y-108518551D01*
X172911964Y-108175694D01*
X172911964Y-108547122D01*
X172369107Y-108775694D02*
X172340536Y-108804265D01*
X172311964Y-108861408D01*
X172311964Y-109004265D01*
X172340536Y-109061408D01*
X172369107Y-109089979D01*
X172426250Y-109118551D01*
X172483393Y-109118551D01*
X172569107Y-109089979D01*
X172911964Y-108747122D01*
X172911964Y-109118551D01*
X177989285Y-110688571D02*
X178017857Y-110660000D01*
X178046428Y-110574285D01*
X178046428Y-110517142D01*
X178017857Y-110431428D01*
X177960714Y-110374285D01*
X177903571Y-110345714D01*
X177789285Y-110317142D01*
X177703571Y-110317142D01*
X177589285Y-110345714D01*
X177532142Y-110374285D01*
X177475000Y-110431428D01*
X177446428Y-110517142D01*
X177446428Y-110574285D01*
X177475000Y-110660000D01*
X177503571Y-110688571D01*
X177503571Y-110917142D02*
X177475000Y-110945714D01*
X177446428Y-111002857D01*
X177446428Y-111145714D01*
X177475000Y-111202857D01*
X177503571Y-111231428D01*
X177560714Y-111260000D01*
X177617857Y-111260000D01*
X177703571Y-111231428D01*
X178046428Y-110888571D01*
X178046428Y-111260000D01*
X178046428Y-111831428D02*
X178046428Y-111488571D01*
X178046428Y-111660000D02*
X177446428Y-111660000D01*
X177532142Y-111602857D01*
X177589285Y-111545714D01*
X177617857Y-111488571D01*
X177703571Y-112174285D02*
X177675000Y-112117142D01*
X177646428Y-112088571D01*
X177589285Y-112060000D01*
X177560714Y-112060000D01*
X177503571Y-112088571D01*
X177475000Y-112117142D01*
X177446428Y-112174285D01*
X177446428Y-112288571D01*
X177475000Y-112345714D01*
X177503571Y-112374285D01*
X177560714Y-112402857D01*
X177589285Y-112402857D01*
X177646428Y-112374285D01*
X177675000Y-112345714D01*
X177703571Y-112288571D01*
X177703571Y-112174285D01*
X177732142Y-112117142D01*
X177760714Y-112088571D01*
X177817857Y-112060000D01*
X177932142Y-112060000D01*
X177989285Y-112088571D01*
X178017857Y-112117142D01*
X178046428Y-112174285D01*
X178046428Y-112288571D01*
X178017857Y-112345714D01*
X177989285Y-112374285D01*
X177932142Y-112402857D01*
X177817857Y-112402857D01*
X177760714Y-112374285D01*
X177732142Y-112345714D01*
X177703571Y-112288571D01*
X176589285Y-110708571D02*
X176617857Y-110680000D01*
X176646428Y-110594285D01*
X176646428Y-110537142D01*
X176617857Y-110451428D01*
X176560714Y-110394285D01*
X176503571Y-110365714D01*
X176389285Y-110337142D01*
X176303571Y-110337142D01*
X176189285Y-110365714D01*
X176132142Y-110394285D01*
X176075000Y-110451428D01*
X176046428Y-110537142D01*
X176046428Y-110594285D01*
X176075000Y-110680000D01*
X176103571Y-110708571D01*
X176103571Y-110937142D02*
X176075000Y-110965714D01*
X176046428Y-111022857D01*
X176046428Y-111165714D01*
X176075000Y-111222857D01*
X176103571Y-111251428D01*
X176160714Y-111280000D01*
X176217857Y-111280000D01*
X176303571Y-111251428D01*
X176646428Y-110908571D01*
X176646428Y-111280000D01*
X176646428Y-111851428D02*
X176646428Y-111508571D01*
X176646428Y-111680000D02*
X176046428Y-111680000D01*
X176132142Y-111622857D01*
X176189285Y-111565714D01*
X176217857Y-111508571D01*
X176046428Y-112051428D02*
X176046428Y-112451428D01*
X176646428Y-112194285D01*
X176671428Y-107539285D02*
X176700000Y-107567857D01*
X176785714Y-107596428D01*
X176842857Y-107596428D01*
X176928571Y-107567857D01*
X176985714Y-107510714D01*
X177014285Y-107453571D01*
X177042857Y-107339285D01*
X177042857Y-107253571D01*
X177014285Y-107139285D01*
X176985714Y-107082142D01*
X176928571Y-107025000D01*
X176842857Y-106996428D01*
X176785714Y-106996428D01*
X176700000Y-107025000D01*
X176671428Y-107053571D01*
X176442857Y-107053571D02*
X176414285Y-107025000D01*
X176357142Y-106996428D01*
X176214285Y-106996428D01*
X176157142Y-107025000D01*
X176128571Y-107053571D01*
X176100000Y-107110714D01*
X176100000Y-107167857D01*
X176128571Y-107253571D01*
X176471428Y-107596428D01*
X176100000Y-107596428D01*
X175528571Y-107596428D02*
X175871428Y-107596428D01*
X175700000Y-107596428D02*
X175700000Y-106996428D01*
X175757142Y-107082142D01*
X175814285Y-107139285D01*
X175871428Y-107167857D01*
X175014285Y-106996428D02*
X175128571Y-106996428D01*
X175185714Y-107025000D01*
X175214285Y-107053571D01*
X175271428Y-107139285D01*
X175300000Y-107253571D01*
X175300000Y-107482142D01*
X175271428Y-107539285D01*
X175242857Y-107567857D01*
X175185714Y-107596428D01*
X175071428Y-107596428D01*
X175014285Y-107567857D01*
X174985714Y-107539285D01*
X174957142Y-107482142D01*
X174957142Y-107339285D01*
X174985714Y-107282142D01*
X175014285Y-107253571D01*
X175071428Y-107225000D01*
X175185714Y-107225000D01*
X175242857Y-107253571D01*
X175271428Y-107282142D01*
X175300000Y-107339285D01*
X159639285Y-93178571D02*
X159667857Y-93150000D01*
X159696428Y-93064285D01*
X159696428Y-93007142D01*
X159667857Y-92921428D01*
X159610714Y-92864285D01*
X159553571Y-92835714D01*
X159439285Y-92807142D01*
X159353571Y-92807142D01*
X159239285Y-92835714D01*
X159182142Y-92864285D01*
X159125000Y-92921428D01*
X159096428Y-93007142D01*
X159096428Y-93064285D01*
X159125000Y-93150000D01*
X159153571Y-93178571D01*
X159696428Y-93750000D02*
X159696428Y-93407142D01*
X159696428Y-93578571D02*
X159096428Y-93578571D01*
X159182142Y-93521428D01*
X159239285Y-93464285D01*
X159267857Y-93407142D01*
X159353571Y-94092857D02*
X159325000Y-94035714D01*
X159296428Y-94007142D01*
X159239285Y-93978571D01*
X159210714Y-93978571D01*
X159153571Y-94007142D01*
X159125000Y-94035714D01*
X159096428Y-94092857D01*
X159096428Y-94207142D01*
X159125000Y-94264285D01*
X159153571Y-94292857D01*
X159210714Y-94321428D01*
X159239285Y-94321428D01*
X159296428Y-94292857D01*
X159325000Y-94264285D01*
X159353571Y-94207142D01*
X159353571Y-94092857D01*
X159382142Y-94035714D01*
X159410714Y-94007142D01*
X159467857Y-93978571D01*
X159582142Y-93978571D01*
X159639285Y-94007142D01*
X159667857Y-94035714D01*
X159696428Y-94092857D01*
X159696428Y-94207142D01*
X159667857Y-94264285D01*
X159639285Y-94292857D01*
X159582142Y-94321428D01*
X159467857Y-94321428D01*
X159410714Y-94292857D01*
X159382142Y-94264285D01*
X159353571Y-94207142D01*
X159353571Y-94664285D02*
X159325000Y-94607142D01*
X159296428Y-94578571D01*
X159239285Y-94550000D01*
X159210714Y-94550000D01*
X159153571Y-94578571D01*
X159125000Y-94607142D01*
X159096428Y-94664285D01*
X159096428Y-94778571D01*
X159125000Y-94835714D01*
X159153571Y-94864285D01*
X159210714Y-94892857D01*
X159239285Y-94892857D01*
X159296428Y-94864285D01*
X159325000Y-94835714D01*
X159353571Y-94778571D01*
X159353571Y-94664285D01*
X159382142Y-94607142D01*
X159410714Y-94578571D01*
X159467857Y-94550000D01*
X159582142Y-94550000D01*
X159639285Y-94578571D01*
X159667857Y-94607142D01*
X159696428Y-94664285D01*
X159696428Y-94778571D01*
X159667857Y-94835714D01*
X159639285Y-94864285D01*
X159582142Y-94892857D01*
X159467857Y-94892857D01*
X159410714Y-94864285D01*
X159382142Y-94835714D01*
X159353571Y-94778571D01*
X131229285Y-89954285D02*
X131257857Y-89925714D01*
X131286428Y-89840000D01*
X131286428Y-89782857D01*
X131257857Y-89697142D01*
X131200714Y-89640000D01*
X131143571Y-89611428D01*
X131029285Y-89582857D01*
X130943571Y-89582857D01*
X130829285Y-89611428D01*
X130772142Y-89640000D01*
X130715000Y-89697142D01*
X130686428Y-89782857D01*
X130686428Y-89840000D01*
X130715000Y-89925714D01*
X130743571Y-89954285D01*
X130686428Y-90154285D02*
X130686428Y-90554285D01*
X131286428Y-90297142D01*
X130743571Y-90754285D02*
X130715000Y-90782857D01*
X130686428Y-90840000D01*
X130686428Y-90982857D01*
X130715000Y-91040000D01*
X130743571Y-91068571D01*
X130800714Y-91097142D01*
X130857857Y-91097142D01*
X130943571Y-91068571D01*
X131286428Y-90725714D01*
X131286428Y-91097142D01*
X129282142Y-85364285D02*
X129282142Y-85164285D01*
X129596428Y-85164285D02*
X128996428Y-85164285D01*
X128996428Y-85450000D01*
X129282142Y-85878571D02*
X129310714Y-85964285D01*
X129339285Y-85992857D01*
X129396428Y-86021428D01*
X129482142Y-86021428D01*
X129539285Y-85992857D01*
X129567857Y-85964285D01*
X129596428Y-85907142D01*
X129596428Y-85678571D01*
X128996428Y-85678571D01*
X128996428Y-85878571D01*
X129025000Y-85935714D01*
X129053571Y-85964285D01*
X129110714Y-85992857D01*
X129167857Y-85992857D01*
X129225000Y-85964285D01*
X129253571Y-85935714D01*
X129282142Y-85878571D01*
X129282142Y-85678571D01*
X129596428Y-86592857D02*
X129596428Y-86250000D01*
X129596428Y-86421428D02*
X128996428Y-86421428D01*
X129082142Y-86364285D01*
X129139285Y-86307142D01*
X129167857Y-86250000D01*
X129596428Y-87164285D02*
X129596428Y-86821428D01*
X129596428Y-86992857D02*
X128996428Y-86992857D01*
X129082142Y-86935714D01*
X129139285Y-86878571D01*
X129167857Y-86821428D01*
X128929285Y-89954285D02*
X128957857Y-89925714D01*
X128986428Y-89840000D01*
X128986428Y-89782857D01*
X128957857Y-89697142D01*
X128900714Y-89640000D01*
X128843571Y-89611428D01*
X128729285Y-89582857D01*
X128643571Y-89582857D01*
X128529285Y-89611428D01*
X128472142Y-89640000D01*
X128415000Y-89697142D01*
X128386428Y-89782857D01*
X128386428Y-89840000D01*
X128415000Y-89925714D01*
X128443571Y-89954285D01*
X128386428Y-90154285D02*
X128386428Y-90554285D01*
X128986428Y-90297142D01*
X128386428Y-90897142D02*
X128386428Y-90954285D01*
X128415000Y-91011428D01*
X128443571Y-91040000D01*
X128500714Y-91068571D01*
X128615000Y-91097142D01*
X128757857Y-91097142D01*
X128872142Y-91068571D01*
X128929285Y-91040000D01*
X128957857Y-91011428D01*
X128986428Y-90954285D01*
X128986428Y-90897142D01*
X128957857Y-90840000D01*
X128929285Y-90811428D01*
X128872142Y-90782857D01*
X128757857Y-90754285D01*
X128615000Y-90754285D01*
X128500714Y-90782857D01*
X128443571Y-90811428D01*
X128415000Y-90840000D01*
X128386428Y-90897142D01*
X130029285Y-89954285D02*
X130057857Y-89925714D01*
X130086428Y-89840000D01*
X130086428Y-89782857D01*
X130057857Y-89697142D01*
X130000714Y-89640000D01*
X129943571Y-89611428D01*
X129829285Y-89582857D01*
X129743571Y-89582857D01*
X129629285Y-89611428D01*
X129572142Y-89640000D01*
X129515000Y-89697142D01*
X129486428Y-89782857D01*
X129486428Y-89840000D01*
X129515000Y-89925714D01*
X129543571Y-89954285D01*
X129486428Y-90154285D02*
X129486428Y-90554285D01*
X130086428Y-90297142D01*
X130086428Y-91097142D02*
X130086428Y-90754285D01*
X130086428Y-90925714D02*
X129486428Y-90925714D01*
X129572142Y-90868571D01*
X129629285Y-90811428D01*
X129657857Y-90754285D01*
X168251428Y-116369285D02*
X168280000Y-116397857D01*
X168365714Y-116426428D01*
X168422857Y-116426428D01*
X168508571Y-116397857D01*
X168565714Y-116340714D01*
X168594285Y-116283571D01*
X168622857Y-116169285D01*
X168622857Y-116083571D01*
X168594285Y-115969285D01*
X168565714Y-115912142D01*
X168508571Y-115855000D01*
X168422857Y-115826428D01*
X168365714Y-115826428D01*
X168280000Y-115855000D01*
X168251428Y-115883571D01*
X167680000Y-116426428D02*
X168022857Y-116426428D01*
X167851428Y-116426428D02*
X167851428Y-115826428D01*
X167908571Y-115912142D01*
X167965714Y-115969285D01*
X168022857Y-115997857D01*
X167394285Y-116426428D02*
X167280000Y-116426428D01*
X167222857Y-116397857D01*
X167194285Y-116369285D01*
X167137142Y-116283571D01*
X167108571Y-116169285D01*
X167108571Y-115940714D01*
X167137142Y-115883571D01*
X167165714Y-115855000D01*
X167222857Y-115826428D01*
X167337142Y-115826428D01*
X167394285Y-115855000D01*
X167422857Y-115883571D01*
X167451428Y-115940714D01*
X167451428Y-116083571D01*
X167422857Y-116140714D01*
X167394285Y-116169285D01*
X167337142Y-116197857D01*
X167222857Y-116197857D01*
X167165714Y-116169285D01*
X167137142Y-116140714D01*
X167108571Y-116083571D01*
X166594285Y-116026428D02*
X166594285Y-116426428D01*
X166737142Y-115797857D02*
X166880000Y-116226428D01*
X166508571Y-116226428D01*
X157749285Y-114598571D02*
X157777857Y-114570000D01*
X157806428Y-114484285D01*
X157806428Y-114427142D01*
X157777857Y-114341428D01*
X157720714Y-114284285D01*
X157663571Y-114255714D01*
X157549285Y-114227142D01*
X157463571Y-114227142D01*
X157349285Y-114255714D01*
X157292142Y-114284285D01*
X157235000Y-114341428D01*
X157206428Y-114427142D01*
X157206428Y-114484285D01*
X157235000Y-114570000D01*
X157263571Y-114598571D01*
X157806428Y-115170000D02*
X157806428Y-114827142D01*
X157806428Y-114998571D02*
X157206428Y-114998571D01*
X157292142Y-114941428D01*
X157349285Y-114884285D01*
X157377857Y-114827142D01*
X157463571Y-115512857D02*
X157435000Y-115455714D01*
X157406428Y-115427142D01*
X157349285Y-115398571D01*
X157320714Y-115398571D01*
X157263571Y-115427142D01*
X157235000Y-115455714D01*
X157206428Y-115512857D01*
X157206428Y-115627142D01*
X157235000Y-115684285D01*
X157263571Y-115712857D01*
X157320714Y-115741428D01*
X157349285Y-115741428D01*
X157406428Y-115712857D01*
X157435000Y-115684285D01*
X157463571Y-115627142D01*
X157463571Y-115512857D01*
X157492142Y-115455714D01*
X157520714Y-115427142D01*
X157577857Y-115398571D01*
X157692142Y-115398571D01*
X157749285Y-115427142D01*
X157777857Y-115455714D01*
X157806428Y-115512857D01*
X157806428Y-115627142D01*
X157777857Y-115684285D01*
X157749285Y-115712857D01*
X157692142Y-115741428D01*
X157577857Y-115741428D01*
X157520714Y-115712857D01*
X157492142Y-115684285D01*
X157463571Y-115627142D01*
X157206428Y-116255714D02*
X157206428Y-116141428D01*
X157235000Y-116084285D01*
X157263571Y-116055714D01*
X157349285Y-115998571D01*
X157463571Y-115970000D01*
X157692142Y-115970000D01*
X157749285Y-115998571D01*
X157777857Y-116027142D01*
X157806428Y-116084285D01*
X157806428Y-116198571D01*
X157777857Y-116255714D01*
X157749285Y-116284285D01*
X157692142Y-116312857D01*
X157549285Y-116312857D01*
X157492142Y-116284285D01*
X157463571Y-116255714D01*
X157435000Y-116198571D01*
X157435000Y-116084285D01*
X157463571Y-116027142D01*
X157492142Y-115998571D01*
X157549285Y-115970000D01*
X191575000Y-83596428D02*
X191775000Y-83310714D01*
X191917857Y-83596428D02*
X191917857Y-82996428D01*
X191689285Y-82996428D01*
X191632142Y-83025000D01*
X191603571Y-83053571D01*
X191575000Y-83110714D01*
X191575000Y-83196428D01*
X191603571Y-83253571D01*
X191632142Y-83282142D01*
X191689285Y-83310714D01*
X191917857Y-83310714D01*
X191375000Y-82996428D02*
X190975000Y-82996428D01*
X191232142Y-83596428D01*
X168811428Y-92010000D02*
X168525714Y-91810000D01*
X168811428Y-91667142D02*
X168211428Y-91667142D01*
X168211428Y-91895714D01*
X168240000Y-91952857D01*
X168268571Y-91981428D01*
X168325714Y-92010000D01*
X168411428Y-92010000D01*
X168468571Y-91981428D01*
X168497142Y-91952857D01*
X168525714Y-91895714D01*
X168525714Y-91667142D01*
X168468571Y-92352857D02*
X168440000Y-92295714D01*
X168411428Y-92267142D01*
X168354285Y-92238571D01*
X168325714Y-92238571D01*
X168268571Y-92267142D01*
X168240000Y-92295714D01*
X168211428Y-92352857D01*
X168211428Y-92467142D01*
X168240000Y-92524285D01*
X168268571Y-92552857D01*
X168325714Y-92581428D01*
X168354285Y-92581428D01*
X168411428Y-92552857D01*
X168440000Y-92524285D01*
X168468571Y-92467142D01*
X168468571Y-92352857D01*
X168497142Y-92295714D01*
X168525714Y-92267142D01*
X168582857Y-92238571D01*
X168697142Y-92238571D01*
X168754285Y-92267142D01*
X168782857Y-92295714D01*
X168811428Y-92352857D01*
X168811428Y-92467142D01*
X168782857Y-92524285D01*
X168754285Y-92552857D01*
X168697142Y-92581428D01*
X168582857Y-92581428D01*
X168525714Y-92552857D01*
X168497142Y-92524285D01*
X168468571Y-92467142D01*
X165600000Y-91121428D02*
X165800000Y-90835714D01*
X165942857Y-91121428D02*
X165942857Y-90521428D01*
X165714285Y-90521428D01*
X165657142Y-90550000D01*
X165628571Y-90578571D01*
X165600000Y-90635714D01*
X165600000Y-90721428D01*
X165628571Y-90778571D01*
X165657142Y-90807142D01*
X165714285Y-90835714D01*
X165942857Y-90835714D01*
X165400000Y-90521428D02*
X165028571Y-90521428D01*
X165228571Y-90750000D01*
X165142857Y-90750000D01*
X165085714Y-90778571D01*
X165057142Y-90807142D01*
X165028571Y-90864285D01*
X165028571Y-91007142D01*
X165057142Y-91064285D01*
X165085714Y-91092857D01*
X165142857Y-91121428D01*
X165314285Y-91121428D01*
X165371428Y-91092857D01*
X165400000Y-91064285D01*
X202310714Y-85671428D02*
X202510714Y-85385714D01*
X202653571Y-85671428D02*
X202653571Y-85071428D01*
X202425000Y-85071428D01*
X202367857Y-85100000D01*
X202339285Y-85128571D01*
X202310714Y-85185714D01*
X202310714Y-85271428D01*
X202339285Y-85328571D01*
X202367857Y-85357142D01*
X202425000Y-85385714D01*
X202653571Y-85385714D01*
X201739285Y-85671428D02*
X202082142Y-85671428D01*
X201910714Y-85671428D02*
X201910714Y-85071428D01*
X201967857Y-85157142D01*
X202025000Y-85214285D01*
X202082142Y-85242857D01*
X201367857Y-85071428D02*
X201310714Y-85071428D01*
X201253571Y-85100000D01*
X201225000Y-85128571D01*
X201196428Y-85185714D01*
X201167857Y-85300000D01*
X201167857Y-85442857D01*
X201196428Y-85557142D01*
X201225000Y-85614285D01*
X201253571Y-85642857D01*
X201310714Y-85671428D01*
X201367857Y-85671428D01*
X201425000Y-85642857D01*
X201453571Y-85614285D01*
X201482142Y-85557142D01*
X201510714Y-85442857D01*
X201510714Y-85300000D01*
X201482142Y-85185714D01*
X201453571Y-85128571D01*
X201425000Y-85100000D01*
X201367857Y-85071428D01*
X191675000Y-90571428D02*
X191875000Y-90285714D01*
X192017857Y-90571428D02*
X192017857Y-89971428D01*
X191789285Y-89971428D01*
X191732142Y-90000000D01*
X191703571Y-90028571D01*
X191675000Y-90085714D01*
X191675000Y-90171428D01*
X191703571Y-90228571D01*
X191732142Y-90257142D01*
X191789285Y-90285714D01*
X192017857Y-90285714D01*
X191160714Y-89971428D02*
X191275000Y-89971428D01*
X191332142Y-90000000D01*
X191360714Y-90028571D01*
X191417857Y-90114285D01*
X191446428Y-90228571D01*
X191446428Y-90457142D01*
X191417857Y-90514285D01*
X191389285Y-90542857D01*
X191332142Y-90571428D01*
X191217857Y-90571428D01*
X191160714Y-90542857D01*
X191132142Y-90514285D01*
X191103571Y-90457142D01*
X191103571Y-90314285D01*
X191132142Y-90257142D01*
X191160714Y-90228571D01*
X191217857Y-90200000D01*
X191332142Y-90200000D01*
X191389285Y-90228571D01*
X191417857Y-90257142D01*
X191446428Y-90314285D01*
X192001428Y-89780000D02*
X191715714Y-89580000D01*
X192001428Y-89437142D02*
X191401428Y-89437142D01*
X191401428Y-89665714D01*
X191430000Y-89722857D01*
X191458571Y-89751428D01*
X191515714Y-89780000D01*
X191601428Y-89780000D01*
X191658571Y-89751428D01*
X191687142Y-89722857D01*
X191715714Y-89665714D01*
X191715714Y-89437142D01*
X191401428Y-90322857D02*
X191401428Y-90037142D01*
X191687142Y-90008571D01*
X191658571Y-90037142D01*
X191630000Y-90094285D01*
X191630000Y-90237142D01*
X191658571Y-90294285D01*
X191687142Y-90322857D01*
X191744285Y-90351428D01*
X191887142Y-90351428D01*
X191944285Y-90322857D01*
X191972857Y-90294285D01*
X192001428Y-90237142D01*
X192001428Y-90094285D01*
X191972857Y-90037142D01*
X191944285Y-90008571D01*
X155235714Y-88221428D02*
X155435714Y-87935714D01*
X155578571Y-88221428D02*
X155578571Y-87621428D01*
X155350000Y-87621428D01*
X155292857Y-87650000D01*
X155264285Y-87678571D01*
X155235714Y-87735714D01*
X155235714Y-87821428D01*
X155264285Y-87878571D01*
X155292857Y-87907142D01*
X155350000Y-87935714D01*
X155578571Y-87935714D01*
X155035714Y-87621428D02*
X154664285Y-87621428D01*
X154864285Y-87850000D01*
X154778571Y-87850000D01*
X154721428Y-87878571D01*
X154692857Y-87907142D01*
X154664285Y-87964285D01*
X154664285Y-88107142D01*
X154692857Y-88164285D01*
X154721428Y-88192857D01*
X154778571Y-88221428D01*
X154950000Y-88221428D01*
X155007142Y-88192857D01*
X155035714Y-88164285D01*
X154150000Y-87621428D02*
X154264285Y-87621428D01*
X154321428Y-87650000D01*
X154350000Y-87678571D01*
X154407142Y-87764285D01*
X154435714Y-87878571D01*
X154435714Y-88107142D01*
X154407142Y-88164285D01*
X154378571Y-88192857D01*
X154321428Y-88221428D01*
X154207142Y-88221428D01*
X154150000Y-88192857D01*
X154121428Y-88164285D01*
X154092857Y-88107142D01*
X154092857Y-87964285D01*
X154121428Y-87907142D01*
X154150000Y-87878571D01*
X154207142Y-87850000D01*
X154321428Y-87850000D01*
X154378571Y-87878571D01*
X154407142Y-87907142D01*
X154435714Y-87964285D01*
X172360714Y-87271428D02*
X172560714Y-86985714D01*
X172703571Y-87271428D02*
X172703571Y-86671428D01*
X172475000Y-86671428D01*
X172417857Y-86700000D01*
X172389285Y-86728571D01*
X172360714Y-86785714D01*
X172360714Y-86871428D01*
X172389285Y-86928571D01*
X172417857Y-86957142D01*
X172475000Y-86985714D01*
X172703571Y-86985714D01*
X172160714Y-86671428D02*
X171789285Y-86671428D01*
X171989285Y-86900000D01*
X171903571Y-86900000D01*
X171846428Y-86928571D01*
X171817857Y-86957142D01*
X171789285Y-87014285D01*
X171789285Y-87157142D01*
X171817857Y-87214285D01*
X171846428Y-87242857D01*
X171903571Y-87271428D01*
X172075000Y-87271428D01*
X172132142Y-87242857D01*
X172160714Y-87214285D01*
X171246428Y-86671428D02*
X171532142Y-86671428D01*
X171560714Y-86957142D01*
X171532142Y-86928571D01*
X171475000Y-86900000D01*
X171332142Y-86900000D01*
X171275000Y-86928571D01*
X171246428Y-86957142D01*
X171217857Y-87014285D01*
X171217857Y-87157142D01*
X171246428Y-87214285D01*
X171275000Y-87242857D01*
X171332142Y-87271428D01*
X171475000Y-87271428D01*
X171532142Y-87242857D01*
X171560714Y-87214285D01*
X170235714Y-87328226D02*
X170435714Y-87042512D01*
X170578571Y-87328226D02*
X170578571Y-86728226D01*
X170350000Y-86728226D01*
X170292857Y-86756798D01*
X170264285Y-86785369D01*
X170235714Y-86842512D01*
X170235714Y-86928226D01*
X170264285Y-86985369D01*
X170292857Y-87013940D01*
X170350000Y-87042512D01*
X170578571Y-87042512D01*
X170035714Y-86728226D02*
X169664285Y-86728226D01*
X169864285Y-86956798D01*
X169778571Y-86956798D01*
X169721428Y-86985369D01*
X169692857Y-87013940D01*
X169664285Y-87071083D01*
X169664285Y-87213940D01*
X169692857Y-87271083D01*
X169721428Y-87299655D01*
X169778571Y-87328226D01*
X169950000Y-87328226D01*
X170007142Y-87299655D01*
X170035714Y-87271083D01*
X169150000Y-86928226D02*
X169150000Y-87328226D01*
X169292857Y-86699655D02*
X169435714Y-87128226D01*
X169064285Y-87128226D01*
X140705714Y-88498000D02*
X140905714Y-88212286D01*
X141048571Y-88498000D02*
X141048571Y-87898000D01*
X140820000Y-87898000D01*
X140762857Y-87926572D01*
X140734285Y-87955143D01*
X140705714Y-88012286D01*
X140705714Y-88098000D01*
X140734285Y-88155143D01*
X140762857Y-88183714D01*
X140820000Y-88212286D01*
X141048571Y-88212286D01*
X140505714Y-87898000D02*
X140134285Y-87898000D01*
X140334285Y-88126572D01*
X140248571Y-88126572D01*
X140191428Y-88155143D01*
X140162857Y-88183714D01*
X140134285Y-88240857D01*
X140134285Y-88383714D01*
X140162857Y-88440857D01*
X140191428Y-88469429D01*
X140248571Y-88498000D01*
X140420000Y-88498000D01*
X140477142Y-88469429D01*
X140505714Y-88440857D01*
X139934285Y-87898000D02*
X139562857Y-87898000D01*
X139762857Y-88126572D01*
X139677142Y-88126572D01*
X139620000Y-88155143D01*
X139591428Y-88183714D01*
X139562857Y-88240857D01*
X139562857Y-88383714D01*
X139591428Y-88440857D01*
X139620000Y-88469429D01*
X139677142Y-88498000D01*
X139848571Y-88498000D01*
X139905714Y-88469429D01*
X139934285Y-88440857D01*
X138445714Y-88538000D02*
X138645714Y-88252286D01*
X138788571Y-88538000D02*
X138788571Y-87938000D01*
X138560000Y-87938000D01*
X138502857Y-87966572D01*
X138474285Y-87995143D01*
X138445714Y-88052286D01*
X138445714Y-88138000D01*
X138474285Y-88195143D01*
X138502857Y-88223714D01*
X138560000Y-88252286D01*
X138788571Y-88252286D01*
X138245714Y-87938000D02*
X137874285Y-87938000D01*
X138074285Y-88166572D01*
X137988571Y-88166572D01*
X137931428Y-88195143D01*
X137902857Y-88223714D01*
X137874285Y-88280857D01*
X137874285Y-88423714D01*
X137902857Y-88480857D01*
X137931428Y-88509429D01*
X137988571Y-88538000D01*
X138160000Y-88538000D01*
X138217142Y-88509429D01*
X138245714Y-88480857D01*
X137645714Y-87995143D02*
X137617142Y-87966572D01*
X137560000Y-87938000D01*
X137417142Y-87938000D01*
X137360000Y-87966572D01*
X137331428Y-87995143D01*
X137302857Y-88052286D01*
X137302857Y-88109429D01*
X137331428Y-88195143D01*
X137674285Y-88538000D01*
X137302857Y-88538000D01*
X138785714Y-82471428D02*
X138985714Y-82185714D01*
X139128571Y-82471428D02*
X139128571Y-81871428D01*
X138900000Y-81871428D01*
X138842857Y-81900000D01*
X138814285Y-81928571D01*
X138785714Y-81985714D01*
X138785714Y-82071428D01*
X138814285Y-82128571D01*
X138842857Y-82157142D01*
X138900000Y-82185714D01*
X139128571Y-82185714D01*
X138585714Y-81871428D02*
X138214285Y-81871428D01*
X138414285Y-82100000D01*
X138328571Y-82100000D01*
X138271428Y-82128571D01*
X138242857Y-82157142D01*
X138214285Y-82214285D01*
X138214285Y-82357142D01*
X138242857Y-82414285D01*
X138271428Y-82442857D01*
X138328571Y-82471428D01*
X138500000Y-82471428D01*
X138557142Y-82442857D01*
X138585714Y-82414285D01*
X137642857Y-82471428D02*
X137985714Y-82471428D01*
X137814285Y-82471428D02*
X137814285Y-81871428D01*
X137871428Y-81957142D01*
X137928571Y-82014285D01*
X137985714Y-82042857D01*
X158245714Y-88391428D02*
X158445714Y-88105714D01*
X158588571Y-88391428D02*
X158588571Y-87791428D01*
X158360000Y-87791428D01*
X158302857Y-87820000D01*
X158274285Y-87848571D01*
X158245714Y-87905714D01*
X158245714Y-87991428D01*
X158274285Y-88048571D01*
X158302857Y-88077142D01*
X158360000Y-88105714D01*
X158588571Y-88105714D01*
X158045714Y-87791428D02*
X157674285Y-87791428D01*
X157874285Y-88020000D01*
X157788571Y-88020000D01*
X157731428Y-88048571D01*
X157702857Y-88077142D01*
X157674285Y-88134285D01*
X157674285Y-88277142D01*
X157702857Y-88334285D01*
X157731428Y-88362857D01*
X157788571Y-88391428D01*
X157960000Y-88391428D01*
X158017142Y-88362857D01*
X158045714Y-88334285D01*
X157474285Y-87791428D02*
X157074285Y-87791428D01*
X157331428Y-88391428D01*
X200110714Y-87696428D02*
X200310714Y-87410714D01*
X200453571Y-87696428D02*
X200453571Y-87096428D01*
X200225000Y-87096428D01*
X200167857Y-87125000D01*
X200139285Y-87153571D01*
X200110714Y-87210714D01*
X200110714Y-87296428D01*
X200139285Y-87353571D01*
X200167857Y-87382142D01*
X200225000Y-87410714D01*
X200453571Y-87410714D01*
X199539285Y-87696428D02*
X199882142Y-87696428D01*
X199710714Y-87696428D02*
X199710714Y-87096428D01*
X199767857Y-87182142D01*
X199825000Y-87239285D01*
X199882142Y-87267857D01*
X199025000Y-87296428D02*
X199025000Y-87696428D01*
X199167857Y-87067857D02*
X199310714Y-87496428D01*
X198939285Y-87496428D01*
X150496778Y-92478095D02*
X150211064Y-92278095D01*
X150496778Y-92135238D02*
X149896778Y-92135238D01*
X149896778Y-92363810D01*
X149925350Y-92420952D01*
X149953921Y-92449524D01*
X150011064Y-92478095D01*
X150096778Y-92478095D01*
X150153921Y-92449524D01*
X150182492Y-92420952D01*
X150211064Y-92363810D01*
X150211064Y-92135238D01*
X150096778Y-92992381D02*
X150496778Y-92992381D01*
X149868207Y-92849524D02*
X150296778Y-92706667D01*
X150296778Y-93078095D01*
X149896778Y-93563810D02*
X149896778Y-93449524D01*
X149925350Y-93392381D01*
X149953921Y-93363810D01*
X150039635Y-93306667D01*
X150153921Y-93278095D01*
X150382492Y-93278095D01*
X150439635Y-93306667D01*
X150468207Y-93335238D01*
X150496778Y-93392381D01*
X150496778Y-93506667D01*
X150468207Y-93563810D01*
X150439635Y-93592381D01*
X150382492Y-93620952D01*
X150239635Y-93620952D01*
X150182492Y-93592381D01*
X150153921Y-93563810D01*
X150125350Y-93506667D01*
X150125350Y-93392381D01*
X150153921Y-93335238D01*
X150182492Y-93306667D01*
X150239635Y-93278095D01*
X137645714Y-84571428D02*
X137845714Y-84285714D01*
X137988571Y-84571428D02*
X137988571Y-83971428D01*
X137760000Y-83971428D01*
X137702857Y-84000000D01*
X137674285Y-84028571D01*
X137645714Y-84085714D01*
X137645714Y-84171428D01*
X137674285Y-84228571D01*
X137702857Y-84257142D01*
X137760000Y-84285714D01*
X137988571Y-84285714D01*
X137445714Y-83971428D02*
X137074285Y-83971428D01*
X137274285Y-84200000D01*
X137188571Y-84200000D01*
X137131428Y-84228571D01*
X137102857Y-84257142D01*
X137074285Y-84314285D01*
X137074285Y-84457142D01*
X137102857Y-84514285D01*
X137131428Y-84542857D01*
X137188571Y-84571428D01*
X137360000Y-84571428D01*
X137417142Y-84542857D01*
X137445714Y-84514285D01*
X136731428Y-84228571D02*
X136788571Y-84200000D01*
X136817142Y-84171428D01*
X136845714Y-84114285D01*
X136845714Y-84085714D01*
X136817142Y-84028571D01*
X136788571Y-84000000D01*
X136731428Y-83971428D01*
X136617142Y-83971428D01*
X136560000Y-84000000D01*
X136531428Y-84028571D01*
X136502857Y-84085714D01*
X136502857Y-84114285D01*
X136531428Y-84171428D01*
X136560000Y-84200000D01*
X136617142Y-84228571D01*
X136731428Y-84228571D01*
X136788571Y-84257142D01*
X136817142Y-84285714D01*
X136845714Y-84342857D01*
X136845714Y-84457142D01*
X136817142Y-84514285D01*
X136788571Y-84542857D01*
X136731428Y-84571428D01*
X136617142Y-84571428D01*
X136560000Y-84542857D01*
X136531428Y-84514285D01*
X136502857Y-84457142D01*
X136502857Y-84342857D01*
X136531428Y-84285714D01*
X136560000Y-84257142D01*
X136617142Y-84228571D01*
X169035714Y-83396428D02*
X169235714Y-83110714D01*
X169378571Y-83396428D02*
X169378571Y-82796428D01*
X169150000Y-82796428D01*
X169092857Y-82825000D01*
X169064285Y-82853571D01*
X169035714Y-82910714D01*
X169035714Y-82996428D01*
X169064285Y-83053571D01*
X169092857Y-83082142D01*
X169150000Y-83110714D01*
X169378571Y-83110714D01*
X168521428Y-82996428D02*
X168521428Y-83396428D01*
X168664285Y-82767857D02*
X168807142Y-83196428D01*
X168435714Y-83196428D01*
X167892857Y-83396428D02*
X168235714Y-83396428D01*
X168064285Y-83396428D02*
X168064285Y-82796428D01*
X168121428Y-82882142D01*
X168178571Y-82939285D01*
X168235714Y-82967857D01*
X155410714Y-84521428D02*
X155610714Y-84235714D01*
X155753571Y-84521428D02*
X155753571Y-83921428D01*
X155525000Y-83921428D01*
X155467857Y-83950000D01*
X155439285Y-83978571D01*
X155410714Y-84035714D01*
X155410714Y-84121428D01*
X155439285Y-84178571D01*
X155467857Y-84207142D01*
X155525000Y-84235714D01*
X155753571Y-84235714D01*
X154896428Y-84121428D02*
X154896428Y-84521428D01*
X155039285Y-83892857D02*
X155182142Y-84321428D01*
X154810714Y-84321428D01*
X154610714Y-83978571D02*
X154582142Y-83950000D01*
X154525000Y-83921428D01*
X154382142Y-83921428D01*
X154325000Y-83950000D01*
X154296428Y-83978571D01*
X154267857Y-84035714D01*
X154267857Y-84092857D01*
X154296428Y-84178571D01*
X154639285Y-84521428D01*
X154267857Y-84521428D01*
X182904450Y-89435335D02*
X182618736Y-89235335D01*
X182904450Y-89092478D02*
X182304450Y-89092478D01*
X182304450Y-89321050D01*
X182333022Y-89378192D01*
X182361593Y-89406764D01*
X182418736Y-89435335D01*
X182504450Y-89435335D01*
X182561593Y-89406764D01*
X182590164Y-89378192D01*
X182618736Y-89321050D01*
X182618736Y-89092478D01*
X182504450Y-89949621D02*
X182904450Y-89949621D01*
X182275879Y-89806764D02*
X182704450Y-89663907D01*
X182704450Y-90035335D01*
X182304450Y-90206764D02*
X182304450Y-90578192D01*
X182533022Y-90378192D01*
X182533022Y-90463907D01*
X182561593Y-90521050D01*
X182590164Y-90549621D01*
X182647307Y-90578192D01*
X182790164Y-90578192D01*
X182847307Y-90549621D01*
X182875879Y-90521050D01*
X182904450Y-90463907D01*
X182904450Y-90292478D01*
X182875879Y-90235335D01*
X182847307Y-90206764D01*
X180128736Y-87012478D02*
X180328736Y-86726764D01*
X180471593Y-87012478D02*
X180471593Y-86412478D01*
X180243022Y-86412478D01*
X180185879Y-86441050D01*
X180157307Y-86469621D01*
X180128736Y-86526764D01*
X180128736Y-86612478D01*
X180157307Y-86669621D01*
X180185879Y-86698192D01*
X180243022Y-86726764D01*
X180471593Y-86726764D01*
X179614450Y-86612478D02*
X179614450Y-87012478D01*
X179757307Y-86383907D02*
X179900164Y-86812478D01*
X179528736Y-86812478D01*
X179043022Y-86612478D02*
X179043022Y-87012478D01*
X179185879Y-86383907D02*
X179328736Y-86812478D01*
X178957307Y-86812478D01*
X147511064Y-96135238D02*
X147711064Y-95849524D01*
X147853921Y-96135238D02*
X147853921Y-95535238D01*
X147625350Y-95535238D01*
X147568207Y-95563810D01*
X147539635Y-95592381D01*
X147511064Y-95649524D01*
X147511064Y-95735238D01*
X147539635Y-95792381D01*
X147568207Y-95820952D01*
X147625350Y-95849524D01*
X147853921Y-95849524D01*
X146996778Y-95735238D02*
X146996778Y-96135238D01*
X147139635Y-95506667D02*
X147282492Y-95935238D01*
X146911064Y-95935238D01*
X146396778Y-95535238D02*
X146682492Y-95535238D01*
X146711064Y-95820952D01*
X146682492Y-95792381D01*
X146625350Y-95763810D01*
X146482492Y-95763810D01*
X146425350Y-95792381D01*
X146396778Y-95820952D01*
X146368207Y-95878095D01*
X146368207Y-96020952D01*
X146396778Y-96078095D01*
X146425350Y-96106667D01*
X146482492Y-96135238D01*
X146625350Y-96135238D01*
X146682492Y-96106667D01*
X146711064Y-96078095D01*
X187771428Y-79689285D02*
X187485714Y-79489285D01*
X187771428Y-79346428D02*
X187171428Y-79346428D01*
X187171428Y-79575000D01*
X187200000Y-79632142D01*
X187228571Y-79660714D01*
X187285714Y-79689285D01*
X187371428Y-79689285D01*
X187428571Y-79660714D01*
X187457142Y-79632142D01*
X187485714Y-79575000D01*
X187485714Y-79346428D01*
X187371428Y-80203571D02*
X187771428Y-80203571D01*
X187142857Y-80060714D02*
X187571428Y-79917857D01*
X187571428Y-80289285D01*
X187428571Y-80603571D02*
X187400000Y-80546428D01*
X187371428Y-80517857D01*
X187314285Y-80489285D01*
X187285714Y-80489285D01*
X187228571Y-80517857D01*
X187200000Y-80546428D01*
X187171428Y-80603571D01*
X187171428Y-80717857D01*
X187200000Y-80775000D01*
X187228571Y-80803571D01*
X187285714Y-80832142D01*
X187314285Y-80832142D01*
X187371428Y-80803571D01*
X187400000Y-80775000D01*
X187428571Y-80717857D01*
X187428571Y-80603571D01*
X187457142Y-80546428D01*
X187485714Y-80517857D01*
X187542857Y-80489285D01*
X187657142Y-80489285D01*
X187714285Y-80517857D01*
X187742857Y-80546428D01*
X187771428Y-80603571D01*
X187771428Y-80717857D01*
X187742857Y-80775000D01*
X187714285Y-80803571D01*
X187657142Y-80832142D01*
X187542857Y-80832142D01*
X187485714Y-80803571D01*
X187457142Y-80775000D01*
X187428571Y-80717857D01*
X195121428Y-106489285D02*
X194835714Y-106289285D01*
X195121428Y-106146428D02*
X194521428Y-106146428D01*
X194521428Y-106375000D01*
X194550000Y-106432142D01*
X194578571Y-106460714D01*
X194635714Y-106489285D01*
X194721428Y-106489285D01*
X194778571Y-106460714D01*
X194807142Y-106432142D01*
X194835714Y-106375000D01*
X194835714Y-106146428D01*
X194721428Y-107003571D02*
X195121428Y-107003571D01*
X194492857Y-106860714D02*
X194921428Y-106717857D01*
X194921428Y-107089285D01*
X195121428Y-107346428D02*
X195121428Y-107460714D01*
X195092857Y-107517857D01*
X195064285Y-107546428D01*
X194978571Y-107603571D01*
X194864285Y-107632142D01*
X194635714Y-107632142D01*
X194578571Y-107603571D01*
X194550000Y-107575000D01*
X194521428Y-107517857D01*
X194521428Y-107403571D01*
X194550000Y-107346428D01*
X194578571Y-107317857D01*
X194635714Y-107289285D01*
X194778571Y-107289285D01*
X194835714Y-107317857D01*
X194864285Y-107346428D01*
X194892857Y-107403571D01*
X194892857Y-107517857D01*
X194864285Y-107575000D01*
X194835714Y-107603571D01*
X194778571Y-107632142D01*
X193036428Y-106389285D02*
X192750714Y-106189285D01*
X193036428Y-106046428D02*
X192436428Y-106046428D01*
X192436428Y-106275000D01*
X192465000Y-106332142D01*
X192493571Y-106360714D01*
X192550714Y-106389285D01*
X192636428Y-106389285D01*
X192693571Y-106360714D01*
X192722142Y-106332142D01*
X192750714Y-106275000D01*
X192750714Y-106046428D01*
X192436428Y-106932142D02*
X192436428Y-106646428D01*
X192722142Y-106617857D01*
X192693571Y-106646428D01*
X192665000Y-106703571D01*
X192665000Y-106846428D01*
X192693571Y-106903571D01*
X192722142Y-106932142D01*
X192779285Y-106960714D01*
X192922142Y-106960714D01*
X192979285Y-106932142D01*
X193007857Y-106903571D01*
X193036428Y-106846428D01*
X193036428Y-106703571D01*
X193007857Y-106646428D01*
X192979285Y-106617857D01*
X192436428Y-107332142D02*
X192436428Y-107389285D01*
X192465000Y-107446428D01*
X192493571Y-107475000D01*
X192550714Y-107503571D01*
X192665000Y-107532142D01*
X192807857Y-107532142D01*
X192922142Y-107503571D01*
X192979285Y-107475000D01*
X193007857Y-107446428D01*
X193036428Y-107389285D01*
X193036428Y-107332142D01*
X193007857Y-107275000D01*
X192979285Y-107246428D01*
X192922142Y-107217857D01*
X192807857Y-107189285D01*
X192665000Y-107189285D01*
X192550714Y-107217857D01*
X192493571Y-107246428D01*
X192465000Y-107275000D01*
X192436428Y-107332142D01*
X201660000Y-91721428D02*
X201860000Y-91435714D01*
X202002857Y-91721428D02*
X202002857Y-91121428D01*
X201774285Y-91121428D01*
X201717142Y-91150000D01*
X201688571Y-91178571D01*
X201660000Y-91235714D01*
X201660000Y-91321428D01*
X201688571Y-91378571D01*
X201717142Y-91407142D01*
X201774285Y-91435714D01*
X202002857Y-91435714D01*
X201088571Y-91721428D02*
X201431428Y-91721428D01*
X201260000Y-91721428D02*
X201260000Y-91121428D01*
X201317142Y-91207142D01*
X201374285Y-91264285D01*
X201431428Y-91292857D01*
X187771428Y-81739285D02*
X187485714Y-81539285D01*
X187771428Y-81396428D02*
X187171428Y-81396428D01*
X187171428Y-81625000D01*
X187200000Y-81682142D01*
X187228571Y-81710714D01*
X187285714Y-81739285D01*
X187371428Y-81739285D01*
X187428571Y-81710714D01*
X187457142Y-81682142D01*
X187485714Y-81625000D01*
X187485714Y-81396428D01*
X187371428Y-82253571D02*
X187771428Y-82253571D01*
X187142857Y-82110714D02*
X187571428Y-81967857D01*
X187571428Y-82339285D01*
X187171428Y-82510714D02*
X187171428Y-82910714D01*
X187771428Y-82653571D01*
X151096428Y-105321428D02*
X151296428Y-105035714D01*
X151439285Y-105321428D02*
X151439285Y-104721428D01*
X151210714Y-104721428D01*
X151153571Y-104750000D01*
X151125000Y-104778571D01*
X151096428Y-104835714D01*
X151096428Y-104921428D01*
X151125000Y-104978571D01*
X151153571Y-105007142D01*
X151210714Y-105035714D01*
X151439285Y-105035714D01*
X150525000Y-105321428D02*
X150867857Y-105321428D01*
X150696428Y-105321428D02*
X150696428Y-104721428D01*
X150753571Y-104807142D01*
X150810714Y-104864285D01*
X150867857Y-104892857D01*
X149953571Y-105321428D02*
X150296428Y-105321428D01*
X150125000Y-105321428D02*
X150125000Y-104721428D01*
X150182142Y-104807142D01*
X150239285Y-104864285D01*
X150296428Y-104892857D01*
X149382142Y-105321428D02*
X149725000Y-105321428D01*
X149553571Y-105321428D02*
X149553571Y-104721428D01*
X149610714Y-104807142D01*
X149667857Y-104864285D01*
X149725000Y-104892857D01*
X174721428Y-123701428D02*
X174921428Y-123415714D01*
X175064285Y-123701428D02*
X175064285Y-123101428D01*
X174835714Y-123101428D01*
X174778571Y-123130000D01*
X174750000Y-123158571D01*
X174721428Y-123215714D01*
X174721428Y-123301428D01*
X174750000Y-123358571D01*
X174778571Y-123387142D01*
X174835714Y-123415714D01*
X175064285Y-123415714D01*
X174150000Y-123701428D02*
X174492857Y-123701428D01*
X174321428Y-123701428D02*
X174321428Y-123101428D01*
X174378571Y-123187142D01*
X174435714Y-123244285D01*
X174492857Y-123272857D01*
X173578571Y-123701428D02*
X173921428Y-123701428D01*
X173750000Y-123701428D02*
X173750000Y-123101428D01*
X173807142Y-123187142D01*
X173864285Y-123244285D01*
X173921428Y-123272857D01*
X173350000Y-123158571D02*
X173321428Y-123130000D01*
X173264285Y-123101428D01*
X173121428Y-123101428D01*
X173064285Y-123130000D01*
X173035714Y-123158571D01*
X173007142Y-123215714D01*
X173007142Y-123272857D01*
X173035714Y-123358571D01*
X173378571Y-123701428D01*
X173007142Y-123701428D01*
X148996428Y-101853571D02*
X148710714Y-101653571D01*
X148996428Y-101510714D02*
X148396428Y-101510714D01*
X148396428Y-101739285D01*
X148425000Y-101796428D01*
X148453571Y-101825000D01*
X148510714Y-101853571D01*
X148596428Y-101853571D01*
X148653571Y-101825000D01*
X148682142Y-101796428D01*
X148710714Y-101739285D01*
X148710714Y-101510714D01*
X148996428Y-102425000D02*
X148996428Y-102082142D01*
X148996428Y-102253571D02*
X148396428Y-102253571D01*
X148482142Y-102196428D01*
X148539285Y-102139285D01*
X148567857Y-102082142D01*
X148996428Y-102996428D02*
X148996428Y-102653571D01*
X148996428Y-102825000D02*
X148396428Y-102825000D01*
X148482142Y-102767857D01*
X148539285Y-102710714D01*
X148567857Y-102653571D01*
X148596428Y-103510714D02*
X148996428Y-103510714D01*
X148367857Y-103367857D02*
X148796428Y-103225000D01*
X148796428Y-103596428D01*
X151371428Y-100996428D02*
X151571428Y-100710714D01*
X151714285Y-100996428D02*
X151714285Y-100396428D01*
X151485714Y-100396428D01*
X151428571Y-100425000D01*
X151400000Y-100453571D01*
X151371428Y-100510714D01*
X151371428Y-100596428D01*
X151400000Y-100653571D01*
X151428571Y-100682142D01*
X151485714Y-100710714D01*
X151714285Y-100710714D01*
X150800000Y-100996428D02*
X151142857Y-100996428D01*
X150971428Y-100996428D02*
X150971428Y-100396428D01*
X151028571Y-100482142D01*
X151085714Y-100539285D01*
X151142857Y-100567857D01*
X150228571Y-100996428D02*
X150571428Y-100996428D01*
X150400000Y-100996428D02*
X150400000Y-100396428D01*
X150457142Y-100482142D01*
X150514285Y-100539285D01*
X150571428Y-100567857D01*
X149685714Y-100396428D02*
X149971428Y-100396428D01*
X150000000Y-100682142D01*
X149971428Y-100653571D01*
X149914285Y-100625000D01*
X149771428Y-100625000D01*
X149714285Y-100653571D01*
X149685714Y-100682142D01*
X149657142Y-100739285D01*
X149657142Y-100882142D01*
X149685714Y-100939285D01*
X149714285Y-100967857D01*
X149771428Y-100996428D01*
X149914285Y-100996428D01*
X149971428Y-100967857D01*
X150000000Y-100939285D01*
X174851428Y-115018571D02*
X174565714Y-114818571D01*
X174851428Y-114675714D02*
X174251428Y-114675714D01*
X174251428Y-114904285D01*
X174280000Y-114961428D01*
X174308571Y-114990000D01*
X174365714Y-115018571D01*
X174451428Y-115018571D01*
X174508571Y-114990000D01*
X174537142Y-114961428D01*
X174565714Y-114904285D01*
X174565714Y-114675714D01*
X174851428Y-115590000D02*
X174851428Y-115247142D01*
X174851428Y-115418571D02*
X174251428Y-115418571D01*
X174337142Y-115361428D01*
X174394285Y-115304285D01*
X174422857Y-115247142D01*
X174851428Y-116161428D02*
X174851428Y-115818571D01*
X174851428Y-115990000D02*
X174251428Y-115990000D01*
X174337142Y-115932857D01*
X174394285Y-115875714D01*
X174422857Y-115818571D01*
X174508571Y-116504285D02*
X174480000Y-116447142D01*
X174451428Y-116418571D01*
X174394285Y-116390000D01*
X174365714Y-116390000D01*
X174308571Y-116418571D01*
X174280000Y-116447142D01*
X174251428Y-116504285D01*
X174251428Y-116618571D01*
X174280000Y-116675714D01*
X174308571Y-116704285D01*
X174365714Y-116732857D01*
X174394285Y-116732857D01*
X174451428Y-116704285D01*
X174480000Y-116675714D01*
X174508571Y-116618571D01*
X174508571Y-116504285D01*
X174537142Y-116447142D01*
X174565714Y-116418571D01*
X174622857Y-116390000D01*
X174737142Y-116390000D01*
X174794285Y-116418571D01*
X174822857Y-116447142D01*
X174851428Y-116504285D01*
X174851428Y-116618571D01*
X174822857Y-116675714D01*
X174794285Y-116704285D01*
X174737142Y-116732857D01*
X174622857Y-116732857D01*
X174565714Y-116704285D01*
X174537142Y-116675714D01*
X174508571Y-116618571D01*
X154125714Y-104591428D02*
X154325714Y-104305714D01*
X154468571Y-104591428D02*
X154468571Y-103991428D01*
X154240000Y-103991428D01*
X154182857Y-104020000D01*
X154154285Y-104048571D01*
X154125714Y-104105714D01*
X154125714Y-104191428D01*
X154154285Y-104248571D01*
X154182857Y-104277142D01*
X154240000Y-104305714D01*
X154468571Y-104305714D01*
X153611428Y-103991428D02*
X153725714Y-103991428D01*
X153782857Y-104020000D01*
X153811428Y-104048571D01*
X153868571Y-104134285D01*
X153897142Y-104248571D01*
X153897142Y-104477142D01*
X153868571Y-104534285D01*
X153840000Y-104562857D01*
X153782857Y-104591428D01*
X153668571Y-104591428D01*
X153611428Y-104562857D01*
X153582857Y-104534285D01*
X153554285Y-104477142D01*
X153554285Y-104334285D01*
X153582857Y-104277142D01*
X153611428Y-104248571D01*
X153668571Y-104220000D01*
X153782857Y-104220000D01*
X153840000Y-104248571D01*
X153868571Y-104277142D01*
X153897142Y-104334285D01*
X153268571Y-104591428D02*
X153154285Y-104591428D01*
X153097142Y-104562857D01*
X153068571Y-104534285D01*
X153011428Y-104448571D01*
X152982857Y-104334285D01*
X152982857Y-104105714D01*
X153011428Y-104048571D01*
X153040000Y-104020000D01*
X153097142Y-103991428D01*
X153211428Y-103991428D01*
X153268571Y-104020000D01*
X153297142Y-104048571D01*
X153325714Y-104105714D01*
X153325714Y-104248571D01*
X153297142Y-104305714D01*
X153268571Y-104334285D01*
X153211428Y-104362857D01*
X153097142Y-104362857D01*
X153040000Y-104334285D01*
X153011428Y-104305714D01*
X152982857Y-104248571D01*
X154115714Y-102781428D02*
X154315714Y-102495714D01*
X154458571Y-102781428D02*
X154458571Y-102181428D01*
X154230000Y-102181428D01*
X154172857Y-102210000D01*
X154144285Y-102238571D01*
X154115714Y-102295714D01*
X154115714Y-102381428D01*
X154144285Y-102438571D01*
X154172857Y-102467142D01*
X154230000Y-102495714D01*
X154458571Y-102495714D01*
X153915714Y-102181428D02*
X153515714Y-102181428D01*
X153772857Y-102781428D01*
X153172857Y-102181428D02*
X153115714Y-102181428D01*
X153058571Y-102210000D01*
X153030000Y-102238571D01*
X153001428Y-102295714D01*
X152972857Y-102410000D01*
X152972857Y-102552857D01*
X153001428Y-102667142D01*
X153030000Y-102724285D01*
X153058571Y-102752857D01*
X153115714Y-102781428D01*
X153172857Y-102781428D01*
X153230000Y-102752857D01*
X153258571Y-102724285D01*
X153287142Y-102667142D01*
X153315714Y-102552857D01*
X153315714Y-102410000D01*
X153287142Y-102295714D01*
X153258571Y-102238571D01*
X153230000Y-102210000D01*
X153172857Y-102181428D01*
X135385714Y-108721428D02*
X135585714Y-108435714D01*
X135728571Y-108721428D02*
X135728571Y-108121428D01*
X135500000Y-108121428D01*
X135442857Y-108150000D01*
X135414285Y-108178571D01*
X135385714Y-108235714D01*
X135385714Y-108321428D01*
X135414285Y-108378571D01*
X135442857Y-108407142D01*
X135500000Y-108435714D01*
X135728571Y-108435714D01*
X135185714Y-108121428D02*
X134785714Y-108121428D01*
X135042857Y-108721428D01*
X134614285Y-108121428D02*
X134242857Y-108121428D01*
X134442857Y-108350000D01*
X134357142Y-108350000D01*
X134300000Y-108378571D01*
X134271428Y-108407142D01*
X134242857Y-108464285D01*
X134242857Y-108607142D01*
X134271428Y-108664285D01*
X134300000Y-108692857D01*
X134357142Y-108721428D01*
X134528571Y-108721428D01*
X134585714Y-108692857D01*
X134614285Y-108664285D01*
X188935714Y-107171428D02*
X189135714Y-106885714D01*
X189278571Y-107171428D02*
X189278571Y-106571428D01*
X189050000Y-106571428D01*
X188992857Y-106600000D01*
X188964285Y-106628571D01*
X188935714Y-106685714D01*
X188935714Y-106771428D01*
X188964285Y-106828571D01*
X188992857Y-106857142D01*
X189050000Y-106885714D01*
X189278571Y-106885714D01*
X188707142Y-106628571D02*
X188678571Y-106600000D01*
X188621428Y-106571428D01*
X188478571Y-106571428D01*
X188421428Y-106600000D01*
X188392857Y-106628571D01*
X188364285Y-106685714D01*
X188364285Y-106742857D01*
X188392857Y-106828571D01*
X188735714Y-107171428D01*
X188364285Y-107171428D01*
X187792857Y-107171428D02*
X188135714Y-107171428D01*
X187964285Y-107171428D02*
X187964285Y-106571428D01*
X188021428Y-106657142D01*
X188078571Y-106714285D01*
X188135714Y-106742857D01*
X185621428Y-108524285D02*
X185335714Y-108324285D01*
X185621428Y-108181428D02*
X185021428Y-108181428D01*
X185021428Y-108410000D01*
X185050000Y-108467142D01*
X185078571Y-108495714D01*
X185135714Y-108524285D01*
X185221428Y-108524285D01*
X185278571Y-108495714D01*
X185307142Y-108467142D01*
X185335714Y-108410000D01*
X185335714Y-108181428D01*
X185078571Y-108752857D02*
X185050000Y-108781428D01*
X185021428Y-108838571D01*
X185021428Y-108981428D01*
X185050000Y-109038571D01*
X185078571Y-109067142D01*
X185135714Y-109095714D01*
X185192857Y-109095714D01*
X185278571Y-109067142D01*
X185621428Y-108724285D01*
X185621428Y-109095714D01*
X185021428Y-109467142D02*
X185021428Y-109524285D01*
X185050000Y-109581428D01*
X185078571Y-109610000D01*
X185135714Y-109638571D01*
X185250000Y-109667142D01*
X185392857Y-109667142D01*
X185507142Y-109638571D01*
X185564285Y-109610000D01*
X185592857Y-109581428D01*
X185621428Y-109524285D01*
X185621428Y-109467142D01*
X185592857Y-109410000D01*
X185564285Y-109381428D01*
X185507142Y-109352857D01*
X185392857Y-109324285D01*
X185250000Y-109324285D01*
X185135714Y-109352857D01*
X185078571Y-109381428D01*
X185050000Y-109410000D01*
X185021428Y-109467142D01*
X136995714Y-109361428D02*
X137195714Y-109075714D01*
X137338571Y-109361428D02*
X137338571Y-108761428D01*
X137110000Y-108761428D01*
X137052857Y-108790000D01*
X137024285Y-108818571D01*
X136995714Y-108875714D01*
X136995714Y-108961428D01*
X137024285Y-109018571D01*
X137052857Y-109047142D01*
X137110000Y-109075714D01*
X137338571Y-109075714D01*
X136795714Y-108761428D02*
X136395714Y-108761428D01*
X136652857Y-109361428D01*
X136138571Y-109361428D02*
X136024285Y-109361428D01*
X135967142Y-109332857D01*
X135938571Y-109304285D01*
X135881428Y-109218571D01*
X135852857Y-109104285D01*
X135852857Y-108875714D01*
X135881428Y-108818571D01*
X135910000Y-108790000D01*
X135967142Y-108761428D01*
X136081428Y-108761428D01*
X136138571Y-108790000D01*
X136167142Y-108818571D01*
X136195714Y-108875714D01*
X136195714Y-109018571D01*
X136167142Y-109075714D01*
X136138571Y-109104285D01*
X136081428Y-109132857D01*
X135967142Y-109132857D01*
X135910000Y-109104285D01*
X135881428Y-109075714D01*
X135852857Y-109018571D01*
X124921428Y-108414285D02*
X124635714Y-108214285D01*
X124921428Y-108071428D02*
X124321428Y-108071428D01*
X124321428Y-108300000D01*
X124350000Y-108357142D01*
X124378571Y-108385714D01*
X124435714Y-108414285D01*
X124521428Y-108414285D01*
X124578571Y-108385714D01*
X124607142Y-108357142D01*
X124635714Y-108300000D01*
X124635714Y-108071428D01*
X124578571Y-108757142D02*
X124550000Y-108700000D01*
X124521428Y-108671428D01*
X124464285Y-108642857D01*
X124435714Y-108642857D01*
X124378571Y-108671428D01*
X124350000Y-108700000D01*
X124321428Y-108757142D01*
X124321428Y-108871428D01*
X124350000Y-108928571D01*
X124378571Y-108957142D01*
X124435714Y-108985714D01*
X124464285Y-108985714D01*
X124521428Y-108957142D01*
X124550000Y-108928571D01*
X124578571Y-108871428D01*
X124578571Y-108757142D01*
X124607142Y-108700000D01*
X124635714Y-108671428D01*
X124692857Y-108642857D01*
X124807142Y-108642857D01*
X124864285Y-108671428D01*
X124892857Y-108700000D01*
X124921428Y-108757142D01*
X124921428Y-108871428D01*
X124892857Y-108928571D01*
X124864285Y-108957142D01*
X124807142Y-108985714D01*
X124692857Y-108985714D01*
X124635714Y-108957142D01*
X124607142Y-108928571D01*
X124578571Y-108871428D01*
X124378571Y-109214285D02*
X124350000Y-109242857D01*
X124321428Y-109300000D01*
X124321428Y-109442857D01*
X124350000Y-109500000D01*
X124378571Y-109528571D01*
X124435714Y-109557142D01*
X124492857Y-109557142D01*
X124578571Y-109528571D01*
X124921428Y-109185714D01*
X124921428Y-109557142D01*
X195035714Y-113771428D02*
X195235714Y-113485714D01*
X195378571Y-113771428D02*
X195378571Y-113171428D01*
X195150000Y-113171428D01*
X195092857Y-113200000D01*
X195064285Y-113228571D01*
X195035714Y-113285714D01*
X195035714Y-113371428D01*
X195064285Y-113428571D01*
X195092857Y-113457142D01*
X195150000Y-113485714D01*
X195378571Y-113485714D01*
X194750000Y-113771428D02*
X194635714Y-113771428D01*
X194578571Y-113742857D01*
X194550000Y-113714285D01*
X194492857Y-113628571D01*
X194464285Y-113514285D01*
X194464285Y-113285714D01*
X194492857Y-113228571D01*
X194521428Y-113200000D01*
X194578571Y-113171428D01*
X194692857Y-113171428D01*
X194750000Y-113200000D01*
X194778571Y-113228571D01*
X194807142Y-113285714D01*
X194807142Y-113428571D01*
X194778571Y-113485714D01*
X194750000Y-113514285D01*
X194692857Y-113542857D01*
X194578571Y-113542857D01*
X194521428Y-113514285D01*
X194492857Y-113485714D01*
X194464285Y-113428571D01*
X193950000Y-113371428D02*
X193950000Y-113771428D01*
X194092857Y-113142857D02*
X194235714Y-113571428D01*
X193864285Y-113571428D01*
X194885714Y-112321428D02*
X195085714Y-112035714D01*
X195228571Y-112321428D02*
X195228571Y-111721428D01*
X195000000Y-111721428D01*
X194942857Y-111750000D01*
X194914285Y-111778571D01*
X194885714Y-111835714D01*
X194885714Y-111921428D01*
X194914285Y-111978571D01*
X194942857Y-112007142D01*
X195000000Y-112035714D01*
X195228571Y-112035714D01*
X194600000Y-112321428D02*
X194485714Y-112321428D01*
X194428571Y-112292857D01*
X194400000Y-112264285D01*
X194342857Y-112178571D01*
X194314285Y-112064285D01*
X194314285Y-111835714D01*
X194342857Y-111778571D01*
X194371428Y-111750000D01*
X194428571Y-111721428D01*
X194542857Y-111721428D01*
X194600000Y-111750000D01*
X194628571Y-111778571D01*
X194657142Y-111835714D01*
X194657142Y-111978571D01*
X194628571Y-112035714D01*
X194600000Y-112064285D01*
X194542857Y-112092857D01*
X194428571Y-112092857D01*
X194371428Y-112064285D01*
X194342857Y-112035714D01*
X194314285Y-111978571D01*
X193942857Y-111721428D02*
X193885714Y-111721428D01*
X193828571Y-111750000D01*
X193800000Y-111778571D01*
X193771428Y-111835714D01*
X193742857Y-111950000D01*
X193742857Y-112092857D01*
X193771428Y-112207142D01*
X193800000Y-112264285D01*
X193828571Y-112292857D01*
X193885714Y-112321428D01*
X193942857Y-112321428D01*
X194000000Y-112292857D01*
X194028571Y-112264285D01*
X194057142Y-112207142D01*
X194085714Y-112092857D01*
X194085714Y-111950000D01*
X194057142Y-111835714D01*
X194028571Y-111778571D01*
X194000000Y-111750000D01*
X193942857Y-111721428D01*
X194460714Y-120371428D02*
X194660714Y-120085714D01*
X194803571Y-120371428D02*
X194803571Y-119771428D01*
X194575000Y-119771428D01*
X194517857Y-119800000D01*
X194489285Y-119828571D01*
X194460714Y-119885714D01*
X194460714Y-119971428D01*
X194489285Y-120028571D01*
X194517857Y-120057142D01*
X194575000Y-120085714D01*
X194803571Y-120085714D01*
X194117857Y-120028571D02*
X194175000Y-120000000D01*
X194203571Y-119971428D01*
X194232142Y-119914285D01*
X194232142Y-119885714D01*
X194203571Y-119828571D01*
X194175000Y-119800000D01*
X194117857Y-119771428D01*
X194003571Y-119771428D01*
X193946428Y-119800000D01*
X193917857Y-119828571D01*
X193889285Y-119885714D01*
X193889285Y-119914285D01*
X193917857Y-119971428D01*
X193946428Y-120000000D01*
X194003571Y-120028571D01*
X194117857Y-120028571D01*
X194175000Y-120057142D01*
X194203571Y-120085714D01*
X194232142Y-120142857D01*
X194232142Y-120257142D01*
X194203571Y-120314285D01*
X194175000Y-120342857D01*
X194117857Y-120371428D01*
X194003571Y-120371428D01*
X193946428Y-120342857D01*
X193917857Y-120314285D01*
X193889285Y-120257142D01*
X193889285Y-120142857D01*
X193917857Y-120085714D01*
X193946428Y-120057142D01*
X194003571Y-120028571D01*
X193603571Y-120371428D02*
X193489285Y-120371428D01*
X193432142Y-120342857D01*
X193403571Y-120314285D01*
X193346428Y-120228571D01*
X193317857Y-120114285D01*
X193317857Y-119885714D01*
X193346428Y-119828571D01*
X193375000Y-119800000D01*
X193432142Y-119771428D01*
X193546428Y-119771428D01*
X193603571Y-119800000D01*
X193632142Y-119828571D01*
X193660714Y-119885714D01*
X193660714Y-120028571D01*
X193632142Y-120085714D01*
X193603571Y-120114285D01*
X193546428Y-120142857D01*
X193432142Y-120142857D01*
X193375000Y-120114285D01*
X193346428Y-120085714D01*
X193317857Y-120028571D01*
X194385714Y-118896428D02*
X194585714Y-118610714D01*
X194728571Y-118896428D02*
X194728571Y-118296428D01*
X194500000Y-118296428D01*
X194442857Y-118325000D01*
X194414285Y-118353571D01*
X194385714Y-118410714D01*
X194385714Y-118496428D01*
X194414285Y-118553571D01*
X194442857Y-118582142D01*
X194500000Y-118610714D01*
X194728571Y-118610714D01*
X194042857Y-118553571D02*
X194100000Y-118525000D01*
X194128571Y-118496428D01*
X194157142Y-118439285D01*
X194157142Y-118410714D01*
X194128571Y-118353571D01*
X194100000Y-118325000D01*
X194042857Y-118296428D01*
X193928571Y-118296428D01*
X193871428Y-118325000D01*
X193842857Y-118353571D01*
X193814285Y-118410714D01*
X193814285Y-118439285D01*
X193842857Y-118496428D01*
X193871428Y-118525000D01*
X193928571Y-118553571D01*
X194042857Y-118553571D01*
X194100000Y-118582142D01*
X194128571Y-118610714D01*
X194157142Y-118667857D01*
X194157142Y-118782142D01*
X194128571Y-118839285D01*
X194100000Y-118867857D01*
X194042857Y-118896428D01*
X193928571Y-118896428D01*
X193871428Y-118867857D01*
X193842857Y-118839285D01*
X193814285Y-118782142D01*
X193814285Y-118667857D01*
X193842857Y-118610714D01*
X193871428Y-118582142D01*
X193928571Y-118553571D01*
X193614285Y-118296428D02*
X193214285Y-118296428D01*
X193471428Y-118896428D01*
X124921428Y-110114285D02*
X124635714Y-109914285D01*
X124921428Y-109771428D02*
X124321428Y-109771428D01*
X124321428Y-110000000D01*
X124350000Y-110057142D01*
X124378571Y-110085714D01*
X124435714Y-110114285D01*
X124521428Y-110114285D01*
X124578571Y-110085714D01*
X124607142Y-110057142D01*
X124635714Y-110000000D01*
X124635714Y-109771428D01*
X124578571Y-110457142D02*
X124550000Y-110400000D01*
X124521428Y-110371428D01*
X124464285Y-110342857D01*
X124435714Y-110342857D01*
X124378571Y-110371428D01*
X124350000Y-110400000D01*
X124321428Y-110457142D01*
X124321428Y-110571428D01*
X124350000Y-110628571D01*
X124378571Y-110657142D01*
X124435714Y-110685714D01*
X124464285Y-110685714D01*
X124521428Y-110657142D01*
X124550000Y-110628571D01*
X124578571Y-110571428D01*
X124578571Y-110457142D01*
X124607142Y-110400000D01*
X124635714Y-110371428D01*
X124692857Y-110342857D01*
X124807142Y-110342857D01*
X124864285Y-110371428D01*
X124892857Y-110400000D01*
X124921428Y-110457142D01*
X124921428Y-110571428D01*
X124892857Y-110628571D01*
X124864285Y-110657142D01*
X124807142Y-110685714D01*
X124692857Y-110685714D01*
X124635714Y-110657142D01*
X124607142Y-110628571D01*
X124578571Y-110571428D01*
X124321428Y-110885714D02*
X124321428Y-111257142D01*
X124550000Y-111057142D01*
X124550000Y-111142857D01*
X124578571Y-111200000D01*
X124607142Y-111228571D01*
X124664285Y-111257142D01*
X124807142Y-111257142D01*
X124864285Y-111228571D01*
X124892857Y-111200000D01*
X124921428Y-111142857D01*
X124921428Y-110971428D01*
X124892857Y-110914285D01*
X124864285Y-110885714D01*
M02*
