G04 #@! TF.GenerationSoftware,KiCad,Pcbnew,(5.1.2)-1*
G04 #@! TF.CreationDate,2019-06-04T17:54:49-04:00*
G04 #@! TF.ProjectId,fmcw3,666d6377-332e-46b6-9963-61645f706362,rev?*
G04 #@! TF.SameCoordinates,Original*
G04 #@! TF.FileFunction,Soldermask,Top*
G04 #@! TF.FilePolarity,Negative*
%FSLAX46Y46*%
G04 Gerber Fmt 4.6, Leading zero omitted, Abs format (unit mm)*
G04 Created by KiCad (PCBNEW (5.1.2)-1) date 2019-06-04 17:54:49*
%MOMM*%
%LPD*%
G04 APERTURE LIST*
%ADD10C,0.700000*%
%ADD11C,0.200000*%
%ADD12C,0.800000*%
%ADD13C,1.200000*%
%ADD14C,0.950000*%
%ADD15R,1.650000X1.400000*%
%ADD16R,1.400000X1.650000*%
%ADD17R,0.900000X1.000000*%
%ADD18R,1.280000X1.460000*%
%ADD19R,0.680000X0.900000*%
%ADD20R,1.400000X3.550000*%
%ADD21R,1.250000X0.850000*%
%ADD22C,0.900000*%
%ADD23R,0.680000X1.200000*%
%ADD24R,2.400000X1.600000*%
%ADD25R,0.850000X1.250000*%
%ADD26R,1.200000X0.680000*%
%ADD27R,1.600000X2.400000*%
%ADD28R,1.000000X0.900000*%
%ADD29R,0.650000X1.400000*%
%ADD30R,1.400000X0.650000*%
%ADD31R,0.950000X0.600000*%
%ADD32R,0.600000X0.950000*%
%ADD33R,1.900000X1.900000*%
%ADD34C,0.700000*%
%ADD35R,0.800000X1.050000*%
%ADD36R,1.100000X2.700000*%
%ADD37R,1.100000X1.200000*%
%ADD38R,2.700000X1.100000*%
%ADD39R,1.200000X1.100000*%
%ADD40R,2.237500X2.237500*%
%ADD41R,1.250000X0.700000*%
%ADD42R,0.700000X1.250000*%
%ADD43R,5.060000X2.520000*%
%ADD44R,4.460000X1.920000*%
%ADD45R,1.200000X1.150000*%
%ADD46C,0.500000*%
%ADD47C,4.600000*%
%ADD48C,5.000000*%
%ADD49R,1.000000X1.450000*%
%ADD50R,1.000000X1.650000*%
%ADD51R,1.550000X1.400000*%
%ADD52R,0.800000X1.000000*%
%ADD53R,1.000000X0.800000*%
%ADD54C,0.100000*%
%ADD55R,1.150000X1.200000*%
%ADD56C,0.950000*%
%ADD57C,6.800000*%
%ADD58C,1.000000*%
%ADD59R,2.000000X1.400000*%
%ADD60R,2.900000X1.400000*%
%ADD61R,1.230000X1.590000*%
%ADD62R,1.100000X0.650000*%
%ADD63R,1.600000X1.425000*%
%ADD64O,1.500000X0.850000*%
%ADD65R,1.700000X1.700000*%
%ADD66R,1.050000X0.800000*%
%ADD67R,0.750000X1.400000*%
%ADD68R,1.050000X1.300000*%
%ADD69R,1.800000X1.100000*%
%ADD70R,1.500000X1.100000*%
%ADD71R,1.200000X1.600000*%
%ADD72R,1.600000X1.600000*%
%ADD73R,1.800000X1.400000*%
%ADD74R,3.600000X1.600000*%
%ADD75R,2.300000X1.900000*%
%ADD76R,0.900000X0.900000*%
%ADD77R,0.950000X0.900000*%
%ADD78R,0.950000X1.900000*%
%ADD79R,0.900000X1.225000*%
%ADD80R,1.100000X0.830000*%
%ADD81R,1.740000X2.200000*%
%ADD82R,1.101040X1.400760*%
%ADD83R,0.860000X1.050000*%
%ADD84R,7.700000X1.800000*%
%ADD85R,1.050000X1.400000*%
%ADD86C,1.400000*%
%ADD87R,1.750000X0.800000*%
%ADD88R,2.000000X2.500000*%
%ADD89R,2.300000X2.200000*%
%ADD90R,2.300000X2.300000*%
%ADD91O,0.700000X1.100000*%
%ADD92O,1.100000X0.700000*%
%ADD93R,2.900000X2.900000*%
%ADD94R,0.650000X1.100000*%
%ADD95R,3.100000X3.100000*%
%ADD96R,0.600000X0.450000*%
%ADD97R,1.100000X1.600000*%
%ADD98R,0.750000X0.650000*%
G04 APERTURE END LIST*
D10*
X216500000Y-84200000D02*
X216975000Y-83725000D01*
X217900000Y-83725000D02*
X216975000Y-83725000D01*
X216375000Y-84625000D02*
X216800000Y-84200000D01*
X217525000Y-84200000D02*
X216800000Y-84200000D01*
X208850000Y-84375000D02*
X208225000Y-83750000D01*
X207425000Y-83750000D02*
X208225000Y-83750000D01*
X208575000Y-84500000D02*
X208575000Y-84500000D01*
X208175000Y-84100000D02*
X208575000Y-84500000D01*
X207300000Y-84100000D02*
X208175000Y-84100000D01*
X208200000Y-102225000D02*
X208200000Y-102225000D01*
X209175000Y-102225000D02*
X208200000Y-102225000D01*
X209500000Y-102550000D02*
X209175000Y-102225000D01*
X209500000Y-103200000D02*
X209500000Y-102550000D01*
X209350000Y-103350000D02*
X209500000Y-103200000D01*
X209350000Y-103575000D02*
X209350000Y-103350000D01*
X209350000Y-105550000D02*
X209350000Y-103575000D01*
X207350000Y-99000000D02*
X207350000Y-99000000D01*
X209550000Y-93675000D02*
X209250000Y-93975000D01*
X209250000Y-96275000D02*
X209250000Y-93975000D01*
X207525000Y-97950000D02*
X209250000Y-96275000D01*
X203125000Y-100600000D02*
X203125000Y-100700000D01*
X204850000Y-103375000D02*
X204875000Y-103400000D01*
X208200000Y-88800000D02*
X208200000Y-88800000D01*
X208200000Y-90200000D02*
X208200000Y-88800000D01*
X216625000Y-85500000D02*
X216625000Y-85500000D01*
X216625000Y-86175000D02*
X216625000Y-85500000D01*
X216525000Y-84950000D02*
X216825000Y-84650000D01*
X217800000Y-84650000D02*
X216825000Y-84650000D01*
D11*
X208200000Y-85350000D02*
X208200000Y-85350000D01*
D10*
X208200000Y-86800000D02*
X208200000Y-85350000D01*
D11*
X208475000Y-84975000D02*
X208275000Y-84975000D01*
D12*
X207950000Y-84650000D02*
X208275000Y-84975000D01*
X206825000Y-84650000D02*
X207950000Y-84650000D01*
D13*
X208550000Y-85175000D02*
X216500000Y-85175000D01*
D14*
X207500000Y-90200000D02*
X208900000Y-90200000D01*
X192150000Y-104600000D02*
X190750000Y-104600000D01*
D15*
X203425000Y-97175000D03*
X203425000Y-95175000D03*
D16*
X202550000Y-93850000D03*
X204550000Y-93850000D03*
D17*
X215925000Y-106475000D03*
X215925000Y-107575000D03*
X211025000Y-108725000D03*
X211025000Y-109825000D03*
X216000000Y-94250000D03*
X216000000Y-93150000D03*
X211325000Y-96350000D03*
X211325000Y-95250000D03*
D18*
X212685000Y-95375000D03*
X213565000Y-95375000D03*
D19*
X212375000Y-94425000D03*
X212875000Y-94425000D03*
X213375000Y-94425000D03*
X213875000Y-94425000D03*
X213875000Y-96325000D03*
X213375000Y-96325000D03*
X212875000Y-96325000D03*
X212375000Y-96325000D03*
X212125000Y-109600000D03*
X212625000Y-109600000D03*
X213125000Y-109600000D03*
X213625000Y-109600000D03*
X213625000Y-107700000D03*
X213125000Y-107700000D03*
X212625000Y-107700000D03*
X212125000Y-107700000D03*
D18*
X213315000Y-108650000D03*
X212435000Y-108650000D03*
D20*
X149490000Y-121300000D03*
X149490000Y-116250000D03*
X152030000Y-121300000D03*
X152030000Y-116250000D03*
X154570000Y-121300000D03*
X154570000Y-116250000D03*
X157110000Y-121300000D03*
X157110000Y-116250000D03*
D21*
X147625350Y-90783810D03*
X147625350Y-91443810D03*
X146625350Y-91443810D03*
X146625350Y-90783810D03*
D22*
X147875350Y-90763810D03*
X147875350Y-91463810D03*
X147125350Y-91113810D03*
X146375350Y-90763810D03*
X146375350Y-91463810D03*
D23*
X148125350Y-89863810D03*
X148125350Y-92363810D03*
D24*
X147125350Y-91113810D03*
D23*
X146125350Y-89863810D03*
X146625350Y-89863810D03*
X147125350Y-89863810D03*
X147625350Y-89863810D03*
X147625350Y-92363810D03*
X147125350Y-92363810D03*
X146625350Y-92363810D03*
X146125350Y-92363810D03*
D25*
X177963022Y-89131050D03*
X178623022Y-89131050D03*
X178623022Y-90131050D03*
X177963022Y-90131050D03*
D22*
X177943022Y-88881050D03*
X178643022Y-88881050D03*
X178293022Y-89631050D03*
X177943022Y-90381050D03*
X178643022Y-90381050D03*
D26*
X177043022Y-88631050D03*
X179543022Y-88631050D03*
D27*
X178293022Y-89631050D03*
D26*
X177043022Y-90631050D03*
X177043022Y-90131050D03*
X177043022Y-89631050D03*
X177043022Y-89131050D03*
X179543022Y-89131050D03*
X179543022Y-89631050D03*
X179543022Y-90131050D03*
X179543022Y-90631050D03*
D25*
X183370000Y-80000000D03*
X184030000Y-80000000D03*
X184030000Y-81000000D03*
X183370000Y-81000000D03*
D22*
X183350000Y-79750000D03*
X184050000Y-79750000D03*
X183700000Y-80500000D03*
X183350000Y-81250000D03*
X184050000Y-81250000D03*
D26*
X182450000Y-79500000D03*
X184950000Y-79500000D03*
D27*
X183700000Y-80500000D03*
D26*
X182450000Y-81500000D03*
X182450000Y-81000000D03*
X182450000Y-80500000D03*
X182450000Y-80000000D03*
X184950000Y-80000000D03*
X184950000Y-80500000D03*
X184950000Y-81000000D03*
X184950000Y-81500000D03*
D28*
X200350000Y-78575000D03*
X199250000Y-78575000D03*
D29*
X133060000Y-110910000D03*
X133560000Y-110910000D03*
X134060000Y-110910000D03*
X134560000Y-110910000D03*
X135060000Y-110910000D03*
X135560000Y-110910000D03*
X136060000Y-110910000D03*
X136560000Y-110910000D03*
X137060000Y-110910000D03*
X137560000Y-110910000D03*
X138060000Y-110910000D03*
X138560000Y-110910000D03*
X139060000Y-110910000D03*
X139560000Y-110910000D03*
X140060000Y-110910000D03*
X140560000Y-110910000D03*
D30*
X142510000Y-112860000D03*
X142510000Y-113360000D03*
X142510000Y-113860000D03*
X142510000Y-114360000D03*
X142510000Y-114860000D03*
X142510000Y-115360000D03*
X142510000Y-115860000D03*
X142510000Y-116360000D03*
X142510000Y-116860000D03*
X142510000Y-117360000D03*
X142510000Y-117860000D03*
X142510000Y-118360000D03*
X142510000Y-118860000D03*
X142510000Y-119360000D03*
X142510000Y-119860000D03*
X142510000Y-120360000D03*
D29*
X140560000Y-122310000D03*
X140060000Y-122310000D03*
X139560000Y-122310000D03*
X139060000Y-122310000D03*
X138560000Y-122310000D03*
X138060000Y-122310000D03*
X137560000Y-122310000D03*
X137060000Y-122310000D03*
X136560000Y-122310000D03*
X136060000Y-122310000D03*
X135560000Y-122310000D03*
X135060000Y-122310000D03*
X134560000Y-122310000D03*
X134060000Y-122310000D03*
X133560000Y-122310000D03*
X133060000Y-122310000D03*
D30*
X131110000Y-120360000D03*
X131110000Y-119860000D03*
X131110000Y-119360000D03*
X131110000Y-118860000D03*
X131110000Y-118360000D03*
X131110000Y-117860000D03*
X131110000Y-117360000D03*
X131110000Y-116860000D03*
X131110000Y-116360000D03*
X131110000Y-115860000D03*
X131110000Y-115360000D03*
X131110000Y-114860000D03*
X131110000Y-114360000D03*
X131110000Y-113860000D03*
X131110000Y-113360000D03*
X131110000Y-112860000D03*
D31*
X204235000Y-84160000D03*
X204235000Y-85660000D03*
X204235000Y-84660000D03*
X204235000Y-85160000D03*
D32*
X204810000Y-86235000D03*
X205310000Y-86235000D03*
X205810000Y-86235000D03*
X206310000Y-86235000D03*
D31*
X206885000Y-85660000D03*
X206885000Y-85160000D03*
X206885000Y-84660000D03*
X206885000Y-84160000D03*
D32*
X206310000Y-83585000D03*
X205810000Y-83585000D03*
X205310000Y-83585000D03*
X204810000Y-83585000D03*
D33*
X205560000Y-84910000D03*
D34*
X205160000Y-84510000D03*
X205960000Y-84510000D03*
X205160000Y-85310000D03*
X205960000Y-85310000D03*
D35*
X191550000Y-88500000D03*
X192850000Y-88500000D03*
X192200000Y-90400000D03*
X192850000Y-90400000D03*
X191550000Y-90400000D03*
D36*
X209420000Y-87650000D03*
D37*
X208220000Y-86900000D03*
X208220000Y-88400000D03*
D38*
X201930000Y-82950000D03*
D39*
X201180000Y-84150000D03*
X202680000Y-84150000D03*
D16*
X193875000Y-107950000D03*
X191875000Y-107950000D03*
D15*
X206775000Y-109850000D03*
X206775000Y-107850000D03*
D40*
X177769286Y-107201944D03*
X179606786Y-107201944D03*
X181444286Y-107201944D03*
X183281786Y-107201944D03*
X177769286Y-105364444D03*
X179606786Y-105364444D03*
X181444286Y-105364444D03*
X183281786Y-105364444D03*
X177769286Y-103526944D03*
X179606786Y-103526944D03*
X181444286Y-103526944D03*
X183281786Y-103526944D03*
X177769286Y-101689444D03*
X179606786Y-101689444D03*
X181444286Y-101689444D03*
X183281786Y-101689444D03*
D41*
X176075536Y-108195694D03*
X176075536Y-107695694D03*
X176075536Y-107195694D03*
X176075536Y-106695694D03*
X176075536Y-106195694D03*
X176075536Y-105695694D03*
X176075536Y-105195694D03*
X176075536Y-104695694D03*
X176075536Y-104195694D03*
X176075536Y-103695694D03*
X176075536Y-103195694D03*
X176075536Y-102695694D03*
X176075536Y-102195694D03*
X176075536Y-101695694D03*
X176075536Y-101195694D03*
X176075536Y-100695694D03*
D42*
X176775536Y-99995694D03*
X177275536Y-99995694D03*
X177775536Y-99995694D03*
X178275536Y-99995694D03*
X178775536Y-99995694D03*
X179275536Y-99995694D03*
X179775536Y-99995694D03*
X180275536Y-99995694D03*
X180775536Y-99995694D03*
X181275536Y-99995694D03*
X181775536Y-99995694D03*
X182275536Y-99995694D03*
X182775536Y-99995694D03*
X183275536Y-99995694D03*
X183775536Y-99995694D03*
X184275536Y-99995694D03*
D41*
X184975536Y-100695694D03*
X184975536Y-101195694D03*
X184975536Y-101695694D03*
X184975536Y-102195694D03*
X184975536Y-102695694D03*
X184975536Y-103195694D03*
X184975536Y-103695694D03*
X184975536Y-104195694D03*
X184975536Y-104695694D03*
X184975536Y-105195694D03*
X184975536Y-105695694D03*
X184975536Y-106195694D03*
X184975536Y-106695694D03*
X184975536Y-107195694D03*
X184975536Y-107695694D03*
X184975536Y-108195694D03*
D42*
X184275536Y-108895694D03*
X183775536Y-108895694D03*
X183275536Y-108895694D03*
X182775536Y-108895694D03*
X182275536Y-108895694D03*
X181775536Y-108895694D03*
X181275536Y-108895694D03*
X180775536Y-108895694D03*
X180275536Y-108895694D03*
X179775536Y-108895694D03*
X179275536Y-108895694D03*
X178775536Y-108895694D03*
X178275536Y-108895694D03*
X177775536Y-108895694D03*
X177275536Y-108895694D03*
X176775536Y-108895694D03*
D43*
X220050000Y-110820000D03*
D44*
X220050000Y-108280000D03*
X220050000Y-113360000D03*
D22*
X221800000Y-108720000D03*
X221300000Y-108720000D03*
X220800000Y-108720000D03*
X220300000Y-108720000D03*
X219800000Y-108720000D03*
X219300000Y-108720000D03*
X218800000Y-108720000D03*
X218300000Y-108720000D03*
X221800000Y-112920000D03*
X221300000Y-112920000D03*
X220800000Y-112920000D03*
X220300000Y-112920000D03*
X219800000Y-112920000D03*
X219300000Y-112920000D03*
X218800000Y-112920000D03*
X218300000Y-112920000D03*
D43*
X220050000Y-84670000D03*
D44*
X220050000Y-82130000D03*
X220050000Y-87210000D03*
D22*
X221800000Y-82570000D03*
X221300000Y-82570000D03*
X220800000Y-82570000D03*
X220300000Y-82570000D03*
X219800000Y-82570000D03*
X219300000Y-82570000D03*
X218800000Y-82570000D03*
X218300000Y-82570000D03*
X221800000Y-86770000D03*
X221300000Y-86770000D03*
X220800000Y-86770000D03*
X220300000Y-86770000D03*
X219800000Y-86770000D03*
X219300000Y-86770000D03*
X218800000Y-86770000D03*
X218300000Y-86770000D03*
D43*
X220050000Y-97500000D03*
D44*
X220050000Y-94960000D03*
X220050000Y-100040000D03*
D22*
X221800000Y-95400000D03*
X221300000Y-95400000D03*
X220800000Y-95400000D03*
X220300000Y-95400000D03*
X219800000Y-95400000D03*
X219300000Y-95400000D03*
X218800000Y-95400000D03*
X218300000Y-95400000D03*
X221800000Y-99600000D03*
X221300000Y-99600000D03*
X220800000Y-99600000D03*
X220300000Y-99600000D03*
X219800000Y-99600000D03*
X219300000Y-99600000D03*
X218800000Y-99600000D03*
X218300000Y-99600000D03*
D45*
X140950000Y-109150000D03*
X139450000Y-109150000D03*
D46*
X168373547Y-112097215D03*
X168373547Y-111097215D03*
X168373547Y-110097215D03*
X168373547Y-109097215D03*
X168373547Y-108097215D03*
X168373547Y-107097215D03*
X168373547Y-106097215D03*
X168373547Y-105097215D03*
X168373547Y-104097215D03*
X168373547Y-103097215D03*
X168373547Y-102097215D03*
X168373547Y-101097215D03*
X168373547Y-100097215D03*
X168373547Y-99097215D03*
X168373547Y-98097215D03*
X168373547Y-97097215D03*
X167373547Y-112097215D03*
X167373547Y-111097215D03*
X167373547Y-110097215D03*
X167373547Y-109097215D03*
X167373547Y-108097215D03*
X167373547Y-107097215D03*
X167373547Y-106097215D03*
X167373547Y-105097215D03*
X167373547Y-104097215D03*
X167373547Y-103097215D03*
X167373547Y-102097215D03*
X167373547Y-101097215D03*
X167373547Y-100097215D03*
X167373547Y-99097215D03*
X167373547Y-98097215D03*
X167373547Y-97097215D03*
X166373547Y-112097215D03*
X166373547Y-111097215D03*
X166373547Y-110097215D03*
X166373547Y-109097215D03*
X166373547Y-108097215D03*
X166373547Y-107097215D03*
X166373547Y-106097215D03*
X166373547Y-105097215D03*
X166373547Y-104097215D03*
X166373547Y-103097215D03*
X166373547Y-102097215D03*
X166373547Y-101097215D03*
X166373547Y-100097215D03*
X166373547Y-99097215D03*
X166373547Y-98097215D03*
X166373547Y-97097215D03*
X165373547Y-112097215D03*
X165373547Y-111097215D03*
X165373547Y-110097215D03*
X165373547Y-109097215D03*
X165373547Y-108097215D03*
X165373547Y-107097215D03*
X165373547Y-106097215D03*
X165373547Y-105097215D03*
X165373547Y-104097215D03*
X165373547Y-103097215D03*
X165373547Y-102097215D03*
X165373547Y-101097215D03*
X165373547Y-100097215D03*
X165373547Y-99097215D03*
X165373547Y-98097215D03*
X165373547Y-97097215D03*
X164373547Y-112097215D03*
X164373547Y-111097215D03*
X164373547Y-110097215D03*
X164373547Y-109097215D03*
X164373547Y-108097215D03*
X164373547Y-107097215D03*
X164373547Y-106097215D03*
X164373547Y-105097215D03*
X164373547Y-104097215D03*
X164373547Y-103097215D03*
X164373547Y-102097215D03*
X164373547Y-101097215D03*
X164373547Y-100097215D03*
X164373547Y-99097215D03*
X164373547Y-98097215D03*
X164373547Y-97097215D03*
X163373547Y-112097215D03*
X163373547Y-111097215D03*
X163373547Y-110097215D03*
X163373547Y-109097215D03*
X163373547Y-108097215D03*
X163373547Y-107097215D03*
X163373547Y-106097215D03*
X163373547Y-105097215D03*
X163373547Y-104097215D03*
X163373547Y-103097215D03*
X163373547Y-102097215D03*
X163373547Y-101097215D03*
X163373547Y-100097215D03*
X163373547Y-99097215D03*
X163373547Y-98097215D03*
X163373547Y-97097215D03*
X162373547Y-112097215D03*
X162373547Y-111097215D03*
X162373547Y-110097215D03*
X162373547Y-109097215D03*
X162373547Y-108097215D03*
X162373547Y-107097215D03*
X162373547Y-106097215D03*
X162373547Y-105097215D03*
X162373547Y-104097215D03*
X162373547Y-103097215D03*
X162373547Y-102097215D03*
X162373547Y-101097215D03*
X162373547Y-100097215D03*
X162373547Y-99097215D03*
X162373547Y-98097215D03*
X162373547Y-97097215D03*
X161373547Y-112097215D03*
X161373547Y-111097215D03*
X161373547Y-110097215D03*
X161373547Y-109097215D03*
X161373547Y-108097215D03*
X161373547Y-107097215D03*
X161373547Y-106097215D03*
X161373547Y-105097215D03*
X161373547Y-104097215D03*
X161373547Y-103097215D03*
X161373547Y-102097215D03*
X161373547Y-101097215D03*
X161373547Y-100097215D03*
X161373547Y-99097215D03*
X161373547Y-98097215D03*
X161373547Y-97097215D03*
X160373547Y-112097215D03*
X160373547Y-111097215D03*
X160373547Y-110097215D03*
X160373547Y-109097215D03*
X160373547Y-108097215D03*
X160373547Y-107097215D03*
X160373547Y-106097215D03*
X160373547Y-105097215D03*
X160373547Y-104097215D03*
X160373547Y-103097215D03*
X160373547Y-102097215D03*
X160373547Y-101097215D03*
X160373547Y-100097215D03*
X160373547Y-99097215D03*
X160373547Y-98097215D03*
X160373547Y-97097215D03*
X159373547Y-112097215D03*
X159373547Y-111097215D03*
X159373547Y-110097215D03*
X159373547Y-109097215D03*
X159373547Y-108097215D03*
X159373547Y-107097215D03*
X159373547Y-106097215D03*
X159373547Y-105097215D03*
X159373547Y-104097215D03*
X159373547Y-103097215D03*
X159373547Y-102097215D03*
X159373547Y-101097215D03*
X159373547Y-100097215D03*
X159373547Y-99097215D03*
X159373547Y-98097215D03*
X159373547Y-97097215D03*
X158373547Y-112097215D03*
X158373547Y-111097215D03*
X158373547Y-110097215D03*
X158373547Y-109097215D03*
X158373547Y-108097215D03*
X158373547Y-107097215D03*
X158373547Y-106097215D03*
X158373547Y-105097215D03*
X158373547Y-104097215D03*
X158373547Y-103097215D03*
X158373547Y-102097215D03*
X158373547Y-101097215D03*
X158373547Y-100097215D03*
X158373547Y-99097215D03*
X158373547Y-98097215D03*
X158373547Y-97097215D03*
X157373547Y-112097215D03*
X157373547Y-111097215D03*
X157373547Y-110097215D03*
X157373547Y-109097215D03*
X157373547Y-108097215D03*
X157373547Y-107097215D03*
X157373547Y-106097215D03*
X157373547Y-105097215D03*
X157373547Y-104097215D03*
X157373547Y-103097215D03*
X157373547Y-102097215D03*
X157373547Y-101097215D03*
X157373547Y-100097215D03*
X157373547Y-99097215D03*
X157373547Y-98097215D03*
X157373547Y-97097215D03*
X156373547Y-112097215D03*
X156373547Y-111097215D03*
X156373547Y-110097215D03*
X156373547Y-109097215D03*
X156373547Y-108097215D03*
X156373547Y-107097215D03*
X156373547Y-106097215D03*
X156373547Y-105097215D03*
X156373547Y-104097215D03*
X156373547Y-103097215D03*
X156373547Y-102097215D03*
X156373547Y-101097215D03*
X156373547Y-100097215D03*
X156373547Y-99097215D03*
X156373547Y-98097215D03*
X156373547Y-97097215D03*
X155373547Y-112097215D03*
X155373547Y-111097215D03*
X155373547Y-110097215D03*
X155373547Y-109097215D03*
X155373547Y-108097215D03*
X155373547Y-107097215D03*
X155373547Y-106097215D03*
X155373547Y-105097215D03*
X155373547Y-104097215D03*
X155373547Y-103097215D03*
X155373547Y-102097215D03*
X155373547Y-101097215D03*
X155373547Y-100097215D03*
X155373547Y-99097215D03*
X155373547Y-98097215D03*
X155373547Y-97097215D03*
X154373547Y-112097215D03*
X154373547Y-111097215D03*
X154373547Y-110097215D03*
X154373547Y-109097215D03*
X154373547Y-108097215D03*
X154373547Y-107097215D03*
X154373547Y-106097215D03*
X154373547Y-105097215D03*
X154373547Y-104097215D03*
X154373547Y-103097215D03*
X154373547Y-102097215D03*
X154373547Y-101097215D03*
X154373547Y-100097215D03*
X154373547Y-99097215D03*
X154373547Y-98097215D03*
X154373547Y-97097215D03*
X153373547Y-112097215D03*
X153373547Y-111097215D03*
X153373547Y-110097215D03*
X153373547Y-109097215D03*
X153373547Y-108097215D03*
X153373547Y-107097215D03*
X153373547Y-106097215D03*
X153373547Y-105097215D03*
X153373547Y-104097215D03*
X153373547Y-103097215D03*
X153373547Y-102097215D03*
X153373547Y-101097215D03*
X153373547Y-100097215D03*
X153373547Y-99097215D03*
X153373547Y-98097215D03*
X153373547Y-97097215D03*
D47*
X126375000Y-87750000D03*
D48*
X129375000Y-81850000D03*
D47*
X123375000Y-81850000D03*
D15*
X162400000Y-86900000D03*
X162400000Y-84900000D03*
D49*
X154550000Y-92500000D03*
X155500000Y-92500000D03*
X156450000Y-92500000D03*
D50*
X156450000Y-89900000D03*
X154550000Y-89900000D03*
D51*
X129900000Y-108500000D03*
X131650000Y-108500000D03*
X131650000Y-107200000D03*
X129900000Y-107200000D03*
D52*
X172720000Y-107050000D03*
X171820000Y-107050000D03*
D53*
X200500000Y-118270000D03*
X200500000Y-117370000D03*
D22*
X204356259Y-100132650D03*
D54*
G36*
X203989765Y-100696726D02*
G01*
X203756828Y-99827393D01*
X204722753Y-99568574D01*
X204955690Y-100437907D01*
X203989765Y-100696726D01*
X203989765Y-100696726D01*
G37*
D22*
X203293741Y-100417350D03*
D54*
G36*
X202927247Y-100981426D02*
G01*
X202694310Y-100112093D01*
X203660235Y-99853274D01*
X203893172Y-100722607D01*
X202927247Y-100981426D01*
X202927247Y-100981426D01*
G37*
D55*
X212650000Y-91600000D03*
X212650000Y-90100000D03*
D56*
X207450000Y-90200000D03*
X208950000Y-90200000D03*
X208200000Y-90200000D03*
X191450000Y-104600000D03*
X190700000Y-104600000D03*
X192200000Y-104600000D03*
D57*
X218350000Y-120550000D03*
D58*
X220750000Y-120550000D03*
X220047056Y-122247056D03*
X218350000Y-122950000D03*
X216652944Y-122247056D03*
X215950000Y-120550000D03*
X216652944Y-118852944D03*
X218350000Y-118150000D03*
X220047056Y-118852944D03*
X214797056Y-79402944D03*
X213100000Y-78700000D03*
X211402944Y-79402944D03*
X210700000Y-81100000D03*
X211402944Y-82797056D03*
X213100000Y-83500000D03*
X214797056Y-82797056D03*
X215500000Y-81100000D03*
D57*
X213100000Y-81100000D03*
X124450000Y-120550000D03*
D58*
X126850000Y-120550000D03*
X126147056Y-122247056D03*
X124450000Y-122950000D03*
X122752944Y-122247056D03*
X122050000Y-120550000D03*
X122752944Y-118852944D03*
X124450000Y-118150000D03*
X126147056Y-118852944D03*
D17*
X176710000Y-110320000D03*
X176710000Y-111420000D03*
X173080000Y-110370000D03*
X173080000Y-111470000D03*
D28*
X174615536Y-110245694D03*
X175715536Y-110245694D03*
D17*
X187405536Y-111635694D03*
X187405536Y-110535694D03*
D28*
X185315536Y-110505694D03*
X186415536Y-110505694D03*
D17*
X184485536Y-111625694D03*
X184485536Y-110525694D03*
D53*
X174480000Y-111310000D03*
X174480000Y-112210000D03*
X185535536Y-112175694D03*
X185535536Y-111275694D03*
X175745536Y-111305694D03*
X175745536Y-112205694D03*
X186335536Y-111255694D03*
X186335536Y-112155694D03*
D28*
X202590000Y-87060000D03*
X201490000Y-87060000D03*
D15*
X196800000Y-108750000D03*
X196800000Y-106750000D03*
D55*
X126750000Y-115700000D03*
X126750000Y-114200000D03*
D59*
X150850000Y-110850000D03*
X150850000Y-107850000D03*
X144293380Y-102906234D03*
X144293380Y-105906234D03*
X150860000Y-90980000D03*
X150860000Y-93980000D03*
D60*
X141393380Y-105756234D03*
X141393380Y-102756234D03*
D61*
X158635000Y-81905000D03*
X158635000Y-83095000D03*
X159465000Y-81905000D03*
X159465000Y-83095000D03*
D62*
X160450000Y-81750000D03*
X160450000Y-82250000D03*
X160450000Y-82750000D03*
X160450000Y-83250000D03*
X157650000Y-83250000D03*
X157650000Y-82750000D03*
X157650000Y-82250000D03*
X157650000Y-81750000D03*
X173080000Y-82020000D03*
X173080000Y-82520000D03*
X173080000Y-83020000D03*
X173080000Y-83520000D03*
X175880000Y-83520000D03*
X175880000Y-83020000D03*
X175880000Y-82520000D03*
X175880000Y-82020000D03*
D61*
X174895000Y-83365000D03*
X174895000Y-82175000D03*
X174065000Y-83365000D03*
X174065000Y-82175000D03*
X142355000Y-82515000D03*
X142355000Y-83705000D03*
X143185000Y-82515000D03*
X143185000Y-83705000D03*
D62*
X144170000Y-82360000D03*
X144170000Y-82860000D03*
X144170000Y-83360000D03*
X144170000Y-83860000D03*
X141370000Y-83860000D03*
X141370000Y-83360000D03*
X141370000Y-82860000D03*
X141370000Y-82360000D03*
D63*
X175390000Y-114822500D03*
X175390000Y-115847500D03*
X175390000Y-116872499D03*
X175390000Y-117897500D03*
X176590000Y-114822500D03*
X176590000Y-115847500D03*
X176590000Y-116872499D03*
X176590000Y-117897500D03*
D64*
X178790000Y-114455000D03*
X178790000Y-115725000D03*
X178790000Y-116995000D03*
X178790000Y-118265000D03*
X173190000Y-118265000D03*
X173190000Y-116995000D03*
X173190000Y-115725000D03*
X173190000Y-114455000D03*
D65*
X199735000Y-101555000D03*
X198435000Y-101555000D03*
X199735000Y-102855000D03*
X198435000Y-102855000D03*
D41*
X201035000Y-100955000D03*
X201035000Y-101455000D03*
X201035000Y-101955000D03*
X201035000Y-102455000D03*
X201035000Y-102955000D03*
X201035000Y-103455000D03*
D42*
X200335000Y-104155000D03*
X199835000Y-104155000D03*
X199335000Y-104155000D03*
X198835000Y-104155000D03*
X198335000Y-104155000D03*
X197835000Y-104155000D03*
D41*
X197135000Y-103455000D03*
X197135000Y-102955000D03*
X197135000Y-102455000D03*
X197135000Y-101955000D03*
X197135000Y-101455000D03*
X197135000Y-100955000D03*
D42*
X197835000Y-100255000D03*
X198335000Y-100255000D03*
X198835000Y-100255000D03*
X199335000Y-100255000D03*
X199835000Y-100255000D03*
X200335000Y-100255000D03*
D20*
X169750000Y-116200000D03*
X169750000Y-121250000D03*
X167210000Y-116200000D03*
X167210000Y-121250000D03*
X164670000Y-116200000D03*
X164670000Y-121250000D03*
X162130000Y-116200000D03*
X162130000Y-121250000D03*
D66*
X165250000Y-91650000D03*
X165250000Y-92950000D03*
X165250000Y-92300000D03*
X167150000Y-92950000D03*
X167150000Y-91650000D03*
D67*
X207350000Y-103225000D03*
X206700000Y-103225000D03*
X206050000Y-103225000D03*
X206050000Y-105025000D03*
X206700000Y-105025000D03*
X207350000Y-105025000D03*
X207325000Y-101175000D03*
X206675000Y-101175000D03*
X206025000Y-101175000D03*
X206025000Y-99375000D03*
X206675000Y-99375000D03*
X207325000Y-99375000D03*
X191460000Y-103280000D03*
X192110000Y-103280000D03*
X192760000Y-103280000D03*
X192760000Y-101480000D03*
X192110000Y-101480000D03*
X191460000Y-101480000D03*
D28*
X212650000Y-110850000D03*
X213750000Y-110850000D03*
D17*
X217030000Y-110820000D03*
X217030000Y-109720000D03*
D28*
X196280000Y-88070000D03*
X195180000Y-88070000D03*
X194400000Y-89070000D03*
X195500000Y-89070000D03*
X201030000Y-91950000D03*
X202130000Y-91950000D03*
X202025000Y-93175000D03*
X200925000Y-93175000D03*
X203330000Y-89730000D03*
X204430000Y-89730000D03*
X202400000Y-90400000D03*
X201300000Y-90400000D03*
D17*
X198540000Y-86610000D03*
X198540000Y-87710000D03*
D28*
X155700000Y-94050000D03*
X154600000Y-94050000D03*
X182210000Y-110230000D03*
X183310000Y-110230000D03*
D17*
X197600000Y-87730000D03*
X197600000Y-86630000D03*
D28*
X164000000Y-92300000D03*
X162900000Y-92300000D03*
X166440000Y-90320000D03*
X167540000Y-90320000D03*
D17*
X214800000Y-107575000D03*
X214800000Y-106475000D03*
D28*
X132300000Y-105950000D03*
X133400000Y-105950000D03*
D17*
X128350000Y-108400000D03*
X128350000Y-107300000D03*
X181220000Y-110220000D03*
X181220000Y-111320000D03*
D28*
X173700000Y-100350000D03*
X174800000Y-100350000D03*
D17*
X179910000Y-110195694D03*
X179910000Y-111295694D03*
D28*
X192400000Y-91900000D03*
X191300000Y-91900000D03*
X187325536Y-106495694D03*
X186225536Y-106495694D03*
X202010000Y-86090000D03*
X203110000Y-86090000D03*
D17*
X215410000Y-113830000D03*
X215410000Y-112730000D03*
D28*
X206840000Y-87320000D03*
X205740000Y-87320000D03*
X203600000Y-87280000D03*
X204700000Y-87280000D03*
X210450000Y-106375000D03*
X211550000Y-106375000D03*
X194620000Y-81320000D03*
X195720000Y-81320000D03*
X194060000Y-101730000D03*
X195160000Y-101730000D03*
D22*
X203268741Y-104307650D03*
D54*
G36*
X202669310Y-104612907D02*
G01*
X202902247Y-103743574D01*
X203868172Y-104002393D01*
X203635235Y-104871726D01*
X202669310Y-104612907D01*
X202669310Y-104612907D01*
G37*
D22*
X204331259Y-104592350D03*
D54*
G36*
X203731828Y-104897607D02*
G01*
X203964765Y-104028274D01*
X204930690Y-104287093D01*
X204697753Y-105156426D01*
X203731828Y-104897607D01*
X203731828Y-104897607D01*
G37*
D22*
X204656259Y-103417350D03*
D54*
G36*
X204056828Y-103722607D02*
G01*
X204289765Y-102853274D01*
X205255690Y-103112093D01*
X205022753Y-103981426D01*
X204056828Y-103722607D01*
X204056828Y-103722607D01*
G37*
D22*
X203593741Y-103132650D03*
D54*
G36*
X202994310Y-103437907D02*
G01*
X203227247Y-102568574D01*
X204193172Y-102827393D01*
X203960235Y-103696726D01*
X202994310Y-103437907D01*
X202994310Y-103437907D01*
G37*
D22*
X203593741Y-101592350D03*
D54*
G36*
X203227247Y-102156426D02*
G01*
X202994310Y-101287093D01*
X203960235Y-101028274D01*
X204193172Y-101897607D01*
X203227247Y-102156426D01*
X203227247Y-102156426D01*
G37*
D22*
X204656259Y-101307650D03*
D54*
G36*
X204289765Y-101871726D02*
G01*
X204056828Y-101002393D01*
X205022753Y-100743574D01*
X205255690Y-101612907D01*
X204289765Y-101871726D01*
X204289765Y-101871726D01*
G37*
D17*
X215025000Y-94250000D03*
X215025000Y-93150000D03*
X217250000Y-97520000D03*
X217250000Y-96420000D03*
X215660000Y-99500000D03*
X215660000Y-100600000D03*
D28*
X211850000Y-93175000D03*
X210750000Y-93175000D03*
D17*
X144350000Y-86850000D03*
X144350000Y-85750000D03*
X175650000Y-86650000D03*
X175650000Y-85550000D03*
X159960000Y-85020000D03*
X159960000Y-86120000D03*
D28*
X212870000Y-97550000D03*
X213970000Y-97550000D03*
X170310000Y-90570000D03*
X169210000Y-90570000D03*
X139100000Y-98100000D03*
X140200000Y-98100000D03*
X191950000Y-93000000D03*
X193050000Y-93000000D03*
X174600000Y-86800000D03*
X173500000Y-86800000D03*
X157710000Y-86240000D03*
X158810000Y-86240000D03*
X206360000Y-82520000D03*
X207460000Y-82520000D03*
D17*
X175793022Y-90021050D03*
X175793022Y-88921050D03*
D28*
X148280000Y-88290000D03*
X147180000Y-88290000D03*
D17*
X180911322Y-80260700D03*
X180911322Y-79160700D03*
X182920000Y-86620000D03*
X182920000Y-87720000D03*
D28*
X141950000Y-87010000D03*
X143050000Y-87010000D03*
X202725000Y-119205000D03*
X203825000Y-119205000D03*
X203965000Y-112615000D03*
X202865000Y-112615000D03*
X202885000Y-113555000D03*
X203985000Y-113555000D03*
D17*
X204965000Y-118185000D03*
X204965000Y-119285000D03*
D28*
X183190000Y-116480000D03*
X182090000Y-116480000D03*
D17*
X204965000Y-113125000D03*
X204965000Y-114225000D03*
X209375000Y-119395000D03*
X209375000Y-118295000D03*
X209640000Y-113180000D03*
X209640000Y-114280000D03*
X199550000Y-108700000D03*
X199550000Y-107600000D03*
X198650000Y-107625000D03*
X198650000Y-108725000D03*
X196140000Y-113220000D03*
X196140000Y-112120000D03*
D28*
X193580000Y-117200000D03*
X194680000Y-117200000D03*
D17*
X198425000Y-95800000D03*
X198425000Y-96900000D03*
D28*
X199460000Y-113200000D03*
X198360000Y-113200000D03*
D17*
X200500000Y-114400000D03*
X200500000Y-115500000D03*
X201440000Y-118320000D03*
X201440000Y-117220000D03*
D28*
X199085000Y-120255000D03*
X197985000Y-120255000D03*
X201620000Y-116410000D03*
X200520000Y-116410000D03*
D17*
X197430000Y-113170000D03*
X197430000Y-112070000D03*
D28*
X194720000Y-120885000D03*
X193620000Y-120885000D03*
X193510000Y-119255000D03*
X194610000Y-119255000D03*
X194645000Y-113535000D03*
X193545000Y-113535000D03*
X193595000Y-111985000D03*
X194695000Y-111985000D03*
X192400000Y-120905000D03*
X191300000Y-120905000D03*
D17*
X199625000Y-95825000D03*
X199625000Y-96925000D03*
D28*
X203885000Y-120055000D03*
X202785000Y-120055000D03*
X191305000Y-111975000D03*
X192405000Y-111975000D03*
X182270000Y-118320000D03*
X183370000Y-118320000D03*
X185440000Y-114300000D03*
X184340000Y-114300000D03*
X190900000Y-116650000D03*
X189800000Y-116650000D03*
D17*
X201775000Y-98325000D03*
X201775000Y-99425000D03*
D28*
X196900000Y-99025000D03*
X195800000Y-99025000D03*
X196125000Y-105475000D03*
X197225000Y-105475000D03*
X192340000Y-119205000D03*
X191240000Y-119205000D03*
X191195000Y-113575000D03*
X192295000Y-113575000D03*
D17*
X214180000Y-113850000D03*
X214180000Y-112750000D03*
X180340000Y-115470000D03*
X180340000Y-114370000D03*
X133200000Y-107350000D03*
X133200000Y-108450000D03*
D28*
X194110000Y-102880000D03*
X195210000Y-102880000D03*
D17*
X129550000Y-113250000D03*
X129550000Y-112150000D03*
X129450000Y-118010000D03*
X129450000Y-116910000D03*
X214390000Y-100550000D03*
X214390000Y-99450000D03*
D28*
X212875000Y-93150000D03*
X213975000Y-93150000D03*
X212625000Y-106375000D03*
X213725000Y-106375000D03*
X173275536Y-105995694D03*
X174375536Y-105995694D03*
X177960000Y-110230000D03*
X179060000Y-110230000D03*
X172955536Y-108275694D03*
X174055536Y-108275694D03*
X186025536Y-108345694D03*
X187125536Y-108345694D03*
D17*
X186240000Y-102050000D03*
X186240000Y-100950000D03*
D55*
X212925000Y-102150000D03*
X212925000Y-100650000D03*
D45*
X183480000Y-112700000D03*
X181980000Y-112700000D03*
D55*
X212475000Y-113925000D03*
X212475000Y-115425000D03*
X204580000Y-90880000D03*
X204580000Y-92380000D03*
X196900000Y-96200000D03*
X196900000Y-97700000D03*
X186290000Y-95880000D03*
X186290000Y-97380000D03*
D45*
X193280000Y-79960000D03*
X191780000Y-79960000D03*
X213750000Y-105000000D03*
X215250000Y-105000000D03*
X214350000Y-102130000D03*
X215850000Y-102130000D03*
X216020000Y-115400000D03*
X214520000Y-115400000D03*
X214050000Y-91675000D03*
X215550000Y-91675000D03*
X206370000Y-81330000D03*
X207870000Y-81330000D03*
X216850000Y-91650000D03*
X218350000Y-91650000D03*
X210900000Y-104450000D03*
X212400000Y-104450000D03*
X217520000Y-115700000D03*
X219020000Y-115700000D03*
X165040000Y-89970000D03*
X163540000Y-89970000D03*
X179190000Y-112500000D03*
X177690000Y-112500000D03*
X217100000Y-102260000D03*
X218600000Y-102260000D03*
D55*
X157750000Y-91400000D03*
X157750000Y-89900000D03*
D45*
X203430000Y-81360000D03*
X204930000Y-81360000D03*
X218150000Y-104975000D03*
X216650000Y-104975000D03*
D55*
X182920000Y-84040000D03*
X182920000Y-85540000D03*
D15*
X174113022Y-90671050D03*
X174113022Y-88671050D03*
D16*
X184100000Y-89000000D03*
X186100000Y-89000000D03*
X150210000Y-88150000D03*
X152210000Y-88150000D03*
X170450000Y-87590000D03*
X168450000Y-87590000D03*
X154030000Y-88100000D03*
X156030000Y-88100000D03*
X133560000Y-88760000D03*
X135560000Y-88760000D03*
X166800000Y-87570000D03*
X164800000Y-87570000D03*
X139290000Y-88760000D03*
X137290000Y-88760000D03*
D15*
X153000000Y-91050000D03*
X153000000Y-93050000D03*
X181250000Y-95540000D03*
X181250000Y-97540000D03*
X149069100Y-98369306D03*
X149069100Y-100369306D03*
D16*
X205980000Y-114690000D03*
X207980000Y-114690000D03*
X207980000Y-112590000D03*
X205980000Y-112590000D03*
X205965000Y-119535000D03*
X207965000Y-119535000D03*
X207935000Y-117715000D03*
X205935000Y-117715000D03*
X160580000Y-93790000D03*
X158580000Y-93790000D03*
X203030000Y-79730000D03*
X205030000Y-79730000D03*
D15*
X187500000Y-91150000D03*
X187500000Y-93150000D03*
X144525350Y-89663810D03*
X144525350Y-91663810D03*
X143569100Y-97919306D03*
X143569100Y-99919306D03*
X188030000Y-85960000D03*
X188030000Y-83960000D03*
D16*
X177250000Y-92150000D03*
X179250000Y-92150000D03*
X145850000Y-95300000D03*
X143850000Y-95300000D03*
D15*
X187631322Y-79790700D03*
X187631322Y-81790700D03*
X181950000Y-91450000D03*
X181950000Y-89450000D03*
D16*
X143850000Y-94150000D03*
X145850000Y-94150000D03*
D15*
X189391322Y-81800700D03*
X189391322Y-79800700D03*
X192300000Y-97000000D03*
X192300000Y-95000000D03*
X162460000Y-81110000D03*
X162460000Y-79110000D03*
X131250000Y-89100000D03*
X131250000Y-87100000D03*
X178250000Y-80860000D03*
X178250000Y-78860000D03*
X146670000Y-79690000D03*
X146670000Y-81690000D03*
D16*
X208450000Y-79700000D03*
X206450000Y-79700000D03*
X196630000Y-79890000D03*
X194630000Y-79890000D03*
D15*
X180495805Y-81673855D03*
X180495805Y-83673855D03*
X146793380Y-103056234D03*
X146793380Y-105056234D03*
D19*
X168510000Y-93520000D03*
X169010000Y-93520000D03*
X169510000Y-93520000D03*
X170010000Y-93520000D03*
X170010000Y-91620000D03*
X169510000Y-91620000D03*
X169010000Y-91620000D03*
X168510000Y-91620000D03*
D68*
X169585000Y-92570000D03*
X168935000Y-92570000D03*
D69*
X137400000Y-94650000D03*
X137400000Y-95750000D03*
X137400000Y-96850000D03*
X137400000Y-97950000D03*
X137400000Y-99050000D03*
X137400000Y-100150000D03*
X137400000Y-101250000D03*
X137400000Y-102350000D03*
D70*
X137550000Y-103300000D03*
D71*
X127000000Y-104150000D03*
D72*
X133200000Y-104150000D03*
D73*
X137400000Y-92750000D03*
D74*
X123400000Y-104150000D03*
D75*
X122400000Y-90850000D03*
D76*
X121700000Y-91850000D03*
D77*
X173870000Y-122440000D03*
X173870000Y-121440000D03*
X177120000Y-122440000D03*
X177120000Y-121540000D03*
D78*
X177120000Y-121940000D03*
X173870000Y-121940000D03*
D79*
X159145714Y-91312500D03*
D80*
X160295714Y-91512500D03*
D79*
X161445714Y-91312500D03*
X161445714Y-89837500D03*
D80*
X160295714Y-89637500D03*
D79*
X159145714Y-89837500D03*
D55*
X171150000Y-110150000D03*
X171150000Y-111650000D03*
X141810663Y-91188277D03*
X141810663Y-89688277D03*
D52*
X197290000Y-84170000D03*
X198190000Y-84170000D03*
X201890000Y-91160000D03*
X200990000Y-91160000D03*
X199190000Y-84170000D03*
X200090000Y-84170000D03*
X167780000Y-94830000D03*
X168680000Y-94830000D03*
X171770000Y-94350000D03*
X172670000Y-94350000D03*
D53*
X198690000Y-85580000D03*
X198690000Y-84680000D03*
D52*
X203390000Y-91130000D03*
X202490000Y-91130000D03*
X161690000Y-82850000D03*
X162590000Y-82850000D03*
X158550000Y-84970000D03*
X157650000Y-84970000D03*
X173400000Y-85500000D03*
X174300000Y-85500000D03*
X200765000Y-119345000D03*
X201665000Y-119345000D03*
X191545000Y-110875000D03*
X192445000Y-110875000D03*
D53*
X200180000Y-81880000D03*
X200180000Y-80980000D03*
D52*
X197770000Y-81980000D03*
X198670000Y-81980000D03*
X200635000Y-113205000D03*
X201535000Y-113205000D03*
X178100000Y-83000000D03*
X177200000Y-83000000D03*
D53*
X199625000Y-97675000D03*
X199625000Y-98575000D03*
X198450000Y-97700000D03*
X198450000Y-98600000D03*
X198650000Y-106725000D03*
X198650000Y-105825000D03*
X199550000Y-106725000D03*
X199550000Y-105825000D03*
D52*
X201635000Y-120295000D03*
X200735000Y-120295000D03*
X200595000Y-112135000D03*
X201495000Y-112135000D03*
X200450000Y-79860000D03*
X199550000Y-79860000D03*
D53*
X216630000Y-86160000D03*
X216630000Y-87060000D03*
D52*
X172660000Y-92450000D03*
X171760000Y-92450000D03*
D53*
X162560000Y-93460000D03*
X162560000Y-94360000D03*
D52*
X175450000Y-94050000D03*
X176350000Y-94050000D03*
X189620000Y-122095000D03*
X190520000Y-122095000D03*
D53*
X201500000Y-114380000D03*
X201500000Y-115280000D03*
D52*
X198115000Y-119315000D03*
X199015000Y-119315000D03*
D53*
X146000000Y-121450000D03*
X146000000Y-120550000D03*
D52*
X192400000Y-122085000D03*
X191500000Y-122085000D03*
X192370000Y-117995000D03*
X191470000Y-117995000D03*
X192050000Y-114700000D03*
X191150000Y-114700000D03*
D53*
X189790000Y-121275000D03*
X189790000Y-120375000D03*
X189780000Y-118905000D03*
X189780000Y-119805000D03*
X189615000Y-112655000D03*
X189615000Y-111755000D03*
X129450000Y-114550000D03*
X129450000Y-115450000D03*
X189615000Y-114175000D03*
X189615000Y-113275000D03*
X129460000Y-120490000D03*
X129460000Y-119590000D03*
D52*
X141970000Y-85680000D03*
X142870000Y-85680000D03*
X141900000Y-88550000D03*
X142800000Y-88550000D03*
D53*
X216940000Y-100170000D03*
X216940000Y-101070000D03*
X216740000Y-113820000D03*
X216740000Y-112920000D03*
D52*
X189740000Y-117975000D03*
X190640000Y-117975000D03*
X190150000Y-115200000D03*
X189250000Y-115200000D03*
X127510000Y-110190000D03*
X126610000Y-110190000D03*
X126600000Y-111560000D03*
X127500000Y-111560000D03*
X147020000Y-83350000D03*
X146120000Y-83350000D03*
X174225536Y-107145694D03*
X175125536Y-107145694D03*
X171900000Y-105810000D03*
X171000000Y-105810000D03*
X199340000Y-112030000D03*
X198440000Y-112030000D03*
X145350000Y-117500000D03*
X144450000Y-117500000D03*
X190595000Y-110835000D03*
X189695000Y-110835000D03*
X144550000Y-116300000D03*
X145450000Y-116300000D03*
X145350000Y-118800000D03*
X144450000Y-118800000D03*
D53*
X171150000Y-109150000D03*
X171150000Y-108250000D03*
D81*
X157470000Y-79580000D03*
X160330000Y-79580000D03*
X144520000Y-79720000D03*
X141660000Y-79720000D03*
X173110000Y-79300000D03*
X175970000Y-79300000D03*
D49*
X185850000Y-90750000D03*
X184900000Y-90750000D03*
X183950000Y-90750000D03*
D50*
X183950000Y-93350000D03*
X185850000Y-93350000D03*
D49*
X184950000Y-95410000D03*
X184000000Y-95410000D03*
X183050000Y-95410000D03*
D50*
X183050000Y-98010000D03*
X184950000Y-98010000D03*
X186230000Y-86780000D03*
X184330000Y-86780000D03*
D49*
X184330000Y-84180000D03*
X185280000Y-84180000D03*
X186230000Y-84180000D03*
X145469100Y-100269306D03*
X146419100Y-100269306D03*
X147369100Y-100269306D03*
D50*
X147369100Y-97669306D03*
X145469100Y-97669306D03*
D82*
X134777500Y-105970000D03*
X135730000Y-105970000D03*
X136682500Y-105970000D03*
X136682500Y-108510000D03*
X135730000Y-108510000D03*
X134777500Y-108510000D03*
D83*
X197830000Y-80970000D03*
X198830000Y-80970000D03*
X198330000Y-79920000D03*
D84*
X152280000Y-79980000D03*
X152280000Y-85780000D03*
D85*
X148955000Y-81180000D03*
X155605000Y-81180000D03*
X148955000Y-84580000D03*
X155605000Y-84580000D03*
X171235000Y-84160000D03*
X164585000Y-84160000D03*
X171235000Y-80760000D03*
X164585000Y-80760000D03*
D84*
X167910000Y-85360000D03*
X167910000Y-79560000D03*
X136530000Y-80400000D03*
X136530000Y-86200000D03*
D85*
X133205000Y-81600000D03*
X139855000Y-81600000D03*
X133205000Y-85000000D03*
X139855000Y-85000000D03*
D86*
X172000000Y-113390000D03*
X146900000Y-112200000D03*
X145300000Y-112250000D03*
X145300000Y-114100000D03*
X150810000Y-104910000D03*
X180560000Y-117130000D03*
X179850000Y-119600000D03*
X147050000Y-114100000D03*
D87*
X124825000Y-109800000D03*
X124825000Y-112400000D03*
X124825000Y-111100000D03*
X124825000Y-110450000D03*
X124825000Y-111750000D03*
D88*
X124705000Y-108000000D03*
X124705000Y-114200000D03*
D89*
X122150000Y-114900000D03*
X122150000Y-107300000D03*
D90*
X122150000Y-112300000D03*
X122150000Y-109900000D03*
D91*
X199410000Y-88880000D03*
X198910000Y-88880000D03*
X198410000Y-88880000D03*
X197910000Y-88880000D03*
X197410000Y-88880000D03*
X196910000Y-88880000D03*
X196910000Y-92480000D03*
X197410000Y-92480000D03*
X197910000Y-92480000D03*
X198410000Y-92480000D03*
X198910000Y-92480000D03*
X199410000Y-92480000D03*
D92*
X199960000Y-91930000D03*
X199960000Y-91430000D03*
X199960000Y-90930000D03*
X199960000Y-90430000D03*
X199960000Y-89930000D03*
X196360000Y-89430000D03*
X196360000Y-89920000D03*
X196360000Y-90430000D03*
X196360000Y-90930000D03*
X196360000Y-91430000D03*
X196360000Y-91930000D03*
X199960000Y-89430000D03*
D93*
X198160000Y-90680000D03*
D34*
X198160000Y-90680000D03*
X198160000Y-91330000D03*
X197510000Y-90030000D03*
X198160000Y-90030000D03*
X197510000Y-90680000D03*
X197510000Y-91330000D03*
X198810000Y-91330000D03*
X198810000Y-90680000D03*
X198810000Y-90030000D03*
X198085000Y-117025000D03*
X197435000Y-117025000D03*
X196785000Y-117025000D03*
X196785000Y-115725000D03*
X197435000Y-115725000D03*
X198085000Y-116375000D03*
X198085000Y-115725000D03*
X196785000Y-116375000D03*
X197435000Y-116375000D03*
D93*
X197435000Y-116375000D03*
D91*
X198685000Y-118175000D03*
X196185000Y-114575000D03*
X196685000Y-114575000D03*
X197185000Y-114575000D03*
X197685000Y-114575000D03*
X198195000Y-114575000D03*
X198685000Y-114575000D03*
X198185000Y-118175000D03*
X197685000Y-118175000D03*
X197185000Y-118175000D03*
X196685000Y-118175000D03*
X196185000Y-118175000D03*
D92*
X195635000Y-117625000D03*
X195635000Y-117125000D03*
X195635000Y-116625000D03*
X195635000Y-116125000D03*
X195635000Y-115625000D03*
X195635000Y-115125000D03*
X199235000Y-115125000D03*
X199235000Y-115625000D03*
X199235000Y-116125000D03*
X199235000Y-116625000D03*
X199235000Y-117125000D03*
X199235000Y-117625000D03*
X187985000Y-118630000D03*
X187985000Y-118130000D03*
X187985000Y-117630000D03*
X187985000Y-117130000D03*
X187985000Y-116630000D03*
X187985000Y-116130000D03*
X184385000Y-116130000D03*
X184385000Y-116630000D03*
X184385000Y-117130000D03*
X184385000Y-117630000D03*
X184385000Y-118130000D03*
X184385000Y-118630000D03*
D91*
X184935000Y-119180000D03*
X185435000Y-119180000D03*
X185935000Y-119180000D03*
X186435000Y-119180000D03*
X186935000Y-119180000D03*
X187435000Y-115580000D03*
X186945000Y-115580000D03*
X186435000Y-115580000D03*
X185935000Y-115580000D03*
X185435000Y-115580000D03*
X184935000Y-115580000D03*
X187435000Y-119180000D03*
D93*
X186185000Y-117380000D03*
D34*
X186185000Y-117380000D03*
X185535000Y-117380000D03*
X186835000Y-116730000D03*
X186835000Y-117380000D03*
X186185000Y-116730000D03*
X185535000Y-116730000D03*
X185535000Y-118030000D03*
X186185000Y-118030000D03*
X186835000Y-118030000D03*
D62*
X191870000Y-83020000D03*
X191870000Y-83520000D03*
X191870000Y-84020000D03*
X191870000Y-84520000D03*
X191870000Y-85020000D03*
X191870000Y-85520000D03*
X195670000Y-85520000D03*
X195670000Y-85020000D03*
X195670000Y-84520000D03*
X195670000Y-84020000D03*
X195670000Y-83520000D03*
X195670000Y-83020000D03*
D94*
X195020000Y-82370000D03*
X194520000Y-82370000D03*
X194020000Y-82370000D03*
X193520000Y-82370000D03*
X193020000Y-82370000D03*
X192520000Y-86170000D03*
X193010000Y-86170000D03*
X193520000Y-86170000D03*
X194020000Y-86170000D03*
X194520000Y-86170000D03*
X195020000Y-86170000D03*
X192520000Y-82370000D03*
D95*
X193770000Y-84270000D03*
D34*
X193770000Y-84270000D03*
X194270000Y-83770000D03*
X194770000Y-83270000D03*
X194770000Y-84270000D03*
X194770000Y-85270000D03*
X194270000Y-84770000D03*
X193770000Y-83270000D03*
X193770000Y-85270000D03*
X193270000Y-83770000D03*
X193270000Y-84770000D03*
X192770000Y-83270000D03*
X192770000Y-84270000D03*
X192770000Y-85270000D03*
D96*
X215635000Y-97415000D03*
X215635000Y-98665000D03*
D97*
X215635000Y-98040000D03*
D98*
X214910000Y-98540000D03*
X214910000Y-98040000D03*
X214910000Y-97540000D03*
X216360000Y-97540000D03*
X216360000Y-98040000D03*
X216360000Y-98540000D03*
X216180000Y-111830000D03*
X216180000Y-111330000D03*
X216180000Y-110830000D03*
X214730000Y-110830000D03*
X214730000Y-111330000D03*
X214730000Y-111830000D03*
D97*
X215455000Y-111330000D03*
D96*
X215455000Y-111955000D03*
X215455000Y-110705000D03*
M02*
