G04 #@! TF.GenerationSoftware,KiCad,Pcbnew,(2017-07-25 revision 161045f)-master*
G04 #@! TF.CreationDate,2017-07-26T13:36:44+03:00*
G04 #@! TF.ProjectId,patch_1x5,70617463685F3178352E6B696361645F,rev?*
G04 #@! TF.SameCoordinates,Original*
G04 #@! TF.FileFunction,Copper,L2,Bot,Signal*
G04 #@! TF.FilePolarity,Positive*
%FSLAX46Y46*%
G04 Gerber Fmt 4.6, Leading zero omitted, Abs format (unit mm)*
G04 Created by KiCad (PCBNEW (2017-07-25 revision 161045f)-master) date Wed Jul 26 13:36:44 2017*
%MOMM*%
%LPD*%
G01*
G04 APERTURE LIST*
%ADD10C,0.700000*%
%ADD11R,7.000000X1.600000*%
%ADD12R,1.600000X7.000000*%
%ADD13R,2.400000X1.600000*%
%ADD14C,2.050000*%
%ADD15C,0.200000*%
G04 APERTURE END LIST*
D10*
X141541000Y-112934780D03*
X113541000Y-112934780D03*
D11*
X141550000Y-109870000D03*
X141650000Y-116030000D03*
D12*
X144600000Y-113000000D03*
X138500000Y-112950000D03*
D13*
X138890000Y-116030000D03*
X144210000Y-116030000D03*
X144210000Y-109870000D03*
X138890000Y-109870000D03*
D14*
X141550000Y-112950000D03*
D11*
X113550000Y-109870000D03*
X113650000Y-116030000D03*
D12*
X116600000Y-113000000D03*
X110500000Y-112950000D03*
D13*
X110890000Y-116030000D03*
X116210000Y-116030000D03*
X116210000Y-109870000D03*
X110890000Y-109870000D03*
D14*
X113550000Y-112950000D03*
D15*
G36*
X157325000Y-157925000D02*
X98275000Y-157925000D01*
X98275000Y-155596079D01*
X98999654Y-155596079D01*
X99303494Y-156331429D01*
X99865612Y-156894529D01*
X100600430Y-157199652D01*
X101396079Y-157200346D01*
X102131429Y-156896506D01*
X102694529Y-156334388D01*
X102999652Y-155599570D01*
X102999655Y-155596079D01*
X152599654Y-155596079D01*
X152903494Y-156331429D01*
X153465612Y-156894529D01*
X154200430Y-157199652D01*
X154996079Y-157200346D01*
X155731429Y-156896506D01*
X156294529Y-156334388D01*
X156599652Y-155599570D01*
X156600346Y-154803921D01*
X156296506Y-154068571D01*
X155734388Y-153505471D01*
X154999570Y-153200348D01*
X154203921Y-153199654D01*
X153468571Y-153503494D01*
X152905471Y-154065612D01*
X152600348Y-154800430D01*
X152599654Y-155596079D01*
X102999655Y-155596079D01*
X103000346Y-154803921D01*
X102696506Y-154068571D01*
X102134388Y-153505471D01*
X101399570Y-153200348D01*
X100603921Y-153199654D01*
X99868571Y-153503494D01*
X99305471Y-154065612D01*
X99000348Y-154800430D01*
X98999654Y-155596079D01*
X98275000Y-155596079D01*
X98275000Y-109450000D01*
X110100000Y-109450000D01*
X110100000Y-115950000D01*
X110107902Y-115988962D01*
X110129823Y-116021240D01*
X110162427Y-116042673D01*
X110200752Y-116049997D01*
X116850752Y-115999997D01*
X116888268Y-115992388D01*
X116920711Y-115970711D01*
X116942388Y-115938268D01*
X116950000Y-115900000D01*
X116950000Y-109678632D01*
X138141944Y-109678632D01*
X138141944Y-116178632D01*
X138149846Y-116217594D01*
X138171767Y-116249872D01*
X138204371Y-116271305D01*
X138242696Y-116278629D01*
X144892696Y-116228629D01*
X144930212Y-116221020D01*
X144962655Y-116199343D01*
X144984332Y-116166900D01*
X144991944Y-116128632D01*
X144991944Y-109678632D01*
X144984332Y-109640364D01*
X144962655Y-109607921D01*
X144930212Y-109586244D01*
X144891944Y-109578632D01*
X138241944Y-109578632D01*
X138203676Y-109586244D01*
X138171233Y-109607921D01*
X138149556Y-109640364D01*
X138141944Y-109678632D01*
X116950000Y-109678632D01*
X116950000Y-109450000D01*
X116942388Y-109411732D01*
X116920711Y-109379289D01*
X116888268Y-109357612D01*
X116850000Y-109350000D01*
X110200000Y-109350000D01*
X110161732Y-109357612D01*
X110129289Y-109379289D01*
X110107612Y-109411732D01*
X110100000Y-109450000D01*
X98275000Y-109450000D01*
X98275000Y-61996079D01*
X98999654Y-61996079D01*
X99303494Y-62731429D01*
X99865612Y-63294529D01*
X100600430Y-63599652D01*
X101396079Y-63600346D01*
X102131429Y-63296506D01*
X102694529Y-62734388D01*
X102999652Y-61999570D01*
X102999655Y-61996079D01*
X152599654Y-61996079D01*
X152903494Y-62731429D01*
X153465612Y-63294529D01*
X154200430Y-63599652D01*
X154996079Y-63600346D01*
X155731429Y-63296506D01*
X156294529Y-62734388D01*
X156599652Y-61999570D01*
X156600346Y-61203921D01*
X156296506Y-60468571D01*
X155734388Y-59905471D01*
X154999570Y-59600348D01*
X154203921Y-59599654D01*
X153468571Y-59903494D01*
X152905471Y-60465612D01*
X152600348Y-61200430D01*
X152599654Y-61996079D01*
X102999655Y-61996079D01*
X103000346Y-61203921D01*
X102696506Y-60468571D01*
X102134388Y-59905471D01*
X101399570Y-59600348D01*
X100603921Y-59599654D01*
X99868571Y-59903494D01*
X99305471Y-60465612D01*
X99000348Y-61200430D01*
X98999654Y-61996079D01*
X98275000Y-61996079D01*
X98275000Y-58875000D01*
X157325000Y-58875000D01*
X157325000Y-157925000D01*
X157325000Y-157925000D01*
G37*
X157325000Y-157925000D02*
X98275000Y-157925000D01*
X98275000Y-155596079D01*
X98999654Y-155596079D01*
X99303494Y-156331429D01*
X99865612Y-156894529D01*
X100600430Y-157199652D01*
X101396079Y-157200346D01*
X102131429Y-156896506D01*
X102694529Y-156334388D01*
X102999652Y-155599570D01*
X102999655Y-155596079D01*
X152599654Y-155596079D01*
X152903494Y-156331429D01*
X153465612Y-156894529D01*
X154200430Y-157199652D01*
X154996079Y-157200346D01*
X155731429Y-156896506D01*
X156294529Y-156334388D01*
X156599652Y-155599570D01*
X156600346Y-154803921D01*
X156296506Y-154068571D01*
X155734388Y-153505471D01*
X154999570Y-153200348D01*
X154203921Y-153199654D01*
X153468571Y-153503494D01*
X152905471Y-154065612D01*
X152600348Y-154800430D01*
X152599654Y-155596079D01*
X102999655Y-155596079D01*
X103000346Y-154803921D01*
X102696506Y-154068571D01*
X102134388Y-153505471D01*
X101399570Y-153200348D01*
X100603921Y-153199654D01*
X99868571Y-153503494D01*
X99305471Y-154065612D01*
X99000348Y-154800430D01*
X98999654Y-155596079D01*
X98275000Y-155596079D01*
X98275000Y-109450000D01*
X110100000Y-109450000D01*
X110100000Y-115950000D01*
X110107902Y-115988962D01*
X110129823Y-116021240D01*
X110162427Y-116042673D01*
X110200752Y-116049997D01*
X116850752Y-115999997D01*
X116888268Y-115992388D01*
X116920711Y-115970711D01*
X116942388Y-115938268D01*
X116950000Y-115900000D01*
X116950000Y-109678632D01*
X138141944Y-109678632D01*
X138141944Y-116178632D01*
X138149846Y-116217594D01*
X138171767Y-116249872D01*
X138204371Y-116271305D01*
X138242696Y-116278629D01*
X144892696Y-116228629D01*
X144930212Y-116221020D01*
X144962655Y-116199343D01*
X144984332Y-116166900D01*
X144991944Y-116128632D01*
X144991944Y-109678632D01*
X144984332Y-109640364D01*
X144962655Y-109607921D01*
X144930212Y-109586244D01*
X144891944Y-109578632D01*
X138241944Y-109578632D01*
X138203676Y-109586244D01*
X138171233Y-109607921D01*
X138149556Y-109640364D01*
X138141944Y-109678632D01*
X116950000Y-109678632D01*
X116950000Y-109450000D01*
X116942388Y-109411732D01*
X116920711Y-109379289D01*
X116888268Y-109357612D01*
X116850000Y-109350000D01*
X110200000Y-109350000D01*
X110161732Y-109357612D01*
X110129289Y-109379289D01*
X110107612Y-109411732D01*
X110100000Y-109450000D01*
X98275000Y-109450000D01*
X98275000Y-61996079D01*
X98999654Y-61996079D01*
X99303494Y-62731429D01*
X99865612Y-63294529D01*
X100600430Y-63599652D01*
X101396079Y-63600346D01*
X102131429Y-63296506D01*
X102694529Y-62734388D01*
X102999652Y-61999570D01*
X102999655Y-61996079D01*
X152599654Y-61996079D01*
X152903494Y-62731429D01*
X153465612Y-63294529D01*
X154200430Y-63599652D01*
X154996079Y-63600346D01*
X155731429Y-63296506D01*
X156294529Y-62734388D01*
X156599652Y-61999570D01*
X156600346Y-61203921D01*
X156296506Y-60468571D01*
X155734388Y-59905471D01*
X154999570Y-59600348D01*
X154203921Y-59599654D01*
X153468571Y-59903494D01*
X152905471Y-60465612D01*
X152600348Y-61200430D01*
X152599654Y-61996079D01*
X102999655Y-61996079D01*
X103000346Y-61203921D01*
X102696506Y-60468571D01*
X102134388Y-59905471D01*
X101399570Y-59600348D01*
X100603921Y-59599654D01*
X99868571Y-59903494D01*
X99305471Y-60465612D01*
X99000348Y-61200430D01*
X98999654Y-61996079D01*
X98275000Y-61996079D01*
X98275000Y-58875000D01*
X157325000Y-58875000D01*
X157325000Y-157925000D01*
G36*
X116750000Y-115800749D02*
X110300000Y-115849245D01*
X110300000Y-113360932D01*
X111474640Y-113360932D01*
X111789875Y-114123858D01*
X112373072Y-114708074D01*
X113135446Y-115024639D01*
X113960932Y-115025360D01*
X114723858Y-114710125D01*
X115308074Y-114126928D01*
X115624639Y-113364554D01*
X115625360Y-112539068D01*
X115310125Y-111776142D01*
X114726928Y-111191926D01*
X113964554Y-110875361D01*
X113139068Y-110874640D01*
X112376142Y-111189875D01*
X111791926Y-111773072D01*
X111475361Y-112535446D01*
X111474640Y-113360932D01*
X110300000Y-113360932D01*
X110300000Y-109550000D01*
X116750000Y-109550000D01*
X116750000Y-115800749D01*
X116750000Y-115800749D01*
G37*
X116750000Y-115800749D02*
X110300000Y-115849245D01*
X110300000Y-113360932D01*
X111474640Y-113360932D01*
X111789875Y-114123858D01*
X112373072Y-114708074D01*
X113135446Y-115024639D01*
X113960932Y-115025360D01*
X114723858Y-114710125D01*
X115308074Y-114126928D01*
X115624639Y-113364554D01*
X115625360Y-112539068D01*
X115310125Y-111776142D01*
X114726928Y-111191926D01*
X113964554Y-110875361D01*
X113139068Y-110874640D01*
X112376142Y-111189875D01*
X111791926Y-111773072D01*
X111475361Y-112535446D01*
X111474640Y-113360932D01*
X110300000Y-113360932D01*
X110300000Y-109550000D01*
X116750000Y-109550000D01*
X116750000Y-115800749D01*
G36*
X144791944Y-116029381D02*
X138341944Y-116077877D01*
X138341944Y-113360932D01*
X139474640Y-113360932D01*
X139789875Y-114123858D01*
X140373072Y-114708074D01*
X141135446Y-115024639D01*
X141960932Y-115025360D01*
X142723858Y-114710125D01*
X143308074Y-114126928D01*
X143624639Y-113364554D01*
X143625360Y-112539068D01*
X143310125Y-111776142D01*
X142726928Y-111191926D01*
X141964554Y-110875361D01*
X141139068Y-110874640D01*
X140376142Y-111189875D01*
X139791926Y-111773072D01*
X139475361Y-112535446D01*
X139474640Y-113360932D01*
X138341944Y-113360932D01*
X138341944Y-109778632D01*
X144791944Y-109778632D01*
X144791944Y-116029381D01*
X144791944Y-116029381D01*
G37*
X144791944Y-116029381D02*
X138341944Y-116077877D01*
X138341944Y-113360932D01*
X139474640Y-113360932D01*
X139789875Y-114123858D01*
X140373072Y-114708074D01*
X141135446Y-115024639D01*
X141960932Y-115025360D01*
X142723858Y-114710125D01*
X143308074Y-114126928D01*
X143624639Y-113364554D01*
X143625360Y-112539068D01*
X143310125Y-111776142D01*
X142726928Y-111191926D01*
X141964554Y-110875361D01*
X141139068Y-110874640D01*
X140376142Y-111189875D01*
X139791926Y-111773072D01*
X139475361Y-112535446D01*
X139474640Y-113360932D01*
X138341944Y-113360932D01*
X138341944Y-109778632D01*
X144791944Y-109778632D01*
X144791944Y-116029381D01*
M02*
