G04 #@! TF.GenerationSoftware,KiCad,Pcbnew,(2017-07-25 revision 161045f)-master*
G04 #@! TF.CreationDate,2017-07-26T13:36:44+03:00*
G04 #@! TF.ProjectId,patch_1x5,70617463685F3178352E6B696361645F,rev?*
G04 #@! TF.SameCoordinates,Original*
G04 #@! TF.FileFunction,Copper,L1,Top,Signal*
G04 #@! TF.FilePolarity,Positive*
%FSLAX46Y46*%
G04 Gerber Fmt 4.6, Leading zero omitted, Abs format (unit mm)*
G04 Created by KiCad (PCBNEW (2017-07-25 revision 161045f)-master) date Wed Jul 26 13:36:44 2017*
%MOMM*%
%LPD*%
G01*
G04 APERTURE LIST*
%ADD10C,0.100000*%
%ADD11C,0.700000*%
G04 APERTURE END LIST*
D10*
G36*
X127741000Y-115784780D02*
X127441000Y-115784780D01*
X127441000Y-115284780D01*
X127741000Y-115284780D01*
X127741000Y-115784780D01*
G37*
G36*
X128541000Y-101584780D02*
X128241000Y-101584780D01*
X128241000Y-101084780D01*
X128541000Y-101084780D01*
X128541000Y-101584780D01*
G37*
G36*
X126941000Y-101584780D02*
X126641000Y-101584780D01*
X126641000Y-101084780D01*
X126941000Y-101084780D01*
X126941000Y-101584780D01*
G37*
G36*
X129041000Y-115784780D02*
X128541000Y-115784780D01*
X128541000Y-101084780D01*
X129041000Y-101084780D01*
X129041000Y-115784780D01*
G37*
G36*
X128241000Y-115784780D02*
X127741000Y-115784780D01*
X127741000Y-101084780D01*
X128241000Y-101084780D01*
X128241000Y-115784780D01*
G37*
G36*
X127441000Y-115784780D02*
X126941000Y-115784780D01*
X126941000Y-101084780D01*
X127441000Y-101084780D01*
X127441000Y-115784780D01*
G37*
G36*
X126641000Y-115784780D02*
X126141000Y-115784780D01*
X126141000Y-101084780D01*
X126641000Y-101084780D01*
X126641000Y-115784780D01*
G37*
G36*
X141809125Y-81984780D02*
X148541000Y-81984780D01*
X148541000Y-94884780D01*
X141809125Y-94884780D01*
X141809125Y-101984780D01*
X149541000Y-101984780D01*
X149541000Y-114884780D01*
X141809125Y-114884780D01*
X141809125Y-121984780D01*
X148541000Y-121984780D01*
X148541000Y-134884780D01*
X141809125Y-134884780D01*
X141809125Y-141984780D01*
X147541000Y-141984780D01*
X147541000Y-154884780D01*
X135541000Y-154884780D01*
X135541000Y-141984780D01*
X141272875Y-141984780D01*
X141272875Y-134884780D01*
X134541000Y-134884780D01*
X134541000Y-121984780D01*
X141272875Y-121984780D01*
X141272875Y-114884780D01*
X133541000Y-114884780D01*
X133541000Y-101984780D01*
X141272875Y-101984780D01*
X141272875Y-94884780D01*
X134541000Y-94884780D01*
X134541000Y-81984780D01*
X141272875Y-81984780D01*
X141272875Y-74884780D01*
X135541000Y-74884780D01*
X135541000Y-61984780D01*
X147541000Y-61984780D01*
X147541000Y-74884780D01*
X141809125Y-74884780D01*
X141809125Y-81984780D01*
G37*
G36*
X113809125Y-81984780D02*
X120541000Y-81984780D01*
X120541000Y-94884780D01*
X113809125Y-94884780D01*
X113809125Y-101984780D01*
X121541000Y-101984780D01*
X121541000Y-114884780D01*
X113809125Y-114884780D01*
X113809125Y-121984780D01*
X120541000Y-121984780D01*
X120541000Y-134884780D01*
X113809125Y-134884780D01*
X113809125Y-141984780D01*
X119541000Y-141984780D01*
X119541000Y-154884780D01*
X107541000Y-154884780D01*
X107541000Y-141984780D01*
X113272875Y-141984780D01*
X113272875Y-134884780D01*
X106541000Y-134884780D01*
X106541000Y-121984780D01*
X113272875Y-121984780D01*
X113272875Y-114884780D01*
X105541000Y-114884780D01*
X105541000Y-101984780D01*
X113272875Y-101984780D01*
X113272875Y-94884780D01*
X106541000Y-94884780D01*
X106541000Y-81984780D01*
X113272875Y-81984780D01*
X113272875Y-74884780D01*
X107541000Y-74884780D01*
X107541000Y-61984780D01*
X119541000Y-61984780D01*
X119541000Y-74884780D01*
X113809125Y-74884780D01*
X113809125Y-81984780D01*
G37*
D11*
X141541000Y-112934780D03*
X113541000Y-112934780D03*
M02*
