G04 #@! TF.GenerationSoftware,KiCad,Pcbnew,(5.1.2)-1*
G04 #@! TF.CreationDate,2019-06-07T19:10:42-04:00*
G04 #@! TF.ProjectId,fmcw3,666d6377-332e-46b6-9963-61645f706362,rev?*
G04 #@! TF.SameCoordinates,Original*
G04 #@! TF.FileFunction,Paste,Bot*
G04 #@! TF.FilePolarity,Positive*
%FSLAX46Y46*%
G04 Gerber Fmt 4.6, Leading zero omitted, Abs format (unit mm)*
G04 Created by KiCad (PCBNEW (5.1.2)-1) date 2019-06-07 19:10:42*
%MOMM*%
%LPD*%
G04 APERTURE LIST*
%ADD10C,1.000000*%
%ADD11R,1.250000X1.000000*%
%ADD12R,0.500000X0.600000*%
%ADD13R,0.400000X0.600000*%
%ADD14R,0.460000X0.650000*%
%ADD15R,0.600000X0.400000*%
%ADD16R,1.000000X1.250000*%
%ADD17R,0.600000X0.500000*%
%ADD18R,0.750000X0.800000*%
%ADD19R,0.800000X0.750000*%
G04 APERTURE END LIST*
D10*
X170225000Y-112700000D03*
D11*
X133575000Y-79125000D03*
X133575000Y-81125000D03*
X135875000Y-81050000D03*
X135875000Y-79050000D03*
D12*
X147350000Y-97750000D03*
X147350000Y-98850000D03*
D13*
X146450000Y-101600000D03*
X147350000Y-101600000D03*
D12*
X170250000Y-96400000D03*
X170250000Y-97500000D03*
D14*
X172150000Y-97450000D03*
X171150000Y-97450000D03*
X171650000Y-96400000D03*
D15*
X141400000Y-83000000D03*
X141400000Y-82100000D03*
D12*
X162250000Y-119300000D03*
X162250000Y-118200000D03*
X150025000Y-118075000D03*
X150025000Y-119175000D03*
D11*
X149650000Y-86075000D03*
X149650000Y-88075000D03*
X150800000Y-88075000D03*
X150800000Y-86075000D03*
D16*
X166350000Y-86600000D03*
X164350000Y-86600000D03*
D13*
X174750000Y-91500000D03*
X175650000Y-91500000D03*
D16*
X153500000Y-94850000D03*
X155500000Y-94850000D03*
D17*
X200925000Y-93200000D03*
X202025000Y-93200000D03*
X140050000Y-112650000D03*
X138950000Y-112650000D03*
D12*
X133250000Y-109550000D03*
X133250000Y-108450000D03*
D17*
X140500000Y-122050000D03*
X141600000Y-122050000D03*
D12*
X131350000Y-119750000D03*
X131350000Y-118650000D03*
X143060000Y-118785000D03*
X143060000Y-119885000D03*
D17*
X138300000Y-110700000D03*
X137200000Y-110700000D03*
D12*
X142785000Y-116235000D03*
X142785000Y-117335000D03*
D18*
X128950000Y-113700000D03*
X128950000Y-115200000D03*
X133000000Y-116850000D03*
X133000000Y-115350000D03*
D17*
X157850000Y-105800000D03*
X156750000Y-105800000D03*
X164128548Y-107492216D03*
X165228548Y-107492216D03*
X193000000Y-81270000D03*
X191900000Y-81270000D03*
X202480000Y-86385000D03*
X201380000Y-86385000D03*
X195800000Y-99025000D03*
X196900000Y-99025000D03*
D12*
X180223022Y-89261050D03*
X180223022Y-90361050D03*
D17*
X156720000Y-85190000D03*
X157820000Y-85190000D03*
X166200000Y-91150000D03*
X165100000Y-91150000D03*
D12*
X190150000Y-89100000D03*
X190150000Y-88000000D03*
D17*
X140120000Y-85466572D03*
X139020000Y-85466572D03*
X196100000Y-105475000D03*
X197200000Y-105475000D03*
X147625350Y-93363810D03*
X146525350Y-93363810D03*
D12*
X185241322Y-82080700D03*
X185241322Y-80980700D03*
D17*
X171400000Y-84256798D03*
X170300000Y-84256798D03*
D12*
X161368548Y-101652216D03*
X161368548Y-100552216D03*
D17*
X160468548Y-108642216D03*
X159368548Y-108642216D03*
X158228548Y-103052216D03*
X157128548Y-103052216D03*
X156758548Y-107142216D03*
X157858548Y-107142216D03*
X159348548Y-104062216D03*
X160448548Y-104062216D03*
X158258548Y-102072216D03*
X159358548Y-102072216D03*
X154878548Y-101082216D03*
X155978548Y-101082216D03*
D12*
X164218548Y-103212216D03*
X164218548Y-102112216D03*
X153868548Y-111812216D03*
X153868548Y-110712216D03*
D17*
X167098548Y-106142216D03*
X168198548Y-106142216D03*
X162378548Y-108642216D03*
X161278548Y-108642216D03*
D12*
X157050000Y-97650000D03*
X157050000Y-98750000D03*
X201750000Y-99400000D03*
X201750000Y-98300000D03*
X168198548Y-98482216D03*
X168198548Y-97382216D03*
D17*
X162158548Y-107082216D03*
X161058548Y-107082216D03*
X165048548Y-110222216D03*
X166148548Y-110222216D03*
X134650000Y-121800000D03*
X135750000Y-121800000D03*
D19*
X185400000Y-107200000D03*
X183900000Y-107200000D03*
D18*
X182200000Y-110170000D03*
X182200000Y-111670000D03*
X129000000Y-110300000D03*
X129000000Y-111800000D03*
X183430000Y-110170000D03*
X183430000Y-111670000D03*
X174065536Y-107325694D03*
X174065536Y-108825694D03*
X179200000Y-112110000D03*
X179200000Y-110610000D03*
X177800000Y-110630000D03*
X177800000Y-112130000D03*
D19*
X176750000Y-105900000D03*
X175250000Y-105900000D03*
D11*
X157750000Y-94850000D03*
X157750000Y-92850000D03*
X132690000Y-89340000D03*
X132690000Y-91340000D03*
X131000000Y-87150000D03*
X131000000Y-85150000D03*
X130390000Y-91340000D03*
X130390000Y-89340000D03*
X131490000Y-89340000D03*
X131490000Y-91340000D03*
D16*
X168580000Y-114480000D03*
X166580000Y-114480000D03*
D11*
X159210000Y-114270000D03*
X159210000Y-116270000D03*
D13*
X193080000Y-82240000D03*
X192180000Y-82240000D03*
D15*
X167140000Y-91660000D03*
X167140000Y-92560000D03*
D13*
X165950000Y-92250000D03*
X165050000Y-92250000D03*
X202380000Y-88310000D03*
X201480000Y-88310000D03*
X191510000Y-89430000D03*
X192410000Y-89430000D03*
D15*
X193130000Y-89430000D03*
X193130000Y-90330000D03*
D13*
X155850000Y-86710000D03*
X154950000Y-86710000D03*
X171250000Y-85656798D03*
X172150000Y-85656798D03*
X170300000Y-85656798D03*
X169400000Y-85656798D03*
X139870000Y-86826572D03*
X140770000Y-86826572D03*
X138510000Y-86866572D03*
X137610000Y-86866572D03*
X138860000Y-83250000D03*
X139760000Y-83250000D03*
X158310000Y-86720000D03*
X157410000Y-86720000D03*
X201455000Y-87410000D03*
X202355000Y-87410000D03*
D15*
X148825350Y-92413810D03*
X148825350Y-93313810D03*
D13*
X136810000Y-85406572D03*
X137710000Y-85406572D03*
X169400000Y-84256798D03*
X168500000Y-84256798D03*
X154610000Y-85210000D03*
X155510000Y-85210000D03*
D15*
X181233022Y-89371050D03*
X181233022Y-90271050D03*
D13*
X180193022Y-88141050D03*
X179293022Y-88141050D03*
X147575350Y-94463810D03*
X146675350Y-94463810D03*
D15*
X186271322Y-80220700D03*
X186271322Y-79320700D03*
X194860000Y-104550000D03*
X194860000Y-105450000D03*
X193825000Y-105100000D03*
X193825000Y-106000000D03*
D13*
X202010000Y-90050000D03*
X201110000Y-90050000D03*
D15*
X186231322Y-81030700D03*
X186231322Y-81930700D03*
D13*
X150800000Y-103850000D03*
X149900000Y-103850000D03*
X174500000Y-122030000D03*
X173600000Y-122030000D03*
X150150000Y-102500000D03*
X151050000Y-102500000D03*
X151200000Y-99550000D03*
X150300000Y-99550000D03*
D15*
X173180000Y-115240000D03*
X173180000Y-116140000D03*
D13*
X153290000Y-102920000D03*
X154190000Y-102920000D03*
X153280000Y-103910000D03*
X154180000Y-103910000D03*
X134550000Y-107050000D03*
X135450000Y-107050000D03*
X188100000Y-105500000D03*
X189000000Y-105500000D03*
D15*
X186750000Y-109360000D03*
X186750000Y-108460000D03*
D13*
X137060000Y-107690000D03*
X136160000Y-107690000D03*
D15*
X126050000Y-108350000D03*
X126050000Y-109250000D03*
D13*
X194200000Y-112100000D03*
X195100000Y-112100000D03*
X194950000Y-113450000D03*
X194050000Y-113450000D03*
X194525000Y-118700000D03*
X193625000Y-118700000D03*
X193550000Y-120025000D03*
X194450000Y-120025000D03*
D15*
X126050000Y-110050000D03*
X126050000Y-110950000D03*
M02*
